<?xml version="1.0" standalone="no"?>
<!DOCTYPE svg PUBLIC "-//W3C//DTD SVG 1.1//EN" "http://www.w3.org/Graphics/SVG/1.1/DTD/svg11.dtd" >
<svg>
<metadata>
Created by FontForge 20120731 at Wed Jan 20 23:16:28 2016
 By ,,,
Copyright (c) 2015 by Eduardo Manso. All rights reserved.
</metadata>
<defs>
<font id="Geogrotesque-SmBdIt" horiz-adv-x="340" >
  <font-face 
    font-family="Geogrotesque-SmBdIt"
    font-weight="600"
    font-style="italic"
    font-stretch="normal"
    units-per-em="1000"
    panose-1="0 0 0 0 0 0 0 0 0 0"
    ascent="800"
    descent="-200"
    x-height="498"
    cap-height="680"
    bbox="-200.846 -260 1419 964"
    underline-thickness="89"
    underline-position="-81"
    slope="-7"
    unicode-range="U+0020-FF19"
  />
<missing-glyph horiz-adv-x="847" 
d="M709 94q-51 -50 -115.5 -76t-133.5 -26q-66 0 -131 26t-115 76q-51 50 -77 115t-26 132q0 66 26 131t77 116q50 50 115 76t131 26q67 0 133 -26t116 -76t76.5 -115.5t26.5 -131.5q0 -68 -26.5 -132.5t-76.5 -114.5zM697 106q49 49 74 110.5t25 124.5t-25 124.5t-74 110.5
t-111 73.5t-126 24.5q-63 0 -124 -24.5t-110 -73.5t-74 -110.5t-25 -124.5t25 -124.5t74 -110.5t110 -73.5t124 -24.5q65 0 126.5 24.5t110.5 73.5zM561 167l-100 101l-100 -100q-10 -10 -17.5 -10t-17.5 10l-42 42q-9 9 -8.5 16.5t9.5 16.5l100 100l-100 100
q-10 10 -10 17.5t9 17.5l41 42q9 10 17.5 9.5t18.5 -10.5l100 -100l100 100q10 10 17.5 10.5t17.5 -8.5l42 -41q10 -10 9.5 -18t-10.5 -18l-100 -101l100 -100q10 -10 10 -18t-10 -17l-42 -41q-10 -9 -17.5 -9t-16.5 9z" />
    <glyph glyph-name="fi" unicode="fi" horiz-adv-x="591" 
d="M556 472l-54 -446q-1 -13 -7.5 -19.5t-19.5 -6.5h-84q-13 0 -17.5 6.5t-3.5 19.5l46 366h-176l-71 -568q-1 -13 -7 -19t-19 -6h-83q-13 0 -18 6t-4 19l71 568h-54q-13 0 -17.5 6t-3.5 19l5 50q1 13 7.5 18t20.5 6l50 5h4l7 55q8 67 61 107.5t163 40.5h201q13 0 18 -6
t4 -19l-7 -58q-1 -13 -8 -19t-20 -6h-193q-43 0 -64 -13t-25 -41l-6 -41h282q13 0 18 -5.5t4 -18.5z" />
    <glyph glyph-name="fl" unicode="fl" horiz-adv-x="591" 
d="M581 674l-79 -648q-1 -13 -7.5 -19.5t-19.5 -6.5h-84q-13 0 -17.5 6.5t-3.5 19.5l70 565h-93q-43 0 -64 -13t-25 -41l-6 -41h83q13 0 18.5 -5t4.5 -18l-7 -56q-1 -13 -8 -19t-20 -6h-83l-71 -568q-1 -13 -7 -19t-19 -6h-83q-13 0 -18 6t-4 19l71 568h-54q-13 0 -17.5 6
t-3.5 19l5 50q1 13 7.5 18t20.5 6l50 5h4l7 55q8 67 61 107.5t163 40.5h207q13 0 18 -6t4 -19z" />
    <glyph glyph-name=".notdef" horiz-adv-x="847" 
d="M709 94q-51 -50 -115.5 -76t-133.5 -26q-66 0 -131 26t-115 76q-51 50 -77 115t-26 132q0 66 26 131t77 116q50 50 115 76t131 26q67 0 133 -26t116 -76t76.5 -115.5t26.5 -131.5q0 -68 -26.5 -132.5t-76.5 -114.5zM697 106q49 49 74 110.5t25 124.5t-25 124.5t-74 110.5
t-111 73.5t-126 24.5q-63 0 -124 -24.5t-110 -73.5t-74 -110.5t-25 -124.5t25 -124.5t74 -110.5t110 -73.5t124 -24.5q65 0 126.5 24.5t110.5 73.5zM561 167l-100 101l-100 -100q-10 -10 -17.5 -10t-17.5 10l-42 42q-9 9 -8.5 16.5t9.5 16.5l100 100l-100 100
q-10 10 -10 17.5t9 17.5l41 42q9 10 17.5 9.5t18.5 -10.5l100 -100l100 100q10 10 17.5 10.5t17.5 -8.5l42 -41q10 -10 9.5 -18t-10.5 -18l-100 -101l100 -100q10 -10 10 -18t-10 -17l-42 -41q-10 -9 -17.5 -9t-16.5 9z" />
    <glyph glyph-name="space" unicode=" " horiz-adv-x="194" 
 />
    <glyph glyph-name="uni00A0" unicode="&#xa0;" horiz-adv-x="194" 
 />
    <glyph glyph-name="A" unicode="A" horiz-adv-x="554" 
d="M335 254l-18 111q-8 50 -8.5 104t0.5 79q-7 -30 -22 -87.5t-31 -94.5l-47 -112h126zM283 680h87q13 0 19.5 -6t8.5 -19l110 -630q2 -12 -3 -18.5t-18 -6.5h-88q-13 0 -19 6.5t-8 18.5l-20 122h-186l-50 -122q-4 -12 -11.5 -18.5t-20.5 -6.5h-83q-13 0 -17 6.5t1 18.5
l263 630q5 13 13.5 19t21.5 6z" />
    <glyph glyph-name="Agrave" unicode="&#xc0;" horiz-adv-x="554" 
d="M335 254l-18 111q-8 50 -8.5 104t0.5 79q-7 -30 -22 -87.5t-31 -94.5l-47 -112h126zM283 680h87q13 0 19.5 -6t8.5 -19l110 -630q2 -12 -3 -18.5t-18 -6.5h-88q-13 0 -19 6.5t-8 18.5l-20 122h-186l-50 -122q-4 -12 -11.5 -18.5t-20.5 -6.5h-83q-13 0 -17 6.5t1 18.5
l263 630q5 13 13.5 19t21.5 6zM263 747l-60 106q-6 10 -1.5 17.5t17.5 7.5h85q13 0 20 -7t11 -18l37 -98q5 -13 -0.5 -18.5t-15.5 -5.5h-63q-13 0 -20 5t-10 11z" />
    <glyph glyph-name="Aacute" unicode="&#xc1;" horiz-adv-x="554" 
d="M335 254l-18 111q-8 50 -8.5 104t0.5 79q-7 -30 -22 -87.5t-31 -94.5l-47 -112h126zM283 680h87q13 0 19.5 -6t8.5 -19l110 -630q2 -12 -3 -18.5t-18 -6.5h-88q-13 0 -19 6.5t-8 18.5l-20 122h-186l-50 -122q-4 -12 -11.5 -18.5t-20.5 -6.5h-83q-13 0 -17 6.5t1 18.5
l263 630q5 13 13.5 19t21.5 6zM484 853l-85 -106q-4 -6 -13 -11.5t-22 -5.5h-67q-11 0 -14.5 6t4.5 19l61 98q7 10 15.5 17.5t21.5 7.5h89q13 0 15.5 -7.5t-5.5 -17.5z" />
    <glyph glyph-name="Acircumflex" unicode="&#xc2;" horiz-adv-x="554" 
d="M335 254l-18 111q-8 50 -8.5 104t0.5 79q-7 -30 -22 -87.5t-31 -94.5l-47 -112h126zM283 680h87q13 0 19.5 -6t8.5 -19l110 -630q2 -12 -3 -18.5t-18 -6.5h-88q-13 0 -19 6.5t-8 18.5l-20 122h-186l-50 -122q-4 -12 -11.5 -18.5t-20.5 -6.5h-83q-13 0 -17 6.5t1 18.5
l263 630q5 13 13.5 19t21.5 6zM333 800l-31 -45q-6 -8 -15 -16.5t-22 -8.5h-65q-13 0 -16 7.5t6 17.5l85 98q9 10 19.5 17.5t23.5 7.5h47q13 0 21 -7.5t15 -17.5l62 -98q7 -10 1.5 -17.5t-18.5 -7.5h-62q-13 0 -20.5 7.5t-11.5 17.5z" />
    <glyph glyph-name="Atilde" unicode="&#xc3;" horiz-adv-x="554" 
d="M335 254l-18 111q-8 50 -8.5 104t0.5 79q-7 -30 -22 -87.5t-31 -94.5l-47 -112h126zM283 680h87q13 0 19.5 -6t8.5 -19l110 -630q2 -12 -3 -18.5t-18 -6.5h-88q-13 0 -19 6.5t-8 18.5l-20 122h-186l-50 -122q-4 -12 -11.5 -18.5t-20.5 -6.5h-83q-13 0 -17 6.5t1 18.5
l263 630q5 13 13.5 19t21.5 6zM252 786q-9 0 -13 -5t-7 -15l-3 -10q-4 -13 -11 -17.5t-18 -4.5h-42q-13 0 -16.5 8t-0.5 21l9 41q8 37 34.5 57.5t60.5 20.5q15 0 31 -3.5t29 -10.5l40 -21q10 -5 18.5 -9.5t14.5 -4.5q10 0 14 5.5t8 18.5l2 6q4 12 10 17t19 5h44q13 0 17 -8
t1 -21l-9 -38q-10 -40 -34 -59.5t-55 -19.5q-25 0 -39 3.5t-27 10.5l-43 21q-10 5 -18.5 8.5t-15.5 3.5z" />
    <glyph glyph-name="Adieresis" unicode="&#xc4;" horiz-adv-x="554" 
d="M335 254l-18 111q-8 50 -8.5 104t0.5 79q-7 -30 -22 -87.5t-31 -94.5l-47 -112h126zM283 680h87q13 0 19.5 -6t8.5 -19l110 -630q2 -12 -3 -18.5t-18 -6.5h-88q-13 0 -19 6.5t-8 18.5l-20 122h-186l-50 -122q-4 -12 -11.5 -18.5t-20.5 -6.5h-83q-13 0 -17 6.5t1 18.5
l263 630q5 13 13.5 19t21.5 6zM456 850l-11 -93q-1 -13 -7.5 -19t-19.5 -6h-49q-13 0 -17.5 6t-3.5 19l11 93q1 13 8 19.5t20 6.5h49q13 0 17 -6.5t3 -19.5zM316 850l-11 -93q-1 -13 -7.5 -19t-19.5 -6h-49q-13 0 -17.5 6t-3.5 19l12 93q1 13 7.5 19.5t19.5 6.5h49
q13 0 17 -6.5t3 -19.5z" />
    <glyph glyph-name="Aring" unicode="&#xc5;" horiz-adv-x="554" 
d="M335 254l-18 111q-8 50 -8.5 104t0.5 79q-7 -30 -22 -87.5t-31 -94.5l-47 -112h126zM283 680h87q13 0 19.5 -6t8.5 -19l110 -630q2 -12 -3 -18.5t-18 -6.5h-88q-13 0 -19 6.5t-8 18.5l-20 122h-186l-50 -122q-4 -12 -11.5 -18.5t-20.5 -6.5h-83q-13 0 -17 6.5t1 18.5
l263 630q5 13 13.5 19t21.5 6zM447 819l-3 -31q-3 -29 -28 -52t-85 -23q-59 0 -84.5 23t-22.5 57l3 30q3 31 29 53.5t87 22.5q59 0 83 -23t21 -57zM375 798l1 15q1 19 -9 24.5t-29 5.5t-30.5 -7t-12.5 -23l-1 -15q-1 -15 9 -22.5t29 -7.5t30.5 7t12.5 23z" />
    <glyph glyph-name="Amacron" unicode="&#x100;" horiz-adv-x="554" 
d="M335 254l-18 111q-8 50 -8.5 104t0.5 79q-7 -30 -22 -87.5t-31 -94.5l-47 -112h126zM283 680h87q13 0 19.5 -6t8.5 -19l110 -630q2 -12 -3 -18.5t-18 -6.5h-88q-13 0 -19 6.5t-8 18.5l-20 122h-186l-50 -122q-4 -12 -11.5 -18.5t-20.5 -6.5h-83q-13 0 -17 6.5t1 18.5
l263 630q5 13 13.5 19t21.5 6zM217 849h230q13 0 18 -5t4 -18l-5 -51q-1 -13 -8.5 -19t-20.5 -6h-230q-13 0 -18 6t-4 19l5 51q1 13 8.5 18t20.5 5z" />
    <glyph glyph-name="Abreve" unicode="&#x102;" horiz-adv-x="554" 
d="M335 254l-18 111q-8 50 -8.5 104t0.5 79q-7 -30 -22 -87.5t-31 -94.5l-47 -112h126zM283 680h87q13 0 19.5 -6t8.5 -19l110 -630q2 -12 -3 -18.5t-18 -6.5h-88q-13 0 -19 6.5t-8 18.5l-20 122h-186l-50 -122q-4 -12 -11.5 -18.5t-20.5 -6.5h-83q-13 0 -17 6.5t1 18.5
l263 630q5 13 13.5 19t21.5 6zM288 871l-1 -10q-1 -7 -1 -11v-5q0 -16 9 -25.5t32 -9.5q27 0 38 12.5t12 32.5l1 16q1 12 7 16.5t18 4.5h50q12 0 16 -5t3 -16l-2 -13q-9 -60 -42.5 -92.5t-105.5 -32.5q-59 0 -95 26.5t-36 75.5v9.5t1 11.5l2 15q1 11 7 16t18 5h50
q11 0 15.5 -4.5t3.5 -16.5z" />
    <glyph glyph-name="Aogonek" unicode="&#x104;" horiz-adv-x="554" 
d="M282 680h88q13 0 19.5 -6t8.5 -19l110 -630q2 -12 -3 -18.5t-18 -6.5h-33q-26 0 -37 -18t-11 -41q0 -15 9 -22t28 -7h25q13 0 19.5 -5.5t5.5 -18.5l-4 -34q-1 -13 -10.5 -19t-22.5 -6h-53q-26 0 -60.5 16t-34.5 67q0 18 10 54.5t50 73.5l-16 107h-186l-51 -122
q-5 -12 -12 -18.5t-20 -6.5h-83q-13 0 -16.5 6.5t1.5 18.5l263 630q5 13 13 19t21 6zM335 254l-18 111q-7 41 -8 98.5t0 83.5q-1 -6 -7 -29t-14 -51t-16.5 -56t-15.5 -45l-47 -112h126z" />
    <glyph glyph-name="Aringacute" unicode="&#x1fa;" horiz-adv-x="554" 
d="M330 713q-59 0 -85.5 22.5t-22.5 57.5l4 30q3 25 19 44.5t53 27.5l26 44q7 11 15.5 18t21.5 7h89q13 0 15.5 -7.5t-6.5 -17.5l-46 -55q21 -10 28 -25.5t5 -39.5l-3 -30q-3 -31 -28 -53.5t-85 -22.5zM374 798l1 15q1 18 -10.5 24t-27.5 6q-19 0 -30.5 -7t-12.5 -23l-1 -15
q-1 -16 10 -23t28 -7q19 0 30.5 7t12.5 23zM335 254l-18 111q-8 50 -8.5 104t0.5 79q-7 -30 -22 -87.5t-31 -94.5l-47 -112h126zM283 680h87q13 0 19.5 -6t8.5 -19l110 -630q2 -12 -3 -18.5t-18 -6.5h-88q-13 0 -19 6.5t-8 18.5l-20 122h-186l-50 -122q-4 -12 -11.5 -18.5
t-20.5 -6.5h-83q-13 0 -17 6.5t1 18.5l263 630q5 13 13.5 19t21.5 6z" />
    <glyph glyph-name="B" unicode="B" horiz-adv-x="593" 
d="M279 0h-218q-10 0 -17 5t-5 21l77 628q1 13 8 19.5t20 6.5h179q121 0 174.5 -40.5t53.5 -97.5q0 -4 -0.5 -10.5t-1.5 -13.5l-7 -51q-6 -41 -26.5 -67t-61.5 -43q44 -16 68.5 -46.5t24.5 -66.5v-8t-1 -12l-9 -71q-8 -63 -64 -108t-194 -45zM316 572h-74l-22 -174h75
q46 0 78.5 17t36.5 54l3 29q1 7 1 11v6q0 31 -26 44t-72 13zM313 296h-106l-22 -188h103q50 0 82 16t36 53l5 39q1 7 1 10.5v5.5q0 28 -24 46t-75 18z" />
    <glyph glyph-name="C" unicode="C" horiz-adv-x="569" 
d="M519 217l-7 -62q-7 -63 -60 -113t-191 -50q-122 0 -171 43.5t-49 100.5q0 5 0.5 12t1.5 14l44 363q7 63 60 113t191 50q121 0 170.5 -43t49.5 -100q0 -5 -0.5 -12t-1.5 -14l-5 -42q-1 -13 -7 -19t-19 -6h-84q-13 0 -17.5 7t-3.5 18l3 19q1 7 1 12v7q0 30 -24 45.5
t-70 15.5q-50 0 -78 -19t-32 -56l-39 -315q-1 -7 -1.5 -12.5t-0.5 -8.5q0 -29 24 -45t70 -16q50 0 78.5 19t32.5 56l4 38q1 13 8 19t20 6h83q14 0 17.5 -7t2.5 -18z" />
    <glyph glyph-name="Ccedilla" unicode="&#xc7;" horiz-adv-x="568" 
d="M374 -117q0 -48 -28 -71t-70 -23h-120q-14 0 -18 7t-3 18l2 20q1 13 7.5 18.5t19.5 5.5h98q10 0 15.5 4t5.5 13q0 8 -5.5 11t-12.5 3h-73q-17 0 -25.5 8t-1.5 25l30 74q-84 12 -119 51.5t-35 88.5q0 5 0.5 12t1.5 14l44 363q7 63 60 113t191 50q121 0 170.5 -43
t49.5 -100q0 -5 -0.5 -12t-1.5 -14l-5 -42q-1 -13 -7 -19t-19 -6h-84q-13 0 -17.5 7t-3.5 18l3 19q1 6 1 11v8q0 30 -24 45.5t-70 15.5q-50 0 -78 -19t-32 -56l-39 -315q-1 -6 -1.5 -11t-0.5 -8q0 -31 24 -47t70 -16q50 0 78.5 19t32.5 56l4 38q1 13 8 19t20 6h83
q14 0 17.5 -7t2.5 -18l-7 -62q-7 -60 -56 -109.5t-175 -53.5l-15 -37h31q34 0 55.5 -19t21.5 -53z" />
    <glyph glyph-name="Cacute" unicode="&#x106;" horiz-adv-x="569" 
d="M519 217l-7 -62q-7 -63 -60 -113t-191 -50q-122 0 -171 43.5t-49 100.5q0 5 0.5 12t1.5 14l44 363q7 63 60 113t191 50q121 0 170.5 -43t49.5 -100q0 -5 -0.5 -12t-1.5 -14l-5 -42q-1 -13 -7 -19t-19 -6h-84q-13 0 -17.5 7t-3.5 18l3 19q1 7 1 12v7q0 30 -24 45.5
t-70 15.5q-50 0 -78 -19t-32 -56l-39 -315q-1 -7 -1.5 -12.5t-0.5 -8.5q0 -29 24 -45t70 -16q50 0 78.5 19t32.5 56l4 38q1 13 8 19t20 6h83q14 0 17.5 -7t2.5 -18zM497 853l-85 -106q-4 -6 -13 -11.5t-22 -5.5h-67q-11 0 -14.5 6t4.5 19l61 98q7 10 15.5 17.5t21.5 7.5h89
q13 0 15.5 -7.5t-5.5 -17.5z" />
    <glyph glyph-name="Ccircumflex" unicode="&#x108;" horiz-adv-x="569" 
d="M519 217l-7 -62q-7 -63 -60 -113t-191 -50q-122 0 -171 43.5t-49 100.5q0 5 0.5 12t1.5 14l44 363q7 63 60 113t191 50q121 0 170.5 -43t49.5 -100q0 -5 -0.5 -12t-1.5 -14l-5 -42q-1 -13 -7 -19t-19 -6h-84q-13 0 -17.5 7t-3.5 18l3 19q1 7 1 12v7q0 30 -24 45.5
t-70 15.5q-50 0 -78 -19t-32 -56l-39 -315q-1 -7 -1.5 -12.5t-0.5 -8.5q0 -29 24 -45t70 -16q50 0 78.5 19t32.5 56l4 38q1 13 8 19t20 6h83q14 0 17.5 -7t2.5 -18zM355 800l-31 -45q-6 -8 -15 -16.5t-22 -8.5h-65q-13 0 -16 7.5t6 17.5l85 98q9 10 19.5 17.5t23.5 7.5h47
q13 0 21 -7.5t15 -17.5l62 -98q7 -10 1.5 -17.5t-18.5 -7.5h-62q-13 0 -20.5 7.5t-11.5 17.5z" />
    <glyph glyph-name="Cdotaccent" unicode="&#x10a;" horiz-adv-x="569" 
d="M421 839l-10 -82q-1 -13 -7 -18.5t-19 -5.5h-86q-13 0 -17.5 5.5t-3.5 18.5l10 82q1 13 7.5 19t19.5 6h86q13 0 17 -6t3 -19zM519 217l-7 -62q-7 -63 -60 -113t-191 -50q-122 0 -171 43.5t-49 100.5q0 5 0.5 12t1.5 14l44 363q7 63 60 113t191 50q121 0 170.5 -43
t49.5 -100q0 -5 -0.5 -12t-1.5 -14l-5 -42q-1 -13 -7 -19t-19 -6h-84q-13 0 -17.5 7t-3.5 18l3 19q1 7 1 12v7q0 30 -24 45.5t-70 15.5q-50 0 -78 -19t-32 -56l-39 -315q-1 -7 -1.5 -12.5t-0.5 -8.5q0 -29 24 -45t70 -16q50 0 78.5 19t32.5 56l4 38q1 13 8 19t20 6h83
q14 0 17.5 -7t2.5 -18z" />
    <glyph glyph-name="Ccaron" unicode="&#x10c;" horiz-adv-x="569" 
d="M519 217l-7 -62q-7 -63 -60 -113t-191 -50q-122 0 -171 43.5t-49 100.5q0 5 0.5 12t1.5 14l44 363q7 63 60 113t191 50q121 0 170.5 -43t49.5 -100q0 -5 -0.5 -12t-1.5 -14l-5 -42q-1 -13 -7 -19t-19 -6h-84q-13 0 -17.5 7t-3.5 18l3 19q1 7 1 12v7q0 30 -24 45.5
t-70 15.5q-50 0 -78 -19t-32 -56l-39 -315q-1 -7 -1.5 -12.5t-0.5 -8.5q0 -29 24 -45t70 -16q50 0 78.5 19t32.5 56l4 38q1 13 8 19t20 6h83q14 0 17.5 -7t2.5 -18zM336 854l20 -46l30 46q6 9 15.5 16.5t22.5 7.5h64q13 0 15.5 -7t-5.5 -17l-84 -99q-9 -11 -19.5 -18
t-23.5 -7h-48q-13 0 -21 7.5t-15 18.5l-61 98q-6 10 -1 17t18 7h62q13 0 20 -8t11 -16z" />
    <glyph glyph-name="D" unicode="D" horiz-adv-x="615" 
d="M286 0h-229q-10 0 -15 6.5t-4 19.5l77 628q1 13 8 19.5t20 6.5h212q124 0 177.5 -45t53.5 -102q0 -4 -1 -14t-2 -15l-41 -341q-7 -63 -62 -113t-194 -50zM348 568h-107l-57 -456h109q50 0 81 19t35 56l36 295q1 5 1.5 12.5t0.5 10.5q0 31 -25 47t-74 16z" />
    <glyph glyph-name="Dcaron" unicode="&#x10e;" horiz-adv-x="615" 
d="M286 0h-229q-10 0 -15 6.5t-4 19.5l77 628q1 13 8 19.5t20 6.5h212q124 0 177.5 -45t53.5 -102q0 -4 -1 -14t-2 -15l-41 -341q-7 -63 -62 -113t-194 -50zM348 568h-107l-57 -456h109q50 0 81 19t35 56l36 295q1 5 1.5 12.5t0.5 10.5q0 31 -25 47t-74 16zM330 854l20 -46
l30 46q6 9 15.5 16.5t22.5 7.5h64q13 0 15.5 -7t-5.5 -17l-84 -99q-9 -11 -19.5 -18t-23.5 -7h-48q-13 0 -21 7.5t-15 18.5l-61 98q-6 10 -1 17t18 7h62q13 0 20 -8t11 -16z" />
    <glyph glyph-name="E" unicode="E" horiz-adv-x="511" 
d="M412 0h-352q-13 0 -18 6.5t-4 19.5l77 628q1 13 8 19.5t20 6.5h342q13 0 18 -5.5t4 -18.5l-8 -63q-1 -13 -7.5 -19t-19.5 -6h-231l-20 -162h214q13 0 18 -5.5t4 -18.5l-8 -60q-1 -13 -7.5 -18.5t-19.5 -5.5h-215l-23 -186h241q13 0 18.5 -5.5t4.5 -18.5l-8 -63
q-1 -13 -8 -19t-20 -6z" />
    <glyph glyph-name="Egrave" unicode="&#xc8;" horiz-adv-x="510" 
d="M257 747l-60 106q-6 10 -1.5 17.5t17.5 7.5h85q13 0 20 -7t11 -18l37 -98q5 -13 -0.5 -18.5t-15.5 -5.5h-63q-13 0 -20 5t-10 11zM412 0h-352q-13 0 -18 6.5t-4 19.5l77 628q1 13 8 19.5t20 6.5h342q13 0 18 -5.5t4 -18.5l-8 -63q-1 -13 -7.5 -19t-19.5 -6h-231l-20 -162
h214q13 0 18 -5.5t4 -18.5l-8 -60q-1 -13 -7.5 -18.5t-19.5 -5.5h-215l-23 -186h241q13 0 18.5 -5.5t4.5 -18.5l-8 -63q-1 -13 -8 -19t-20 -6z" />
    <glyph glyph-name="Eacute" unicode="&#xc9;" horiz-adv-x="510" 
d="M412 0h-352q-13 0 -18 6.5t-4 19.5l77 628q1 13 8 19.5t20 6.5h342q13 0 18 -5.5t4 -18.5l-8 -63q-1 -13 -7.5 -19t-19.5 -6h-231l-20 -162h214q13 0 18 -5.5t4 -18.5l-8 -60q-1 -13 -7.5 -18.5t-19.5 -5.5h-215l-23 -186h241q13 0 18.5 -5.5t4.5 -18.5l-8 -63
q-1 -13 -8 -19t-20 -6zM461 853l-85 -106q-4 -6 -13 -11.5t-22 -5.5h-67q-11 0 -14.5 6t4.5 19l61 98q7 10 15.5 17.5t21.5 7.5h89q13 0 15.5 -7.5t-5.5 -17.5z" />
    <glyph glyph-name="Ecircumflex" unicode="&#xca;" horiz-adv-x="510" 
d="M325 800l-31 -45q-6 -8 -15 -16.5t-22 -8.5h-65q-13 0 -16 7.5t6 17.5l85 98q9 10 19.5 17.5t23.5 7.5h47q13 0 21 -7.5t15 -17.5l62 -98q7 -10 1.5 -17.5t-18.5 -7.5h-62q-13 0 -20.5 7.5t-11.5 17.5zM412 0h-352q-13 0 -18 6.5t-4 19.5l77 628q1 13 8 19.5t20 6.5h342
q13 0 18 -5.5t4 -18.5l-8 -63q-1 -13 -7.5 -19t-19.5 -6h-231l-20 -162h214q13 0 18 -5.5t4 -18.5l-8 -60q-1 -13 -7.5 -18.5t-19.5 -5.5h-215l-23 -186h241q13 0 18.5 -5.5t4.5 -18.5l-8 -63q-1 -13 -8 -19t-20 -6z" />
    <glyph glyph-name="Edieresis" unicode="&#xcb;" horiz-adv-x="510" 
d="M412 0h-352q-13 0 -18 6.5t-4 19.5l77 628q1 13 8 19.5t20 6.5h342q13 0 18 -5.5t4 -18.5l-8 -63q-1 -13 -7.5 -19t-19.5 -6h-231l-20 -162h214q13 0 18 -5.5t4 -18.5l-8 -60q-1 -13 -7.5 -18.5t-19.5 -5.5h-215l-23 -186h241q13 0 18.5 -5.5t4.5 -18.5l-8 -63
q-1 -13 -8 -19t-20 -6zM451 850l-11 -93q-1 -13 -7.5 -19t-19.5 -6h-49q-13 0 -17.5 6t-3.5 19l11 93q1 13 8 19.5t20 6.5h49q13 0 17 -6.5t3 -19.5zM311 850l-11 -93q-1 -13 -7.5 -19t-19.5 -6h-49q-13 0 -17.5 6t-3.5 19l12 93q1 13 7.5 19.5t19.5 6.5h49q13 0 17 -6.5
t3 -19.5z" />
    <glyph glyph-name="Emacron" unicode="&#x112;" horiz-adv-x="510" 
d="M412 0h-352q-13 0 -18 6.5t-4 19.5l77 628q1 13 8 19.5t20 6.5h342q13 0 18 -5.5t4 -18.5l-8 -63q-1 -13 -7.5 -19t-19.5 -6h-231l-20 -162h214q13 0 18 -5.5t4 -18.5l-8 -60q-1 -13 -7.5 -18.5t-19.5 -5.5h-215l-23 -186h241q13 0 18.5 -5.5t4.5 -18.5l-8 -63
q-1 -13 -8 -19t-20 -6zM213 849h230q13 0 18 -5t4 -18l-5 -51q-1 -13 -8.5 -19t-20.5 -6h-230q-13 0 -18 6t-4 19l5 51q1 13 8.5 18t20.5 5z" />
    <glyph glyph-name="Ebreve" unicode="&#x114;" horiz-adv-x="510" 
d="M412 0h-352q-13 0 -18 6.5t-4 19.5l77 628q1 13 8 19.5t20 6.5h342q13 0 18 -5.5t4 -18.5l-8 -63q-1 -13 -7.5 -19t-19.5 -6h-231l-20 -162h214q13 0 18 -5.5t4 -18.5l-8 -60q-1 -13 -7.5 -18.5t-19.5 -5.5h-215l-23 -186h241q13 0 18.5 -5.5t4.5 -18.5l-8 -63
q-1 -13 -8 -19t-20 -6zM277 871l-1 -10q-1 -7 -1 -11v-5q0 -16 9 -25.5t32 -9.5q27 0 38 12.5t12 32.5l1 16q1 12 7 16.5t18 4.5h50q12 0 16 -5t3 -16l-2 -13q-9 -60 -42.5 -92.5t-105.5 -32.5q-59 0 -95 26.5t-36 75.5v9.5t1 11.5l2 15q1 11 7 16t18 5h50q11 0 15.5 -4.5
t3.5 -16.5z" />
    <glyph glyph-name="Edotaccent" unicode="&#x116;" horiz-adv-x="510" 
d="M393 839l-10 -82q-1 -13 -7 -18.5t-19 -5.5h-86q-13 0 -17.5 5.5t-3.5 18.5l10 82q1 13 7.5 19t19.5 6h86q13 0 17 -6t3 -19zM412 0h-352q-13 0 -18 6.5t-4 19.5l77 628q1 13 8 19.5t20 6.5h342q13 0 18 -5.5t4 -18.5l-8 -63q-1 -13 -7.5 -19t-19.5 -6h-231l-20 -162h214
q13 0 18 -5.5t4 -18.5l-8 -60q-1 -13 -7.5 -18.5t-19.5 -5.5h-215l-23 -186h241q13 0 18.5 -5.5t4.5 -18.5l-8 -63q-1 -13 -8 -19t-20 -6z" />
    <glyph glyph-name="Eogonek" unicode="&#x118;" horiz-adv-x="511" 
d="M412 0h-32q-24 -1 -34 -18.5t-10 -40.5q0 -15 9 -22t28 -7h27q13 0 19.5 -5.5t5.5 -18.5l-4 -34q-1 -13 -10.5 -19t-22.5 -6h-55q-26 0 -60.5 15.5t-34.5 67.5q0 13 4 37.5t22 50.5h-204q-13 0 -18 6.5t-4 19.5l77 628q1 13 8 19.5t20 6.5h342q13 0 18 -5.5t4 -18.5
l-8 -63q-1 -13 -7.5 -19t-19.5 -6h-231l-20 -162h214q13 0 18 -5.5t4 -18.5l-8 -60q-1 -13 -7.5 -18.5t-19.5 -5.5h-215l-23 -186h241q13 0 18.5 -5.5t4.5 -18.5l-8 -63q-1 -13 -8 -19t-20 -6z" />
    <glyph glyph-name="Ecaron" unicode="&#x11a;" horiz-adv-x="510" 
d="M412 0h-352q-13 0 -18 6.5t-4 19.5l77 628q1 13 8 19.5t20 6.5h342q13 0 18 -5.5t4 -18.5l-8 -63q-1 -13 -7.5 -19t-19.5 -6h-231l-20 -162h214q13 0 18 -5.5t4 -18.5l-8 -60q-1 -13 -7.5 -18.5t-19.5 -5.5h-215l-23 -186h241q13 0 18.5 -5.5t4.5 -18.5l-8 -63
q-1 -13 -8 -19t-20 -6zM305 854l20 -46l30 46q6 9 15.5 16.5t22.5 7.5h64q13 0 15.5 -7t-5.5 -17l-84 -99q-9 -11 -19.5 -18t-23.5 -7h-48q-13 0 -21 7.5t-15 18.5l-61 98q-6 10 -1 17t18 7h62q13 0 20 -8t11 -16z" />
    <glyph glyph-name="F" unicode="F" horiz-adv-x="521" 
d="M142 680h366q13 0 18.5 -5.5t4.5 -18.5l-8 -63q-1 -13 -8 -19t-20 -6h-255l-20 -162h238q13 0 18 -5.5t4 -18.5l-8 -64q-1 -13 -8 -19t-20 -6h-238l-33 -267q-1 -13 -7.5 -19.5t-19.5 -6.5h-87q-13 0 -18 6.5t-4 19.5l78 628q1 13 7.5 19.5t19.5 6.5z" />
    <glyph glyph-name="G" unicode="G" horiz-adv-x="583" 
d="M307 357h204q15 0 19.5 -7t3.5 -17l-22 -178q-7 -63 -60 -113t-191 -50q-122 0 -171 43.5t-49 100.5q0 5 0.5 12t1.5 14l44 363q7 63 60 113t191 50q122 0 171 -44t49 -101q0 -4 -0.5 -11.5t-1.5 -14.5l-3 -32q-1 -13 -8 -19t-20 -6h-83q-13 0 -17.5 7t-3.5 18l2 16
q1 6 1 10v7q0 28 -23 43t-69 15q-49 0 -78.5 -19t-33.5 -56l-39 -316q-1 -6 -1.5 -11t-0.5 -9q0 -30 22.5 -45.5t70.5 -15.5q53 0 80 18.5t31 55.5l8 67h-98q-13 0 -18 5.5t-4 18.5l8 64q1 13 8 18.5t20 5.5z" />
    <glyph glyph-name="Gcircumflex" unicode="&#x11c;" horiz-adv-x="583" 
d="M355 800l-31 -45q-6 -8 -15 -16.5t-22 -8.5h-65q-13 0 -16 7.5t6 17.5l85 98q9 10 19.5 17.5t23.5 7.5h47q13 0 21 -7.5t15 -17.5l62 -98q7 -10 1.5 -17.5t-18.5 -7.5h-62q-13 0 -20.5 7.5t-11.5 17.5zM307 357h204q15 0 19.5 -7t3.5 -17l-22 -178q-7 -63 -60 -113
t-191 -50q-122 0 -171 43.5t-49 100.5q0 5 0.5 12t1.5 14l44 363q7 63 60 113t191 50q122 0 171 -44t49 -101q0 -4 -0.5 -11.5t-1.5 -14.5l-3 -32q-1 -13 -8 -19t-20 -6h-83q-13 0 -17.5 7t-3.5 18l2 16q1 6 1 10v7q0 28 -23 43t-69 15q-49 0 -78.5 -19t-33.5 -56l-39 -316
q-1 -6 -1.5 -11t-0.5 -9q0 -30 22.5 -45.5t70.5 -15.5q53 0 80 18.5t31 55.5l8 67h-98q-13 0 -18 5.5t-4 18.5l8 64q1 13 8 18.5t20 5.5z" />
    <glyph glyph-name="Gbreve" unicode="&#x11e;" horiz-adv-x="583" 
d="M307 357h204q15 0 19.5 -7t3.5 -17l-22 -178q-7 -63 -60 -113t-191 -50q-122 0 -171 43.5t-49 100.5q0 5 0.5 12t1.5 14l44 363q7 63 60 113t191 50q122 0 171 -44t49 -101q0 -4 -0.5 -11.5t-1.5 -14.5l-3 -32q-1 -13 -8 -19t-20 -6h-83q-13 0 -17.5 7t-3.5 18l2 16
q1 6 1 10v7q0 28 -23 43t-69 15q-49 0 -78.5 -19t-33.5 -56l-39 -316q-1 -6 -1.5 -11t-0.5 -9q0 -30 22.5 -45.5t70.5 -15.5q53 0 80 18.5t31 55.5l8 67h-98q-13 0 -18 5.5t-4 18.5l8 64q1 13 8 18.5t20 5.5zM306 871l-1 -10q-1 -7 -1 -11v-5q0 -16 9 -25.5t32 -9.5
q27 0 38 12.5t12 32.5l1 16q1 12 7 16.5t18 4.5h50q12 0 16 -5t3 -16l-2 -13q-9 -60 -42.5 -92.5t-105.5 -32.5q-59 0 -95 26.5t-36 75.5v9.5t1 11.5l2 15q1 11 7 16t18 5h50q11 0 15.5 -4.5t3.5 -16.5z" />
    <glyph glyph-name="Gdotaccent" unicode="&#x120;" horiz-adv-x="583" 
d="M414 836l-10 -82q-1 -13 -7 -18.5t-19 -5.5h-86q-13 0 -17.5 5.5t-3.5 18.5l10 82q1 13 7.5 19t19.5 6h86q13 0 17 -6t3 -19zM307 357h204q15 0 19.5 -7t3.5 -17l-22 -178q-7 -63 -60 -113t-191 -50q-122 0 -171 43.5t-49 100.5q0 5 0.5 12t1.5 14l44 363q7 63 60 113
t191 50q122 0 171 -44t49 -101q0 -4 -0.5 -11.5t-1.5 -14.5l-3 -32q-1 -13 -8 -19t-20 -6h-83q-13 0 -17.5 7t-3.5 18l2 16q1 6 1 10v7q0 28 -23 43t-69 15q-49 0 -78.5 -19t-33.5 -56l-39 -316q-1 -6 -1.5 -11t-0.5 -9q0 -30 22.5 -45.5t70.5 -15.5q53 0 80 18.5t31 55.5
l8 67h-98q-13 0 -18 5.5t-4 18.5l8 64q1 13 8 18.5t20 5.5z" />
    <glyph glyph-name="Gcommaaccent" unicode="&#x122;" horiz-adv-x="583" 
d="M195 -106l4 31q1 13 7.5 19t19.5 6h62q13 0 17 -6t3 -19l-5 -38q-6 -46 -22 -74.5t-38 -58.5q-8 -11 -16.5 -13t-17.5 0l-45 11q-12 3 -13.5 12t5.5 21q19 32 26.5 51t12.5 58zM307 357h204q15 0 19.5 -7t3.5 -17l-22 -178q-7 -63 -60 -113t-191 -50q-122 0 -171 43.5
t-49 100.5q0 5 0.5 12t1.5 14l44 363q7 63 60 113t191 50q122 0 171 -44t49 -101q0 -4 -0.5 -11.5t-1.5 -14.5l-3 -32q-1 -13 -8 -19t-20 -6h-83q-13 0 -17.5 7t-3.5 18l2 16q1 6 1 10v7q0 28 -23 43t-69 15q-49 0 -78.5 -19t-33.5 -56l-39 -316q-1 -6 -1.5 -11t-0.5 -9
q0 -30 22.5 -45.5t70.5 -15.5q53 0 80 18.5t31 55.5l8 67h-98q-13 0 -18 5.5t-4 18.5l8 64q1 13 8 18.5t20 5.5z" />
    <glyph glyph-name="H" unicode="H" horiz-adv-x="625" 
d="M250 654l-30 -249h215l31 249q1 13 8 19.5t20 6.5h87q13 0 17 -6.5t3 -19.5l-78 -628q-1 -13 -6.5 -19.5t-18.5 -6.5h-87q-13 0 -18 6.5t-4 19.5l33 267h-216l-33 -267q-1 -13 -7.5 -19.5t-19.5 -6.5h-87q-13 0 -18 6.5t-4 19.5l78 628q1 13 7.5 19.5t19.5 6.5h87
q13 0 17.5 -6.5t3.5 -19.5z" />
    <glyph glyph-name="Hcircumflex" unicode="&#x124;" horiz-adv-x="625" 
d="M250 654l-30 -249h215l31 249q1 13 8 19.5t20 6.5h87q13 0 17 -6.5t3 -19.5l-78 -628q-1 -13 -6.5 -19.5t-18.5 -6.5h-87q-13 0 -18 6.5t-4 19.5l33 267h-216l-33 -267q-1 -13 -7.5 -19.5t-19.5 -6.5h-87q-13 0 -18 6.5t-4 19.5l78 628q1 13 7.5 19.5t19.5 6.5h87
q13 0 17.5 -6.5t3.5 -19.5zM367 800l-31 -45q-6 -8 -15 -16.5t-22 -8.5h-65q-13 0 -16 7.5t6 17.5l85 98q9 10 19.5 17.5t23.5 7.5h47q13 0 21 -7.5t15 -17.5l62 -98q7 -10 1.5 -17.5t-18.5 -7.5h-62q-13 0 -20.5 7.5t-11.5 17.5z" />
    <glyph glyph-name="I" unicode="I" horiz-adv-x="275" 
d="M250 654l-77 -628q-1 -13 -7 -19.5t-19 -6.5h-87q-13 0 -18 6.5t-4 19.5l77 628q1 13 8 19.5t20 6.5h87q13 0 17 -6.5t3 -19.5z" />
    <glyph glyph-name="Igrave" unicode="&#xcc;" horiz-adv-x="274" 
d="M250 654l-77 -628q-1 -13 -7 -19.5t-19 -6.5h-87q-13 0 -18 6.5t-4 19.5l77 628q1 13 8 19.5t20 6.5h87q13 0 17 -6.5t3 -19.5zM130 747l-60 106q-6 10 -1.5 17.5t17.5 7.5h85q13 0 20 -7t11 -18l37 -98q5 -13 -0.5 -18.5t-15.5 -5.5h-63q-13 0 -20 5t-10 11z" />
    <glyph glyph-name="Iacute" unicode="&#xcd;" horiz-adv-x="274" 
d="M250 654l-77 -628q-1 -13 -7 -19.5t-19 -6.5h-87q-13 0 -18 6.5t-4 19.5l77 628q1 13 8 19.5t20 6.5h87q13 0 17 -6.5t3 -19.5zM342 853l-85 -106q-4 -6 -13 -11.5t-22 -5.5h-67q-11 0 -14.5 6t4.5 19l61 98q7 10 15.5 17.5t21.5 7.5h89q13 0 15.5 -7.5t-5.5 -17.5z" />
    <glyph glyph-name="Icircumflex" unicode="&#xce;" horiz-adv-x="274" 
d="M250 654l-77 -628q-1 -13 -7 -19.5t-19 -6.5h-87q-13 0 -18 6.5t-4 19.5l77 628q1 13 8 19.5t20 6.5h87q13 0 17 -6.5t3 -19.5zM201 800l-31 -45q-6 -8 -15 -16.5t-22 -8.5h-65q-13 0 -16 7.5t6 17.5l85 98q9 10 19.5 17.5t23.5 7.5h47q13 0 21 -7.5t15 -17.5l62 -98
q7 -10 1.5 -17.5t-18.5 -7.5h-62q-13 0 -20.5 7.5t-11.5 17.5z" />
    <glyph glyph-name="Idieresis" unicode="&#xcf;" horiz-adv-x="274" 
d="M250 654l-77 -628q-1 -13 -7 -19.5t-19 -6.5h-87q-13 0 -18 6.5t-4 19.5l77 628q1 13 8 19.5t20 6.5h87q13 0 17 -6.5t3 -19.5zM324 850l-11 -93q-1 -13 -7.5 -19t-19.5 -6h-49q-13 0 -17.5 6t-3.5 19l11 93q1 13 8 19.5t20 6.5h49q13 0 17 -6.5t3 -19.5zM184 850
l-11 -93q-1 -13 -7.5 -19t-19.5 -6h-49q-13 0 -17.5 6t-3.5 19l12 93q1 13 7.5 19.5t19.5 6.5h49q13 0 17 -6.5t3 -19.5z" />
    <glyph glyph-name="Itilde" unicode="&#x128;" horiz-adv-x="274" 
d="M250 654l-77 -628q-1 -13 -7 -19.5t-19 -6.5h-87q-13 0 -18 6.5t-4 19.5l77 628q1 13 8 19.5t20 6.5h87q13 0 17 -6.5t3 -19.5zM127 786q-9 0 -13 -5t-7 -15l-3 -10q-4 -13 -11 -17.5t-18 -4.5h-42q-13 0 -16.5 8t-0.5 21l9 41q8 37 34.5 57.5t60.5 20.5q15 0 31 -3.5
t29 -10.5l40 -21q10 -5 18.5 -9.5t14.5 -4.5q10 0 14 5.5t8 18.5l2 6q4 12 10 17t19 5h44q13 0 17 -8t1 -21l-9 -38q-10 -40 -34 -59.5t-55 -19.5q-25 0 -39 3.5t-27 10.5l-43 21q-10 5 -18.5 8.5t-15.5 3.5z" />
    <glyph glyph-name="Imacron" unicode="&#x12a;" horiz-adv-x="274" 
d="M250 654l-77 -628q-1 -13 -7 -19.5t-19 -6.5h-87q-13 0 -18 6.5t-4 19.5l77 628q1 13 8 19.5t20 6.5h87q13 0 17 -6.5t3 -19.5zM88 849h230q13 0 18 -5t4 -18l-5 -51q-1 -13 -8.5 -19t-20.5 -6h-230q-13 0 -18 6t-4 19l5 51q1 13 8.5 18t20.5 5z" />
    <glyph glyph-name="Ibreve" unicode="&#x12c;" horiz-adv-x="274" 
d="M250 654l-77 -628q-1 -13 -7 -19.5t-19 -6.5h-87q-13 0 -18 6.5t-4 19.5l77 628q1 13 8 19.5t20 6.5h87q13 0 17 -6.5t3 -19.5zM153 871l-1 -10q-1 -7 -1 -11v-5q0 -16 9 -25.5t32 -9.5q27 0 38 12.5t12 32.5l1 16q1 12 7 16.5t18 4.5h50q12 0 16 -5t3 -16l-2 -13
q-9 -60 -42.5 -92.5t-105.5 -32.5q-59 0 -95 26.5t-36 75.5v9.5t1 11.5l2 15q1 11 7 16t18 5h50q11 0 15.5 -4.5t3.5 -16.5z" />
    <glyph glyph-name="Iogonek" unicode="&#x12e;" horiz-adv-x="276" 
d="M251 654l-77 -628q-1 -13 -7.5 -19.5t-19.5 -6.5h-23q-25 -1 -36.5 -18.5t-11.5 -40.5q0 -15 9 -22t28 -7h25q13 0 19.5 -5.5t5.5 -18.5l-4 -34q-1 -13 -10.5 -19t-22.5 -6h-52q-25 0 -60.5 15.5t-35.5 67.5q0 22 10.5 56t51.5 70l76 616q1 13 7.5 19.5t19.5 6.5h87
q13 0 17.5 -6.5t3.5 -19.5z" />
    <glyph glyph-name="Idotaccent" unicode="&#x130;" horiz-adv-x="274" 
d="M250 654l-77 -628q-1 -13 -7 -19.5t-19 -6.5h-87q-13 0 -18 6.5t-4 19.5l77 628q1 13 8 19.5t20 6.5h87q13 0 17 -6.5t3 -19.5zM272 839l-10 -82q-1 -13 -7 -18.5t-19 -5.5h-86q-13 0 -17.5 5.5t-3.5 18.5l10 82q1 13 7.5 19t19.5 6h86q13 0 17 -6t3 -19z" />
    <glyph glyph-name="J" unicode="J" horiz-adv-x="516" 
d="M138 215l-4 -32q-1 -7 -1 -12v-9q0 -28 19 -43t60 -15q44 0 63.5 19t23.5 56l60 475q1 13 7.5 19.5t19.5 6.5h87q13 0 17.5 -6.5t3.5 -19.5l-62 -499q-7 -63 -53 -113t-175 -50q-113 0 -160 43t-47 100q0 6 0.5 14t1.5 14l7 52q1 13 8 19t20 6h84q14 0 17.5 -6.5
t2.5 -18.5z" />
    <glyph glyph-name="Jcircumflex" unicode="&#x134;" horiz-adv-x="516" 
d="M138 215l-4 -32q-1 -7 -1 -12v-9q0 -28 19 -43t60 -15q44 0 63.5 19t23.5 56l60 475q1 13 7.5 19.5t19.5 6.5h87q13 0 17.5 -6.5t3.5 -19.5l-62 -499q-7 -63 -53 -113t-175 -50q-113 0 -160 43t-47 100q0 6 0.5 14t1.5 14l7 52q1 13 8 19t20 6h84q14 0 17.5 -6.5
t2.5 -18.5zM439 800l-31 -45q-6 -8 -15 -16.5t-22 -8.5h-65q-13 0 -16 7.5t6 17.5l85 98q9 10 19.5 17.5t23.5 7.5h47q13 0 21 -7.5t15 -17.5l62 -98q7 -10 1.5 -17.5t-18.5 -7.5h-62q-13 0 -20.5 7.5t-11.5 17.5z" />
    <glyph glyph-name="K" unicode="K" horiz-adv-x="579" 
d="M343 346l195 -321q5 -9 1.5 -17t-16.5 -8h-110q-13 0 -20.5 7.5t-13.5 17.5l-155 262h-19l-32 -262q-1 -13 -7 -19t-19 -6h-87q-13 0 -18 6t-4 19l77 630q1 13 8 19t20 6h87q13 0 17 -6t3 -19l-32 -269h14l210 269q8 10 19 17.5t24 7.5h96q13 0 14.5 -8t-5.5 -17z" />
    <glyph glyph-name="Kcommaaccent" unicode="&#x136;" horiz-adv-x="579" 
d="M194 -106l4 31q1 13 7.5 19t19.5 6h62q13 0 17 -6t3 -19l-5 -38q-6 -46 -22 -74.5t-38 -58.5q-8 -11 -16.5 -13t-17.5 0l-45 11q-12 3 -13.5 12t5.5 21q19 32 26.5 51t12.5 58zM343 346l195 -321q5 -9 1.5 -17t-16.5 -8h-110q-13 0 -20.5 7.5t-13.5 17.5l-155 262h-19
l-32 -262q-1 -13 -7 -19t-19 -6h-87q-13 0 -18 6t-4 19l77 630q1 13 8 19t20 6h87q13 0 17 -6t3 -19l-32 -269h14l210 269q8 10 19 17.5t24 7.5h96q13 0 14.5 -8t-5.5 -17z" />
    <glyph glyph-name="L" unicode="L" horiz-adv-x="463" 
d="M250 654l-66 -542h223q13 0 18 -5.5t4 -18.5l-8 -63q-1 -13 -8 -19t-20 -6h-336q-12 0 -16 6.5t-3 19.5l77 628q1 13 8 19.5t20 6.5h87q13 0 17 -6.5t3 -19.5z" />
    <glyph glyph-name="Lacute" unicode="&#x139;" horiz-adv-x="463" 
d="M343 853l-85 -106q-4 -6 -13 -11.5t-22 -5.5h-67q-11 0 -14.5 6t4.5 19l61 98q7 10 15.5 17.5t21.5 7.5h89q13 0 15.5 -7.5t-5.5 -17.5zM250 654l-66 -542h223q13 0 18 -5.5t4 -18.5l-8 -63q-1 -13 -8 -19t-20 -6h-336q-12 0 -16 6.5t-3 19.5l77 628q1 13 8 19.5t20 6.5
h87q13 0 17 -6.5t3 -19.5z" />
    <glyph glyph-name="Lcommaaccent" unicode="&#x13b;" horiz-adv-x="463" 
d="M155 -105l4 31q1 13 7.5 19t19.5 6h62q13 0 17 -6t3 -19l-5 -38q-6 -46 -22 -74.5t-38 -58.5q-8 -11 -16.5 -13t-17.5 0l-45 11q-12 3 -13.5 12t5.5 21q19 32 26.5 51t12.5 58zM250 654l-66 -542h223q13 0 18 -5.5t4 -18.5l-8 -63q-1 -13 -8 -19t-20 -6h-336
q-12 0 -16 6.5t-3 19.5l77 628q1 13 8 19.5t20 6.5h87q13 0 17 -6.5t3 -19.5z" />
    <glyph glyph-name="Lcaron" unicode="&#x13d;" horiz-adv-x="469" 
d="M360 682l4 31q1 13 7.5 19t19.5 6h62q13 0 17 -6t3 -19l-5 -38q-6 -46 -22 -74.5t-38 -58.5q-8 -11 -16.5 -13t-17.5 0l-45 11q-12 3 -13.5 12t5.5 21q19 32 26.5 51t12.5 58zM250 654l-66 -542h223q13 0 18 -5.5t4 -18.5l-8 -63q-1 -13 -8 -19t-20 -6h-336
q-12 0 -16 6.5t-3 19.5l77 628q1 13 8 19.5t20 6.5h87q13 0 17 -6.5t3 -19.5z" />
    <glyph glyph-name="M" unicode="M" horiz-adv-x="746" 
d="M722 655l-78 -630q-1 -13 -7 -19t-19 -6h-83q-13 0 -18 6t-4 19l47 381q-10 -28 -20.5 -52.5t-18.5 -39.5l-99 -186q-7 -12 -15.5 -18.5t-20.5 -6.5h-68q-15 0 -21.5 7t-10.5 18l-61 201q-4 13 -7.5 32.5t-6.5 42.5l-47 -379q-1 -13 -7 -19t-19 -6h-79q-13 0 -18 6t-4 19
l77 630q1 13 8 19t20 6h78q10 0 14 -3.5t6 -10.5l110 -349q5 -16 9.5 -33.5t8.5 -36.5q6 16 15 34.5t18 34.5l191 352q4 7 9.5 9.5t14.5 2.5h85q13 0 17.5 -6t3.5 -19z" />
    <glyph glyph-name="N" unicode="N" horiz-adv-x="622" 
d="M598 655l-77 -630q-1 -13 -7 -19t-19 -6h-76q-10 0 -15 3t-8 9l-153 331q-8 19 -16.5 42.5t-12.5 39.5l-50 -400q-1 -13 -7 -19t-19 -6h-79q-13 0 -18 6t-4 19l77 630q1 13 8 19t20 6h76q8 0 13.5 -2.5t7.5 -7.5l158 -345q7 -15 14.5 -36t10.5 -34l49 400q1 13 8 19t20 6
h79q13 0 17 -6t3 -19z" />
    <glyph glyph-name="Ntilde" unicode="&#xd1;" horiz-adv-x="622" 
d="M313 786q-9 0 -13 -5t-7 -15l-3 -10q-4 -13 -11 -17.5t-18 -4.5h-42q-13 0 -16.5 8t-0.5 21l9 41q8 37 34.5 57.5t60.5 20.5q15 0 31 -3.5t29 -10.5l40 -21q10 -5 18.5 -9.5t14.5 -4.5q10 0 14 5.5t8 18.5l2 6q4 12 10 17t19 5h44q13 0 17 -8t1 -21l-9 -38
q-10 -40 -34 -59.5t-55 -19.5q-25 0 -39 3.5t-27 10.5l-43 21q-10 5 -18.5 8.5t-15.5 3.5zM598 655l-77 -630q-1 -13 -7 -19t-19 -6h-76q-10 0 -15 3t-8 9l-153 331q-8 19 -16.5 42.5t-12.5 39.5l-50 -400q-1 -13 -7 -19t-19 -6h-79q-13 0 -18 6t-4 19l77 630q1 13 8 19
t20 6h76q8 0 13.5 -2.5t7.5 -7.5l158 -345q7 -15 14.5 -36t10.5 -34l49 400q1 13 8 19t20 6h79q13 0 17 -6t3 -19z" />
    <glyph glyph-name="Nacute" unicode="&#x143;" horiz-adv-x="622" 
d="M507 853l-85 -106q-4 -6 -13 -11.5t-22 -5.5h-67q-11 0 -14.5 6t4.5 19l61 98q7 10 15.5 17.5t21.5 7.5h89q13 0 15.5 -7.5t-5.5 -17.5zM598 655l-77 -630q-1 -13 -7 -19t-19 -6h-76q-10 0 -15 3t-8 9l-153 331q-8 19 -16.5 42.5t-12.5 39.5l-50 -400q-1 -13 -7 -19
t-19 -6h-79q-13 0 -18 6t-4 19l77 630q1 13 8 19t20 6h76q8 0 13.5 -2.5t7.5 -7.5l158 -345q7 -15 14.5 -36t10.5 -34l49 400q1 13 8 19t20 6h79q13 0 17 -6t3 -19z" />
    <glyph glyph-name="Ncommaaccent" unicode="&#x145;" horiz-adv-x="622" 
d="M226 -106l4 31q1 13 7.5 19t19.5 6h62q13 0 17 -6t3 -19l-5 -38q-6 -46 -22 -74.5t-38 -58.5q-8 -11 -16.5 -13t-17.5 0l-45 11q-12 3 -13.5 12t5.5 21q19 32 26.5 51t12.5 58zM598 655l-77 -630q-1 -13 -7 -19t-19 -6h-76q-10 0 -15 3t-8 9l-153 331q-8 19 -16.5 42.5
t-12.5 39.5l-50 -400q-1 -13 -7 -19t-19 -6h-79q-13 0 -18 6t-4 19l77 630q1 13 8 19t20 6h76q8 0 13.5 -2.5t7.5 -7.5l158 -345q7 -15 14.5 -36t10.5 -34l49 400q1 13 8 19t20 6h79q13 0 17 -6t3 -19z" />
    <glyph glyph-name="Ncaron" unicode="&#x147;" horiz-adv-x="622" 
d="M598 655l-77 -630q-1 -13 -7 -19t-19 -6h-76q-10 0 -15 3t-8 9l-153 331q-8 19 -16.5 42.5t-12.5 39.5l-50 -400q-1 -13 -7 -19t-19 -6h-79q-13 0 -18 6t-4 19l77 630q1 13 8 19t20 6h76q8 0 13.5 -2.5t7.5 -7.5l158 -345q7 -15 14.5 -36t10.5 -34l49 400q1 13 8 19t20 6
h79q13 0 17 -6t3 -19zM349 854l20 -46l30 46q6 9 15.5 16.5t22.5 7.5h64q13 0 15.5 -7t-5.5 -17l-84 -99q-9 -11 -19.5 -18t-23.5 -7h-48q-13 0 -21 7.5t-15 18.5l-61 98q-6 10 -1 17t18 7h62q13 0 20 -8t11 -16z" />
    <glyph glyph-name="O" unicode="O" horiz-adv-x="605" 
d="M43 162l44 363q7 63 64 113t195 50q122 0 175 -44t53 -101v-10.5t-1 -14.5l-44 -363q-7 -63 -64.5 -113t-195.5 -50q-122 0 -175 44t-53 101q0 4 0.5 11t1.5 14zM395 179l40 315q1 6 1.5 11t0.5 8q0 31 -26 47t-75 16q-47 0 -79.5 -19t-36.5 -56l-39 -315q-1 -6 -1.5 -11
t-0.5 -8q0 -31 26 -47t75 -16q51 0 81 19t34 56z" />
    <glyph glyph-name="Ograve" unicode="&#xd2;" horiz-adv-x="605" 
d="M289 747l-60 106q-6 10 -1.5 17.5t17.5 7.5h85q13 0 20 -7t11 -18l37 -98q5 -13 -0.5 -18.5t-15.5 -5.5h-63q-13 0 -20 5t-10 11zM43 162l44 363q7 63 64 113t195 50q122 0 175 -44t53 -101v-10.5t-1 -14.5l-44 -363q-7 -63 -64.5 -113t-195.5 -50q-122 0 -175 44
t-53 101q0 4 0.5 11t1.5 14zM395 179l40 315q1 6 1.5 11t0.5 8q0 31 -26 47t-75 16q-47 0 -79.5 -19t-36.5 -56l-39 -315q-1 -6 -1.5 -11t-0.5 -8q0 -31 26 -47t75 -16q51 0 81 19t34 56z" />
    <glyph glyph-name="Oacute" unicode="&#xd3;" horiz-adv-x="605" 
d="M499 853l-85 -106q-4 -6 -13 -11.5t-22 -5.5h-67q-11 0 -14.5 6t4.5 19l61 98q7 10 15.5 17.5t21.5 7.5h89q13 0 15.5 -7.5t-5.5 -17.5zM43 162l44 363q7 63 64 113t195 50q122 0 175 -44t53 -101v-10.5t-1 -14.5l-44 -363q-7 -63 -64.5 -113t-195.5 -50q-122 0 -175 44
t-53 101q0 4 0.5 11t1.5 14zM395 179l40 315q1 6 1.5 11t0.5 8q0 31 -26 47t-75 16q-47 0 -79.5 -19t-36.5 -56l-39 -315q-1 -6 -1.5 -11t-0.5 -8q0 -31 26 -47t75 -16q51 0 81 19t34 56z" />
    <glyph glyph-name="Ocircumflex" unicode="&#xd4;" horiz-adv-x="605" 
d="M366 800l-31 -45q-6 -8 -15 -16.5t-22 -8.5h-65q-13 0 -16 7.5t6 17.5l85 98q9 10 19.5 17.5t23.5 7.5h47q13 0 21 -7.5t15 -17.5l62 -98q7 -10 1.5 -17.5t-18.5 -7.5h-62q-13 0 -20.5 7.5t-11.5 17.5zM43 162l44 363q7 63 64 113t195 50q122 0 175 -44t53 -101v-10.5
t-1 -14.5l-44 -363q-7 -63 -64.5 -113t-195.5 -50q-122 0 -175 44t-53 101q0 4 0.5 11t1.5 14zM395 179l40 315q1 6 1.5 11t0.5 8q0 31 -26 47t-75 16q-47 0 -79.5 -19t-36.5 -56l-39 -315q-1 -6 -1.5 -11t-0.5 -8q0 -31 26 -47t75 -16q51 0 81 19t34 56z" />
    <glyph glyph-name="Otilde" unicode="&#xd5;" horiz-adv-x="605" 
d="M43 162l44 363q7 63 64 113t195 50q122 0 175 -44t53 -101v-10.5t-1 -14.5l-44 -363q-7 -63 -64.5 -113t-195.5 -50q-122 0 -175 44t-53 101q0 4 0.5 11t1.5 14zM395 179l40 315q1 6 1.5 11t0.5 8q0 31 -26 47t-75 16q-47 0 -79.5 -19t-36.5 -56l-39 -315q-1 -6 -1.5 -11
t-0.5 -8q0 -31 26 -47t75 -16q51 0 81 19t34 56zM300 786q-9 0 -13 -5t-7 -15l-3 -10q-4 -13 -11 -17.5t-18 -4.5h-42q-13 0 -16.5 8t-0.5 21l9 41q8 37 34.5 57.5t60.5 20.5q15 0 31 -3.5t29 -10.5l40 -21q10 -5 18.5 -9.5t14.5 -4.5q10 0 14 5.5t8 18.5l2 6q4 12 10 17
t19 5h44q13 0 17 -8t1 -21l-9 -38q-10 -40 -34 -59.5t-55 -19.5q-25 0 -39 3.5t-27 10.5l-43 21q-10 5 -18.5 8.5t-15.5 3.5z" />
    <glyph glyph-name="Odieresis" unicode="&#xd6;" horiz-adv-x="605" 
d="M43 162l44 363q7 63 64 113t195 50q122 0 175 -44t53 -101v-10.5t-1 -14.5l-44 -363q-7 -63 -64.5 -113t-195.5 -50q-122 0 -175 44t-53 101q0 4 0.5 11t1.5 14zM395 179l40 315q1 6 1.5 11t0.5 8q0 31 -26 47t-75 16q-47 0 -79.5 -19t-36.5 -56l-39 -315q-1 -6 -1.5 -11
t-0.5 -8q0 -31 26 -47t75 -16q51 0 81 19t34 56zM489 850l-11 -93q-1 -13 -7.5 -19t-19.5 -6h-49q-13 0 -17.5 6t-3.5 19l11 93q1 13 8 19.5t20 6.5h49q13 0 17 -6.5t3 -19.5zM349 850l-11 -93q-1 -13 -7.5 -19t-19.5 -6h-49q-13 0 -17.5 6t-3.5 19l12 93q1 13 7.5 19.5
t19.5 6.5h49q13 0 17 -6.5t3 -19.5z" />
    <glyph glyph-name="Omacron" unicode="&#x14c;" horiz-adv-x="605" 
d="M43 162l44 363q7 63 64 113t195 50q122 0 175 -44t53 -101v-10.5t-1 -14.5l-44 -363q-7 -63 -64.5 -113t-195.5 -50q-122 0 -175 44t-53 101q0 4 0.5 11t1.5 14zM395 179l40 315q1 6 1.5 11t0.5 8q0 31 -26 47t-75 16q-47 0 -79.5 -19t-36.5 -56l-39 -315q-1 -6 -1.5 -11
t-0.5 -8q0 -31 26 -47t75 -16q51 0 81 19t34 56zM256 849h230q13 0 18 -5t4 -18l-5 -51q-1 -13 -8.5 -19t-20.5 -6h-230q-13 0 -18 6t-4 19l5 51q1 13 8.5 18t20.5 5z" />
    <glyph glyph-name="Obreve" unicode="&#x14e;" horiz-adv-x="605" 
d="M43 162l44 363q7 63 64 113t195 50q122 0 175 -44t53 -101v-10.5t-1 -14.5l-44 -363q-7 -63 -64.5 -113t-195.5 -50q-122 0 -175 44t-53 101q0 4 0.5 11t1.5 14zM395 179l40 315q1 6 1.5 11t0.5 8q0 31 -26 47t-75 16q-47 0 -79.5 -19t-36.5 -56l-39 -315q-1 -6 -1.5 -11
t-0.5 -8q0 -31 26 -47t75 -16q51 0 81 19t34 56zM327 871l-1 -10q-1 -7 -1 -11v-5q0 -16 9 -25.5t32 -9.5q27 0 38 12.5t12 32.5l1 16q1 12 7 16.5t18 4.5h50q12 0 16 -5t3 -16l-2 -13q-9 -60 -42.5 -92.5t-105.5 -32.5q-59 0 -95 26.5t-36 75.5v9.5t1 11.5l2 15q1 11 7 16
t18 5h50q11 0 15.5 -4.5t3.5 -16.5z" />
    <glyph glyph-name="Ohungarumlaut" unicode="&#x150;" horiz-adv-x="605" 
d="M410 853l-66 -98q-7 -11 -15.5 -18t-21.5 -7h-60q-13 0 -17 6.5t3 18.5l53 98q7 12 15.5 18.5t21.5 6.5h73q13 0 17 -7.5t-3 -17.5zM571 853l-81 -99q-7 -9 -17 -16.5t-23 -7.5h-61q-13 0 -15.5 6.5t5.5 18.5l68 98q8 12 18 18.5t23 6.5h74q13 0 15 -7.5t-6 -17.5z
M43 162l44 363q7 63 64 113t195 50q122 0 175 -44t53 -101v-10.5t-1 -14.5l-44 -363q-7 -63 -64.5 -113t-195.5 -50q-122 0 -175 44t-53 101q0 4 0.5 11t1.5 14zM395 179l40 315q1 6 1.5 11t0.5 8q0 31 -26 47t-75 16q-47 0 -79.5 -19t-36.5 -56l-39 -315q-1 -6 -1.5 -11
t-0.5 -8q0 -31 26 -47t75 -16q51 0 81 19t34 56z" />
    <glyph glyph-name="P" unicode="P" horiz-adv-x="580" 
d="M303 241h-104l-26 -215q-1 -13 -7.5 -19.5t-19.5 -6.5h-87q-13 0 -18 6.5t-4 19.5l78 628q1 13 7.5 19.5t19.5 6.5h206q122 0 174 -46t52 -106q0 -5 -0.5 -10.5t-1.5 -18.5l-11 -100q-7 -69 -63 -113.5t-195 -44.5zM342 568h-102l-26 -215h99q52 0 82 16t35 53l8 59
q1 8 1 12.5v6.5q0 33 -21.5 50.5t-75.5 17.5z" />
    <glyph glyph-name="Q" unicode="Q" horiz-adv-x="605" 
d="M415 -174q-9 -8 -18 -9t-17 7l-164 171q-93 10 -134 50.5t-41 91.5q0 4 0.5 11t1.5 14l44 363q7 63 64 113t195 50q122 0 175 -44t53 -101v-11t-1 -14l-44 -363q-6 -49 -41.5 -92t-115.5 -61l94 -94q9 -9 8 -18t-9 -17zM395 179l40 315q1 6 1.5 11t0.5 8q0 31 -26 47
t-75 16q-47 0 -79.5 -19t-36.5 -56l-39 -315q-1 -6 -1.5 -11t-0.5 -8q0 -31 26 -47t75 -16q51 0 81 19t34 56z" />
    <glyph glyph-name="R" unicode="R" horiz-adv-x="594" 
d="M343 568h-101l-25 -197h99q52 0 83 16.5t35 53.5l5 41q1 9 1 12.5v5.5q0 33 -23.5 50.5t-73.5 17.5zM148 0h-87q-10 0 -17 5t-5 21l77 628q1 13 8 19.5t20 6.5h203q122 0 175.5 -46t53.5 -107q0 -4 -0.5 -11t-1.5 -13l-9 -86q-4 -45 -33 -83.5t-94 -57.5l76 -250
q4 -12 -4.5 -19t-21.5 -7h-90q-12 0 -17.5 8t-8.5 18l-69 233h-100l-29 -233q-1 -13 -7 -19.5t-19 -6.5z" />
    <glyph glyph-name="Racute" unicode="&#x154;" horiz-adv-x="594" 
d="M343 568h-101l-25 -197h99q52 0 83 16.5t35 53.5l5 41q1 9 1 12.5v5.5q0 33 -23.5 50.5t-73.5 17.5zM148 0h-87q-10 0 -17 5t-5 21l77 628q1 13 8 19.5t20 6.5h203q122 0 175.5 -46t53.5 -107q0 -4 -0.5 -11t-1.5 -13l-9 -86q-4 -45 -33 -83.5t-94 -57.5l76 -250
q4 -12 -4.5 -19t-21.5 -7h-90q-12 0 -17.5 8t-8.5 18l-69 233h-100l-29 -233q-1 -13 -7 -19.5t-19 -6.5zM468 853l-85 -106q-4 -6 -13 -11.5t-22 -5.5h-67q-11 0 -14.5 6t4.5 19l61 98q7 10 15.5 17.5t21.5 7.5h89q13 0 15.5 -7.5t-5.5 -17.5z" />
    <glyph glyph-name="Rcommaaccent" unicode="&#x156;" horiz-adv-x="594" 
d="M201 -106l4 31q1 13 7.5 19t19.5 6h62q13 0 17 -6t3 -19l-5 -38q-6 -46 -22 -74.5t-38 -58.5q-8 -11 -16.5 -13t-17.5 0l-45 11q-12 3 -13.5 12t5.5 21q19 32 26.5 51t12.5 58zM343 568h-101l-25 -197h99q52 0 83 16.5t35 53.5l5 41q1 9 1 12.5v5.5q0 33 -23.5 50.5
t-73.5 17.5zM148 0h-87q-10 0 -17 5t-5 21l77 628q1 13 8 19.5t20 6.5h203q122 0 175.5 -46t53.5 -107q0 -4 -0.5 -11t-1.5 -13l-9 -86q-4 -45 -33 -83.5t-94 -57.5l76 -250q4 -12 -4.5 -19t-21.5 -7h-90q-12 0 -17.5 8t-8.5 18l-69 233h-100l-29 -233q-1 -13 -7 -19.5
t-19 -6.5z" />
    <glyph glyph-name="Rcaron" unicode="&#x158;" horiz-adv-x="594" 
d="M343 568h-101l-25 -197h99q52 0 83 16.5t35 53.5l5 41q1 9 1 12.5v5.5q0 33 -23.5 50.5t-73.5 17.5zM148 0h-87q-10 0 -17 5t-5 21l77 628q1 13 8 19.5t20 6.5h203q122 0 175.5 -46t53.5 -107q0 -4 -0.5 -11t-1.5 -13l-9 -86q-4 -45 -33 -83.5t-94 -57.5l76 -250
q4 -12 -4.5 -19t-21.5 -7h-90q-12 0 -17.5 8t-8.5 18l-69 233h-100l-29 -233q-1 -13 -7 -19.5t-19 -6.5zM306 854l20 -46l30 46q6 9 15.5 16.5t22.5 7.5h64q13 0 15.5 -7t-5.5 -17l-84 -99q-9 -11 -19.5 -18t-23.5 -7h-48q-13 0 -21 7.5t-15 18.5l-61 98q-6 10 -1 17t18 7
h62q13 0 20 -8t11 -16z" />
    <glyph glyph-name="S" unicode="S" horiz-adv-x="566" 
d="M405 484l2 21q1 7 1 10v4q0 29 -23 45t-67 16q-48 0 -74 -18t-31 -55l-2 -15q-1 -6 -1 -8.5v-3.5q0 -19 11 -28t24 -13l165 -62q49 -19 76 -52t27 -78q0 -4 -0.5 -10.5t-1.5 -13.5l-7 -68q-7 -63 -62 -113t-192 -50q-122 0 -173 44t-51 101v9t1 16l6 56q1 13 8 19.5
t20 6.5h84q13 0 17 -6.5t3 -19.5l-5 -38q-1 -6 -1 -10.5v-8.5q0 -31 25.5 -46t73.5 -15q51 0 80 18t34 55l5 34q4 29 -22 45t-54 27l-140 55q-37 14 -61 45.5t-24 71.5q0 4 0.5 10.5t1.5 13.5l6 50q7 63 57.5 113t184.5 50q120 0 168.5 -44t48.5 -99v-7.5t-1 -12.5l-5 -41
q-1 -13 -7.5 -19t-19.5 -6h-84q-12 0 -17 5.5t-4 19.5z" />
    <glyph glyph-name="Sacute" unicode="&#x15a;" horiz-adv-x="567" 
d="M405 484l2 21q1 7 1 10v4q0 29 -23 45t-67 16q-48 0 -74 -18t-31 -55l-2 -15q-1 -6 -1 -8.5v-3.5q0 -19 11 -28t24 -13l165 -62q49 -19 76 -52t27 -78q0 -4 -0.5 -10.5t-1.5 -13.5l-7 -68q-7 -63 -62 -113t-192 -50q-122 0 -173 44t-51 101v9t1 16l6 56q1 13 8 19.5
t20 6.5h84q13 0 17 -6.5t3 -19.5l-5 -38q-1 -6 -1 -10.5v-8.5q0 -31 25.5 -46t73.5 -15q51 0 80 18t34 55l5 34q4 29 -22 45t-54 27l-140 55q-37 14 -61 45.5t-24 71.5q0 4 0.5 10.5t1.5 13.5l6 50q7 63 57.5 113t184.5 50q120 0 168.5 -44t48.5 -99v-7.5t-1 -12.5l-5 -41
q-1 -13 -7.5 -19t-19.5 -6h-84q-12 0 -17 5.5t-4 19.5zM480 853l-85 -106q-4 -6 -13 -11.5t-22 -5.5h-67q-11 0 -14.5 6t4.5 19l61 98q7 10 15.5 17.5t21.5 7.5h89q13 0 15.5 -7.5t-5.5 -17.5z" />
    <glyph glyph-name="Scircumflex" unicode="&#x15c;" horiz-adv-x="567" 
d="M405 484l2 21q1 7 1 10v4q0 29 -23 45t-67 16q-48 0 -74 -18t-31 -55l-2 -15q-1 -6 -1 -8.5v-3.5q0 -19 11 -28t24 -13l165 -62q49 -19 76 -52t27 -78q0 -4 -0.5 -10.5t-1.5 -13.5l-7 -68q-7 -63 -62 -113t-192 -50q-122 0 -173 44t-51 101v9t1 16l6 56q1 13 8 19.5
t20 6.5h84q13 0 17 -6.5t3 -19.5l-5 -38q-1 -6 -1 -10.5v-8.5q0 -31 25.5 -46t73.5 -15q51 0 80 18t34 55l5 34q4 29 -22 45t-54 27l-140 55q-37 14 -61 45.5t-24 71.5q0 4 0.5 10.5t1.5 13.5l6 50q7 63 57.5 113t184.5 50q120 0 168.5 -44t48.5 -99v-7.5t-1 -12.5l-5 -41
q-1 -13 -7.5 -19t-19.5 -6h-84q-12 0 -17 5.5t-4 19.5zM340 800l-31 -45q-6 -8 -15 -16.5t-22 -8.5h-65q-13 0 -16 7.5t6 17.5l85 98q9 10 19.5 17.5t23.5 7.5h47q13 0 21 -7.5t15 -17.5l62 -98q7 -10 1.5 -17.5t-18.5 -7.5h-62q-13 0 -20.5 7.5t-11.5 17.5z" />
    <glyph glyph-name="Scedilla" unicode="&#x15e;" horiz-adv-x="568" 
d="M276 -211h-120q-14 0 -18 7t-3 18l2 20q1 13 7.5 18.5t19.5 5.5h98q10 0 15.5 4t5.5 13q0 8 -5.5 11t-12.5 3h-73q-17 0 -25.5 8t-1.5 25l30 73q-92 10 -130.5 51t-38.5 91v9t1 16l6 56q1 13 8 19.5t20 6.5h84q13 0 17 -6.5t3 -19.5l-5 -38q-1 -6 -1 -10.5v-8.5
q0 -31 25.5 -46t73.5 -15q51 0 80 18t34 55l5 34q4 29 -22 45t-54 27l-140 55q-37 14 -61 45.5t-24 71.5q0 4 0.5 10.5t1.5 13.5l6 50q7 63 57.5 113t184.5 50q120 0 168.5 -44t48.5 -99v-7.5t-1 -12.5l-5 -41q-1 -13 -7.5 -19t-19.5 -6h-84q-12 0 -17 5.5t-4 19.5l2 21
q1 7 1 10v4q0 29 -23 45t-67 16q-48 0 -74 -18t-31 -55l-2 -15q-1 -6 -1 -8.5v-3.5q0 -19 11 -28t24 -13l165 -62q49 -19 76 -52t27 -78q0 -4 -0.5 -10.5t-1.5 -13.5l-7 -68q-6 -59 -55 -107.5t-168 -54.5l-15 -38h31q34 0 55.5 -19t21.5 -53q0 -48 -28 -71t-70 -23z" />
    <glyph glyph-name="Scaron" unicode="&#x160;" horiz-adv-x="567" 
d="M405 484l2 21q1 7 1 10v4q0 29 -23 45t-67 16q-48 0 -74 -18t-31 -55l-2 -15q-1 -6 -1 -8.5v-3.5q0 -19 11 -28t24 -13l165 -62q49 -19 76 -52t27 -78q0 -4 -0.5 -10.5t-1.5 -13.5l-7 -68q-7 -63 -62 -113t-192 -50q-122 0 -173 44t-51 101v9t1 16l6 56q1 13 8 19.5
t20 6.5h84q13 0 17 -6.5t3 -19.5l-5 -38q-1 -6 -1 -10.5v-8.5q0 -31 25.5 -46t73.5 -15q51 0 80 18t34 55l5 34q4 29 -22 45t-54 27l-140 55q-37 14 -61 45.5t-24 71.5q0 4 0.5 10.5t1.5 13.5l6 50q7 63 57.5 113t184.5 50q120 0 168.5 -44t48.5 -99v-7.5t-1 -12.5l-5 -41
q-1 -13 -7.5 -19t-19.5 -6h-84q-12 0 -17 5.5t-4 19.5zM316 854l20 -46l30 46q6 9 15.5 16.5t22.5 7.5h64q13 0 15.5 -7t-5.5 -17l-84 -99q-9 -11 -19.5 -18t-23.5 -7h-48q-13 0 -21 7.5t-15 18.5l-61 98q-6 10 -1 17t18 7h62q13 0 20 -8t11 -16z" />
    <glyph glyph-name="Scommaaccent" unicode="&#x218;" horiz-adv-x="566" 
d="M187 -106l4 31q1 13 7.5 19t19.5 6h62q13 0 17 -6t3 -19l-5 -38q-6 -46 -22 -74.5t-38 -58.5q-8 -11 -16.5 -13t-17.5 0l-45 11q-12 3 -13.5 12t5.5 21q19 32 26.5 51t12.5 58zM405 484l2 21q1 7 1 10v4q0 29 -23 45t-67 16q-48 0 -74 -18t-31 -55l-2 -15q-1 -6 -1 -8.5
v-3.5q0 -19 11 -28t24 -13l165 -62q49 -19 76 -52t27 -78q0 -4 -0.5 -10.5t-1.5 -13.5l-7 -68q-7 -63 -62 -113t-192 -50q-122 0 -173 44t-51 101v9t1 16l6 56q1 13 8 19.5t20 6.5h84q13 0 17 -6.5t3 -19.5l-5 -38q-1 -6 -1 -10.5v-8.5q0 -31 25.5 -46t73.5 -15q51 0 80 18
t34 55l5 34q4 29 -22 45t-54 27l-140 55q-37 14 -61 45.5t-24 71.5q0 4 0.5 10.5t1.5 13.5l6 50q7 63 57.5 113t184.5 50q120 0 168.5 -44t48.5 -99v-7.5t-1 -12.5l-5 -41q-1 -13 -7.5 -19t-19.5 -6h-84q-12 0 -17 5.5t-4 19.5z" />
    <glyph glyph-name="T" unicode="T" horiz-adv-x="494" 
d="M86 680h419q13 0 18.5 -5.5t4.5 -18.5l-8 -63q-1 -13 -8 -19t-20 -6h-142l-67 -542q-1 -13 -7 -19.5t-19 -6.5h-88q-13 0 -18 6.5t-4 19.5l68 542h-142q-13 0 -18.5 6t-4.5 19l8 63q1 13 8 18.5t20 5.5z" />
    <glyph glyph-name="Tcommaaccent" unicode="&#x162;" horiz-adv-x="495" 
d="M141 -106l4 31q1 13 7.5 19t19.5 6h62q13 0 17 -6t3 -19l-5 -38q-6 -46 -22 -74.5t-38 -58.5q-8 -11 -16.5 -13t-17.5 0l-45 11q-12 3 -13.5 12t5.5 21q19 32 26.5 51t12.5 58zM86 680h419q13 0 18.5 -5.5t4.5 -18.5l-8 -63q-1 -13 -8 -19t-20 -6h-142l-67 -542
q-1 -13 -7 -19.5t-19 -6.5h-88q-13 0 -18 6.5t-4 19.5l68 542h-142q-13 0 -18.5 6t-4.5 19l8 63q1 13 8 18.5t20 5.5z" />
    <glyph glyph-name="Tcaron" unicode="&#x164;" horiz-adv-x="495" 
d="M86 680h419q13 0 18.5 -5.5t4.5 -18.5l-8 -63q-1 -13 -8 -19t-20 -6h-142l-67 -542q-1 -13 -7 -19.5t-19 -6.5h-88q-13 0 -18 6.5t-4 19.5l68 542h-142q-13 0 -18.5 6t-4.5 19l8 63q1 13 8 18.5t20 5.5zM283 854l20 -46l30 46q6 9 15.5 16.5t22.5 7.5h64q13 0 15.5 -7
t-5.5 -17l-84 -99q-9 -11 -19.5 -18t-23.5 -7h-48q-13 0 -21 7.5t-15 18.5l-61 98q-6 10 -1 17t18 7h62q13 0 20 -8t11 -16z" />
    <glyph glyph-name="U" unicode="U" horiz-adv-x="619" 
d="M245 654l-56 -456q-1 -11 -2 -17.5t-1 -12.5q0 -32 27 -48t73 -16q50 0 81 19t35 56l60 475q1 13 7 19.5t19 6.5h87q10 0 16.5 -5.5t5.5 -20.5l-62 -499q-7 -63 -62 -113t-195 -50q-120 0 -175 44.5t-55 102.5q0 5 0.5 13.5t1.5 14.5l61 487q1 13 7 19.5t19 6.5h87
q10 0 16 -5.5t5 -20.5z" />
    <glyph glyph-name="Ugrave" unicode="&#xd9;" horiz-adv-x="618" 
d="M303 747l-60 106q-6 10 -1.5 17.5t17.5 7.5h85q13 0 20 -7t11 -18l37 -98q5 -13 -0.5 -18.5t-15.5 -5.5h-63q-13 0 -20 5t-10 11zM245 654l-56 -456q-1 -11 -2 -17.5t-1 -12.5q0 -32 27 -48t73 -16q50 0 81 19t35 56l60 475q1 13 7 19.5t19 6.5h87q10 0 16.5 -5.5
t5.5 -20.5l-62 -499q-7 -63 -62 -113t-195 -50q-120 0 -175 44.5t-55 102.5q0 5 0.5 13.5t1.5 14.5l61 487q1 13 7 19.5t19 6.5h87q10 0 16 -5.5t5 -20.5z" />
    <glyph glyph-name="Uacute" unicode="&#xda;" horiz-adv-x="618" 
d="M245 654l-56 -456q-1 -11 -2 -17.5t-1 -12.5q0 -32 27 -48t73 -16q50 0 81 19t35 56l60 475q1 13 7 19.5t19 6.5h87q10 0 16.5 -5.5t5.5 -20.5l-62 -499q-7 -63 -62 -113t-195 -50q-120 0 -175 44.5t-55 102.5q0 5 0.5 13.5t1.5 14.5l61 487q1 13 7 19.5t19 6.5h87
q10 0 16 -5.5t5 -20.5zM509 853l-85 -106q-4 -6 -13 -11.5t-22 -5.5h-67q-11 0 -14.5 6t4.5 19l61 98q7 10 15.5 17.5t21.5 7.5h89q13 0 15.5 -7.5t-5.5 -17.5z" />
    <glyph glyph-name="Ucircumflex" unicode="&#xdb;" horiz-adv-x="618" 
d="M368 800l-31 -45q-6 -8 -15 -16.5t-22 -8.5h-65q-13 0 -16 7.5t6 17.5l85 98q9 10 19.5 17.5t23.5 7.5h47q13 0 21 -7.5t15 -17.5l62 -98q7 -10 1.5 -17.5t-18.5 -7.5h-62q-13 0 -20.5 7.5t-11.5 17.5zM245 654l-56 -456q-1 -11 -2 -17.5t-1 -12.5q0 -32 27 -48t73 -16
q50 0 81 19t35 56l60 475q1 13 7 19.5t19 6.5h87q10 0 16.5 -5.5t5.5 -20.5l-62 -499q-7 -63 -62 -113t-195 -50q-120 0 -175 44.5t-55 102.5q0 5 0.5 13.5t1.5 14.5l61 487q1 13 7 19.5t19 6.5h87q10 0 16 -5.5t5 -20.5z" />
    <glyph glyph-name="Udieresis" unicode="&#xdc;" horiz-adv-x="618" 
d="M245 654l-56 -456q-1 -11 -2 -17.5t-1 -12.5q0 -32 27 -48t73 -16q50 0 81 19t35 56l60 475q1 13 7 19.5t19 6.5h87q10 0 16.5 -5.5t5.5 -20.5l-62 -499q-7 -63 -62 -113t-195 -50q-120 0 -175 44.5t-55 102.5q0 5 0.5 13.5t1.5 14.5l61 487q1 13 7 19.5t19 6.5h87
q10 0 16 -5.5t5 -20.5zM492 850l-11 -93q-1 -13 -7.5 -19t-19.5 -6h-49q-13 0 -17.5 6t-3.5 19l11 93q1 13 8 19.5t20 6.5h49q13 0 17 -6.5t3 -19.5zM352 850l-11 -93q-1 -13 -7.5 -19t-19.5 -6h-49q-13 0 -17.5 6t-3.5 19l12 93q1 13 7.5 19.5t19.5 6.5h49q13 0 17 -6.5
t3 -19.5z" />
    <glyph glyph-name="Utilde" unicode="&#x168;" horiz-adv-x="618" 
d="M245 654l-56 -456q-1 -11 -2 -17.5t-1 -12.5q0 -32 27 -48t73 -16q50 0 81 19t35 56l60 475q1 13 7 19.5t19 6.5h87q10 0 16.5 -5.5t5.5 -20.5l-62 -499q-7 -63 -62 -113t-195 -50q-120 0 -175 44.5t-55 102.5q0 5 0.5 13.5t1.5 14.5l61 487q1 13 7 19.5t19 6.5h87
q10 0 16 -5.5t5 -20.5zM305 786q-9 0 -13 -5t-7 -15l-3 -10q-4 -13 -11 -17.5t-18 -4.5h-42q-13 0 -16.5 8t-0.5 21l9 41q8 37 34.5 57.5t60.5 20.5q15 0 31 -3.5t29 -10.5l40 -21q10 -5 18.5 -9.5t14.5 -4.5q10 0 14 5.5t8 18.5l2 6q4 12 10 17t19 5h44q13 0 17 -8t1 -21
l-9 -38q-10 -40 -34 -59.5t-55 -19.5q-25 0 -39 3.5t-27 10.5l-43 21q-10 5 -18.5 8.5t-15.5 3.5z" />
    <glyph glyph-name="Umacron" unicode="&#x16a;" horiz-adv-x="618" 
d="M245 654l-56 -456q-1 -11 -2 -17.5t-1 -12.5q0 -32 27 -48t73 -16q50 0 81 19t35 56l60 475q1 13 7 19.5t19 6.5h87q10 0 16.5 -5.5t5.5 -20.5l-62 -499q-7 -63 -62 -113t-195 -50q-120 0 -175 44.5t-55 102.5q0 5 0.5 13.5t1.5 14.5l61 487q1 13 7 19.5t19 6.5h87
q10 0 16 -5.5t5 -20.5zM260 849h230q13 0 18 -5t4 -18l-5 -51q-1 -13 -8.5 -19t-20.5 -6h-230q-13 0 -18 6t-4 19l5 51q1 13 8.5 18t20.5 5z" />
    <glyph glyph-name="Ubreve" unicode="&#x16c;" horiz-adv-x="618" 
d="M245 654l-56 -456q-1 -11 -2 -17.5t-1 -12.5q0 -32 27 -48t73 -16q50 0 81 19t35 56l60 475q1 13 7 19.5t19 6.5h87q10 0 16.5 -5.5t5.5 -20.5l-62 -499q-7 -63 -62 -113t-195 -50q-120 0 -175 44.5t-55 102.5q0 5 0.5 13.5t1.5 14.5l61 487q1 13 7 19.5t19 6.5h87
q10 0 16 -5.5t5 -20.5zM328 871l-1 -10q-1 -7 -1 -11v-5q0 -16 9 -25.5t32 -9.5q27 0 38 12.5t12 32.5l1 16q1 12 7 16.5t18 4.5h50q12 0 16 -5t3 -16l-2 -13q-9 -60 -42.5 -92.5t-105.5 -32.5q-59 0 -95 26.5t-36 75.5v9.5t1 11.5l2 15q1 11 7 16t18 5h50q11 0 15.5 -4.5
t3.5 -16.5z" />
    <glyph glyph-name="Uring" unicode="&#x16e;" horiz-adv-x="618" 
d="M482 819l-3 -31q-3 -29 -28 -52t-85 -23q-59 0 -84.5 23t-22.5 57l3 30q3 31 29 53.5t87 22.5q59 0 83 -23t21 -57zM410 798l1 15q1 19 -9 24.5t-29 5.5t-30.5 -7t-12.5 -23l-1 -15q-1 -15 9 -22.5t29 -7.5t30.5 7t12.5 23zM245 654l-56 -456q-1 -11 -2 -17.5t-1 -12.5
q0 -32 27 -48t73 -16q50 0 81 19t35 56l60 475q1 13 7 19.5t19 6.5h87q10 0 16.5 -5.5t5.5 -20.5l-62 -499q-7 -63 -62 -113t-195 -50q-120 0 -175 44.5t-55 102.5q0 5 0.5 13.5t1.5 14.5l61 487q1 13 7 19.5t19 6.5h87q10 0 16 -5.5t5 -20.5z" />
    <glyph glyph-name="Uhungarumlaut" unicode="&#x170;" horiz-adv-x="618" 
d="M415 853l-66 -98q-7 -11 -15.5 -18t-21.5 -7h-60q-13 0 -17 6.5t3 18.5l53 98q7 12 15.5 18.5t21.5 6.5h73q13 0 17 -7.5t-3 -17.5zM576 853l-81 -99q-7 -9 -17 -16.5t-23 -7.5h-61q-13 0 -15.5 6.5t5.5 18.5l68 98q8 12 18 18.5t23 6.5h74q13 0 15 -7.5t-6 -17.5z
M245 654l-56 -456q-1 -11 -2 -17.5t-1 -12.5q0 -32 27 -48t73 -16q50 0 81 19t35 56l60 475q1 13 7 19.5t19 6.5h87q10 0 16.5 -5.5t5.5 -20.5l-62 -499q-7 -63 -62 -113t-195 -50q-120 0 -175 44.5t-55 102.5q0 5 0.5 13.5t1.5 14.5l61 487q1 13 7 19.5t19 6.5h87
q10 0 16 -5.5t5 -20.5z" />
    <glyph glyph-name="Uogonek" unicode="&#x172;" horiz-adv-x="619" 
d="M245 654l-56 -456q-1 -12 -2 -18t-1 -12q0 -32 27 -48t73 -16q50 0 81 19t35 56l60 475q1 13 7 19.5t19 6.5h87q10 0 16.5 -5.5t5.5 -20.5l-62 -499q-4 -28 -15.5 -54t-33.5 -47q-22 -20 -45.5 -47t-23.5 -66q0 -15 9 -22t29 -7h26q13 0 19.5 -5.5t5.5 -18.5l-4 -34
q-1 -13 -10.5 -19t-22.5 -6h-54q-28 0 -62 16t-34 67q0 15 4 37t20 47q-15 -1 -31 -2.5t-34 -1.5q-120 0 -175 44.5t-55 102.5q0 5 0.5 13.5t1.5 14.5l61 487q1 13 7 19.5t19 6.5h87q10 0 16 -5.5t5 -20.5z" />
    <glyph glyph-name="V" unicode="V" horiz-adv-x="554" 
d="M199 0q-13 0 -20 6t-9 19l-109 630q-2 12 3.5 18.5t18.5 6.5h93q13 0 18.5 -6.5t7.5 -18.5l55 -340q6 -39 6.5 -84t0.5 -61q2 9 7 27t11 39t13 42t13 36l139 341q5 12 12.5 18.5t20.5 6.5h89q13 0 16.5 -6.5t-1.5 -18.5l-264 -630q-5 -13 -13 -19t-21 -6h-87z" />
    <glyph glyph-name="W" unicode="W" horiz-adv-x="847" 
d="M544 655l43 -340q2 -20 3 -47.5t1 -52.5q6 25 14.5 51.5t15.5 47.5l127 341q4 12 12 18.5t21 6.5h77q13 0 16 -6.5t-1 -18.5l-236 -630q-4 -13 -12.5 -19t-21.5 -6h-85q-11 0 -17.5 6.5t-7.5 18.5l-44 348q-2 16 -3 41t0 52q-6 -27 -12.5 -51t-13.5 -42l-131 -348
q-4 -13 -12 -19t-21 -6h-85q-12 0 -18.5 6.5t-7.5 18.5l-82 630q-1 12 4 18.5t18 6.5h88q13 0 19 -6.5t7 -18.5l43 -341q2 -18 3.5 -41.5t2.5 -42.5q5 19 13 42t15 42l128 341q4 12 11.5 18.5t20.5 6.5h82q13 0 19 -6.5t7 -18.5z" />
    <glyph glyph-name="Wcircumflex" unicode="&#x174;" horiz-adv-x="847" 
d="M489 800l-31 -45q-6 -8 -15 -16.5t-22 -8.5h-65q-13 0 -16 7.5t6 17.5l85 98q9 10 19.5 17.5t23.5 7.5h47q13 0 21 -7.5t15 -17.5l62 -98q7 -10 1.5 -17.5t-18.5 -7.5h-62q-13 0 -20.5 7.5t-11.5 17.5zM544 655l43 -340q2 -20 3 -47.5t1 -52.5q6 25 14.5 51.5t15.5 47.5
l127 341q4 12 12 18.5t21 6.5h77q13 0 16 -6.5t-1 -18.5l-236 -630q-4 -13 -12.5 -19t-21.5 -6h-85q-11 0 -17.5 6.5t-7.5 18.5l-44 348q-2 16 -3 41t0 52q-6 -27 -12.5 -51t-13.5 -42l-131 -348q-4 -13 -12 -19t-21 -6h-85q-12 0 -18.5 6.5t-7.5 18.5l-82 630q-1 12 4 18.5
t18 6.5h88q13 0 19 -6.5t7 -18.5l43 -341q2 -18 3.5 -41.5t2.5 -42.5q5 19 13 42t15 42l128 341q4 12 11.5 18.5t20.5 6.5h82q13 0 19 -6.5t7 -18.5z" />
    <glyph glyph-name="Wgrave" unicode="&#x1e80;" horiz-adv-x="848" 
d="M415 747l-60 106q-6 10 -1.5 17.5t17.5 7.5h85q13 0 20 -7t11 -18l37 -98q5 -13 -0.5 -18.5t-15.5 -5.5h-63q-13 0 -20 5t-10 11zM544 655l43 -340q2 -20 3 -47.5t1 -52.5q6 25 14.5 51.5t15.5 47.5l127 341q4 12 12 18.5t21 6.5h77q13 0 16 -6.5t-1 -18.5l-236 -630
q-4 -13 -12.5 -19t-21.5 -6h-85q-11 0 -17.5 6.5t-7.5 18.5l-44 348q-2 16 -3 41t0 52q-6 -27 -12.5 -51t-13.5 -42l-131 -348q-4 -13 -12 -19t-21 -6h-85q-12 0 -18.5 6.5t-7.5 18.5l-82 630q-1 12 4 18.5t18 6.5h88q13 0 19 -6.5t7 -18.5l43 -341q2 -18 3.5 -41.5
t2.5 -42.5q5 19 13 42t15 42l128 341q4 12 11.5 18.5t20.5 6.5h82q13 0 19 -6.5t7 -18.5z" />
    <glyph glyph-name="Wacute" unicode="&#x1e82;" horiz-adv-x="848" 
d="M632 853l-85 -106q-4 -6 -13 -11.5t-22 -5.5h-67q-11 0 -14.5 6t4.5 19l61 98q7 10 15.5 17.5t21.5 7.5h89q13 0 15.5 -7.5t-5.5 -17.5zM544 655l43 -340q2 -20 3 -47.5t1 -52.5q6 25 14.5 51.5t15.5 47.5l127 341q4 12 12 18.5t21 6.5h77q13 0 16 -6.5t-1 -18.5
l-236 -630q-4 -13 -12.5 -19t-21.5 -6h-85q-11 0 -17.5 6.5t-7.5 18.5l-44 348q-2 16 -3 41t0 52q-6 -27 -12.5 -51t-13.5 -42l-131 -348q-4 -13 -12 -19t-21 -6h-85q-12 0 -18.5 6.5t-7.5 18.5l-82 630q-1 12 4 18.5t18 6.5h88q13 0 19 -6.5t7 -18.5l43 -341
q2 -18 3.5 -41.5t2.5 -42.5q5 19 13 42t15 42l128 341q4 12 11.5 18.5t20.5 6.5h82q13 0 19 -6.5t7 -18.5z" />
    <glyph glyph-name="Wdieresis" unicode="&#x1e84;" horiz-adv-x="848" 
d="M544 655l43 -340q2 -20 3 -47.5t1 -52.5q6 25 14.5 51.5t15.5 47.5l127 341q4 12 12 18.5t21 6.5h77q13 0 16 -6.5t-1 -18.5l-236 -630q-4 -13 -12.5 -19t-21.5 -6h-85q-11 0 -17.5 6.5t-7.5 18.5l-44 348q-2 16 -3 41t0 52q-6 -27 -12.5 -51t-13.5 -42l-131 -348
q-4 -13 -12 -19t-21 -6h-85q-12 0 -18.5 6.5t-7.5 18.5l-82 630q-1 12 4 18.5t18 6.5h88q13 0 19 -6.5t7 -18.5l43 -341q2 -18 3.5 -41.5t2.5 -42.5q5 19 13 42t15 42l128 341q4 12 11.5 18.5t20.5 6.5h82q13 0 19 -6.5t7 -18.5zM608 850l-11 -93q-1 -13 -7.5 -19t-19.5 -6
h-49q-13 0 -17.5 6t-3.5 19l11 93q1 13 8 19.5t20 6.5h49q13 0 17 -6.5t3 -19.5zM468 850l-11 -93q-1 -13 -7.5 -19t-19.5 -6h-49q-13 0 -17.5 6t-3.5 19l12 93q1 13 7.5 19.5t19.5 6.5h49q13 0 17 -6.5t3 -19.5z" />
    <glyph glyph-name="X" unicode="X" horiz-adv-x="557" 
d="M358 349l148 -324q4 -9 1 -17t-16 -8h-98q-13 0 -21.5 7.5t-12.5 17.5l-95 206l-134 -206q-7 -10 -16 -17.5t-22 -7.5h-96q-12 0 -13 9.5t6 19.5l221 323l-136 300q-5 11 -2 19.5t16 8.5h98q13 0 21 -7.5t12 -17.5l87 -191l129 191q7 11 16.5 18t22.5 7h94
q13 0 14.5 -7.5t-5.5 -17.5z" />
    <glyph glyph-name="Y" unicode="Y" horiz-adv-x="543" 
d="M207 655l67 -228q3 -11 5.5 -24t4.5 -29q7 16 12.5 29t12.5 24l132 228q6 10 13 17.5t20 7.5h88q13 0 17.5 -6.5t-2.5 -18.5l-237 -395l-30 -235q-1 -13 -7 -19t-19 -6h-87q-13 0 -18 6t-4 19l27 219l-140 411q-4 11 2 18t19 7h97q13 0 18.5 -7t8.5 -18z" />
    <glyph glyph-name="Yacute" unicode="&#xdd;" horiz-adv-x="543" 
d="M207 655l67 -228q3 -11 5.5 -24t4.5 -29q7 16 12.5 29t12.5 24l132 228q6 10 13 17.5t20 7.5h88q13 0 17.5 -6.5t-2.5 -18.5l-237 -395l-30 -235q-1 -13 -7 -19t-19 -6h-87q-13 0 -18 6t-4 19l27 219l-140 411q-4 11 2 18t19 7h97q13 0 18.5 -7t8.5 -18zM482 853
l-85 -106q-4 -6 -13 -11.5t-22 -5.5h-67q-11 0 -14.5 6t4.5 19l61 98q7 10 15.5 17.5t21.5 7.5h89q13 0 15.5 -7.5t-5.5 -17.5z" />
    <glyph glyph-name="Ycircumflex" unicode="&#x176;" horiz-adv-x="543" 
d="M207 655l67 -228q3 -11 5.5 -24t4.5 -29q7 16 12.5 29t12.5 24l132 228q6 10 13 17.5t20 7.5h88q13 0 17.5 -6.5t-2.5 -18.5l-237 -395l-30 -235q-1 -13 -7 -19t-19 -6h-87q-13 0 -18 6t-4 19l27 219l-140 411q-4 11 2 18t19 7h97q13 0 18.5 -7t8.5 -18zM339 800l-31 -45
q-6 -8 -15 -16.5t-22 -8.5h-65q-13 0 -16 7.5t6 17.5l85 98q9 10 19.5 17.5t23.5 7.5h47q13 0 21 -7.5t15 -17.5l62 -98q7 -10 1.5 -17.5t-18.5 -7.5h-62q-13 0 -20.5 7.5t-11.5 17.5z" />
    <glyph glyph-name="Ydieresis" unicode="&#x178;" horiz-adv-x="543" 
d="M207 655l67 -228q3 -11 5.5 -24t4.5 -29q7 16 12.5 29t12.5 24l132 228q6 10 13 17.5t20 7.5h88q13 0 17.5 -6.5t-2.5 -18.5l-237 -395l-30 -235q-1 -13 -7 -19t-19 -6h-87q-13 0 -18 6t-4 19l27 219l-140 411q-4 11 2 18t19 7h97q13 0 18.5 -7t8.5 -18zM452 850l-11 -93
q-1 -13 -7.5 -19t-19.5 -6h-49q-13 0 -17.5 6t-3.5 19l11 93q1 13 8 19.5t20 6.5h49q13 0 17 -6.5t3 -19.5zM312 850l-11 -93q-1 -13 -7.5 -19t-19.5 -6h-49q-13 0 -17.5 6t-3.5 19l12 93q1 13 7.5 19.5t19.5 6.5h49q13 0 17 -6.5t3 -19.5z" />
    <glyph glyph-name="Ygrave" unicode="&#x1ef2;" horiz-adv-x="543" 
d="M207 655l67 -228q3 -11 5.5 -24t4.5 -29q7 16 12.5 29t12.5 24l132 228q6 10 13 17.5t20 7.5h88q13 0 17.5 -6.5t-2.5 -18.5l-237 -395l-30 -235q-1 -13 -7 -19t-19 -6h-87q-13 0 -18 6t-4 19l27 219l-140 411q-4 11 2 18t19 7h97q13 0 18.5 -7t8.5 -18zM268 747l-60 106
q-6 10 -1.5 17.5t17.5 7.5h85q13 0 20 -7t11 -18l37 -98q5 -13 -0.5 -18.5t-15.5 -5.5h-63q-13 0 -20 5t-10 11z" />
    <glyph glyph-name="Z" unicode="Z" horiz-adv-x="497" 
d="M119 680h356q13 0 18.5 -5.5t4.5 -18.5l-7 -56q-1 -11 -5 -19t-7 -12l-307 -457h250q13 0 18.5 -5.5t4.5 -18.5l-8 -63q-1 -13 -7.5 -19t-19.5 -6h-391q-13 0 -18.5 6t-4.5 19l7 56q1 9 3.5 15t8.5 15l307 457h-216q-13 0 -18.5 6t-4.5 19l8 63q1 13 8 18.5t20 5.5z" />
    <glyph glyph-name="Zacute" unicode="&#x179;" horiz-adv-x="493" 
d="M119 680h356q13 0 18.5 -5.5t4.5 -18.5l-7 -56q-1 -11 -5 -19t-7 -12l-307 -457h250q13 0 18.5 -5.5t4.5 -18.5l-8 -63q-1 -13 -7.5 -19t-19.5 -6h-391q-13 0 -18.5 6t-4.5 19l7 56q1 9 3.5 15t8.5 15l307 457h-216q-13 0 -18.5 6t-4.5 19l8 63q1 13 8 18.5t20 5.5z
M443 853l-85 -106q-4 -6 -13 -11.5t-22 -5.5h-67q-11 0 -14.5 6t4.5 19l61 98q7 10 15.5 17.5t21.5 7.5h89q13 0 15.5 -7.5t-5.5 -17.5z" />
    <glyph glyph-name="Zdotaccent" unicode="&#x17b;" horiz-adv-x="493" 
d="M377 839l-10 -82q-1 -13 -7 -18.5t-19 -5.5h-86q-13 0 -17.5 5.5t-3.5 18.5l10 82q1 13 7.5 19t19.5 6h86q13 0 17 -6t3 -19zM119 680h356q13 0 18.5 -5.5t4.5 -18.5l-7 -56q-1 -11 -5 -19t-7 -12l-307 -457h250q13 0 18.5 -5.5t4.5 -18.5l-8 -63q-1 -13 -7.5 -19
t-19.5 -6h-391q-13 0 -18.5 6t-4.5 19l7 56q1 9 3.5 15t8.5 15l307 457h-216q-13 0 -18.5 6t-4.5 19l8 63q1 13 8 18.5t20 5.5z" />
    <glyph glyph-name="Zcaron" unicode="&#x17d;" horiz-adv-x="493" 
d="M119 680h356q13 0 18.5 -5.5t4.5 -18.5l-7 -56q-1 -11 -5 -19t-7 -12l-307 -457h250q13 0 18.5 -5.5t4.5 -18.5l-8 -63q-1 -13 -7.5 -19t-19.5 -6h-391q-13 0 -18.5 6t-4.5 19l7 56q1 9 3.5 15t8.5 15l307 457h-216q-13 0 -18.5 6t-4.5 19l8 63q1 13 8 18.5t20 5.5z
M286 854l20 -46l30 46q6 9 15.5 16.5t22.5 7.5h64q13 0 15.5 -7t-5.5 -17l-84 -99q-9 -11 -19.5 -18t-23.5 -7h-48q-13 0 -21 7.5t-15 18.5l-61 98q-6 10 -1 17t18 7h62q13 0 20 -8t11 -16z" />
    <glyph glyph-name="AE" unicode="&#xc6;" horiz-adv-x="823" 
d="M372 400l-103 -146h119l26 211q-11 -19 -22 -35.5t-20 -29.5zM-11 0q-13 0 -18 7t3 18l452 631q4 6 14 15t26 9h333q13 0 18.5 -5.5t4.5 -18.5l-8 -61q-1 -13 -8 -18.5t-20 -5.5h-231l-21 -166h215q13 0 18 -5.5t4 -18.5l-7 -57q-1 -13 -8 -19t-20 -6h-214l-24 -190h242
q13 0 18.5 -5t4.5 -18l-8 -62q-1 -13 -8 -18.5t-20 -5.5h-344q-13 0 -18.5 6t-4.5 20l15 121h-183l-86 -122q-6 -9 -14 -17t-19 -8h-84z" />
    <glyph glyph-name="AEacute" unicode="&#x1fc;" horiz-adv-x="823" 
d="M372 400l-103 -146h119l26 211q-11 -19 -22 -35.5t-20 -29.5zM-11 0q-13 0 -18 7t3 18l452 631q4 6 14 15t26 9h333q13 0 18.5 -5.5t4.5 -18.5l-8 -61q-1 -13 -8 -18.5t-20 -5.5h-231l-21 -166h215q13 0 18 -5.5t4 -18.5l-7 -57q-1 -13 -8 -19t-20 -6h-214l-24 -190h242
q13 0 18.5 -5t4.5 -18l-8 -62q-1 -13 -8 -18.5t-20 -5.5h-344q-13 0 -18.5 6t-4.5 20l15 121h-183l-86 -122q-6 -9 -14 -17t-19 -8h-84zM686 853l-85 -106q-4 -6 -13 -11.5t-22 -5.5h-67q-11 0 -14.5 6t4.5 19l61 98q7 10 15.5 17.5t21.5 7.5h89q13 0 15.5 -7.5t-5.5 -17.5z
" />
    <glyph glyph-name="Eth" unicode="&#xd0;" horiz-adv-x="638" 
d="M309 0h-229q-10 0 -15 6.5t-4 19.5l33 266h-51q-13 0 -18 6t-4 19l6 51q1 13 8 18t20 5h51l32 263q1 13 8 19.5t20 6.5h212q124 0 177.5 -45t53.5 -102q0 -4 -1 -14t-2 -15l-41 -341q-7 -63 -62 -113t-194 -50zM207 112h109q50 0 81 19t35 56l36 295q1 5 1.5 12.5
t0.5 10.5q0 31 -25 47t-74 16h-107l-22 -177h81q13 0 17.5 -5t3.5 -18l-5 -51q-1 -13 -8.5 -19t-20.5 -6h-80z" />
    <glyph glyph-name="Oslash" unicode="&#xd8;" horiz-adv-x="605" 
d="M220 501l-36 -293l222 355q-13 7 -30.5 10t-39.5 3q-47 0 -79.5 -19t-36.5 -56zM280 104q51 0 81 19t34 56l38 296l-224 -357q13 -7 31 -10.5t40 -3.5zM131 -7q-10 -16 -18 -23t-24 -7h-34q-11 0 -12 9t6 21l33 52q-21 19 -31 43t-10 49q0 4 0.5 11t1.5 14l44 363
q7 63 64 113t195 50q39 0 70 -5t56 -14l12 19q7 12 16 21t24 9h36q13 0 13 -10t-7 -20l-33 -53q21 -19 31 -43t10 -49v-10t-1 -15l-44 -363q-7 -63 -64.5 -113t-195.5 -50q-39 0 -70.5 5t-56.5 14z" />
    <glyph glyph-name="Oslashacute" unicode="&#x1fe;" horiz-adv-x="605" 
d="M502 853l-85 -106q-4 -6 -13 -11.5t-22 -5.5h-67q-11 0 -14.5 6t4.5 19l61 98q7 10 15.5 17.5t21.5 7.5h89q13 0 15.5 -7.5t-5.5 -17.5zM220 501l-36 -293l222 355q-13 7 -30.5 10t-39.5 3q-47 0 -79.5 -19t-36.5 -56zM280 104q51 0 81 19t34 56l38 296l-224 -357
q13 -7 31 -10.5t40 -3.5zM131 -7q-10 -16 -18 -23t-24 -7h-34q-11 0 -12 9t6 21l33 52q-21 19 -31 43t-10 49q0 4 0.5 11t1.5 14l44 363q7 63 64 113t195 50q39 0 70 -5t56 -14l12 19q7 12 16 21t24 9h36q13 0 13 -10t-7 -20l-33 -53q21 -19 31 -43t10 -49v-10.5t-1 -14.5
l-44 -363q-7 -63 -64.5 -113t-195.5 -50q-39 0 -70.5 5t-56.5 14z" />
    <glyph glyph-name="Thorn" unicode="&#xde;" horiz-adv-x="585" 
d="M250 655l-18 -157h95q122 0 174.5 -44.5t52.5 -100.5v-7t-1 -13l-10 -84q-7 -63 -63.5 -112.5t-194.5 -49.5h-104l-8 -62q-1 -13 -7 -19t-19 -6h-87q-10 0 -16.5 5t-5.5 20l77 630q1 13 8 19t20 6h87q13 0 17 -6.5t3 -18.5zM317 387h-99l-23 -189h99q50 0 82 19t36 56
l4 39v11q0 32 -25 48t-74 16z" />
    <glyph glyph-name="Dcroat" unicode="&#x110;" horiz-adv-x="638" 
d="M309 0h-229q-10 0 -15 6.5t-4 19.5l33 266h-51q-13 0 -18 6t-4 19l6 51q1 13 8 18t20 5h51l32 263q1 13 8 19.5t20 6.5h212q124 0 177.5 -45t53.5 -102q0 -4 -1 -14t-2 -15l-41 -341q-7 -63 -62 -113t-194 -50zM207 112h109q50 0 81 19t35 56l36 295q1 5 1.5 12.5
t0.5 10.5q0 31 -25 47t-74 16h-107l-22 -177h81q13 0 17.5 -5t3.5 -18l-5 -51q-1 -13 -8.5 -19t-20.5 -6h-80z" />
    <glyph glyph-name="Hbar" unicode="&#x126;" horiz-adv-x="646" 
d="M232 405h215l9 70h-216zM185 26q-1 -13 -7.5 -19.5t-19.5 -6.5h-87q-13 0 -18 6.5t-4 19.5l56 449h-32q-13 0 -18.5 5.5t-4.5 18.5l5 43q1 13 8 18.5t20 5.5h33l11 88q1 13 7.5 19.5t19.5 6.5h87q13 0 17.5 -6.5t3.5 -19.5l-11 -88h216l11 88q1 13 8 19.5t20 6.5h87
q13 0 17 -6.5t3 -19.5l-11 -88h30q13 0 19 -5.5t4 -18.5l-6 -43q-2 -13 -8 -18.5t-19 -5.5h-31l-56 -449q-1 -13 -6.5 -19.5t-18.5 -6.5h-87q-13 0 -18 6.5t-4 19.5l33 267h-216z" />
    <glyph glyph-name="IJ" unicode="&#x132;" horiz-adv-x="791" 
d="M250 654l-77 -628q-1 -13 -7 -19.5t-19 -6.5h-87q-13 0 -18 6.5t-4 19.5l77 628q1 13 8 19.5t20 6.5h87q13 0 17 -6.5t3 -19.5zM413 215l-4 -32q-1 -7 -1 -12v-9q0 -28 19 -43t60 -15q44 0 63.5 19t23.5 56l60 475q1 13 7.5 19.5t19.5 6.5h87q13 0 17.5 -6.5t3.5 -19.5
l-62 -499q-7 -63 -53 -113t-175 -50q-113 0 -160 43t-47 100q0 6 0.5 14t1.5 14l7 52q1 13 8 19t20 6h84q14 0 17.5 -6.5t2.5 -18.5z" />
    <glyph glyph-name="Ldot" unicode="&#x13f;" horiz-adv-x="477" 
d="M250 654l-66 -542h223q13 0 18 -5.5t4 -18.5l-8 -63q-1 -13 -8 -19t-20 -6h-336q-12 0 -16 6.5t-3 19.5l77 628q1 13 8 19.5t20 6.5h87q13 0 17 -6.5t3 -19.5zM448 393l-10 -81q-1 -13 -7.5 -19t-19.5 -6h-85q-13 0 -17.5 6t-3.5 19l9 81q1 13 8 19t20 6h86q13 0 17 -6
t3 -19z" />
    <glyph glyph-name="Lslash" unicode="&#x141;" horiz-adv-x="483" 
d="M416 0h-336q-12 0 -16 6.5t-3 19.5l31 249l-34 -13q-13 -4 -20 -1.5t-11 14.5l-9 28q-3 10 1 18.5t16 12.5l67 26l36 294q1 13 8 19.5t20 6.5h87q13 0 17 -6.5t3 -19.5l-29 -239l37 14q10 4 18 1t12 -15l10 -28q4 -10 -1 -18.5t-17 -12.5l-70 -27l-26 -217h223
q13 0 18 -5.5t4 -18.5l-8 -63q-1 -13 -8 -19t-20 -6z" />
    <glyph glyph-name="Eng" unicode="&#x14a;" horiz-adv-x="623" 
d="M599 655l-88 -709q-9 -71 -62.5 -109t-164.5 -38h-14q-13 0 -18 5.5t-4 18.5l7 57q1 13 8 19.5t20 6.5h10q41 0 64.5 13t27.5 41l8 59l-149 324q-8 19 -17 42.5t-13 39.5l-49 -400q-1 -13 -7 -19t-19 -6h-79q-13 0 -18 6t-4 19l77 630q1 13 8 19t20 6h75q9 0 14 -2.5
t7 -7.5l159 -345q7 -15 14.5 -36t10.5 -34l49 400q1 13 7.5 19t19.5 6h79q13 0 17.5 -6t3.5 -19z" />
    <glyph glyph-name="OE" unicode="&#x152;" horiz-adv-x="850" 
d="M395 178l39 317q1 6 1.5 11t0.5 7q0 32 -25.5 48t-74.5 16q-47 0 -79.5 -19t-36.5 -56l-39 -317q-1 -5 -1.5 -10.5t-0.5 -7.5q0 -32 26 -48t75 -16q50 0 80.5 19t34.5 56zM398 0q-10 0 -15 3.5t-6 10.5q-23 -10 -50.5 -16t-60.5 -6q-122 0 -173.5 43.5t-51.5 100.5
q0 4 0.5 11t1.5 14l44 364q7 61 60 112.5t180 51.5q36 0 68.5 -6.5t60.5 -19.5q2 9 8.5 13t17.5 4h341q13 0 18.5 -5.5t4.5 -18.5l-8 -63q-1 -13 -8 -18.5t-20 -5.5h-231l-20 -163h214q13 0 18 -5.5t4 -18.5l-7 -59q-1 -13 -8 -18.5t-20 -5.5h-214l-24 -188h242
q13 0 18.5 -5.5t4.5 -18.5l-8 -63q-1 -13 -8 -18.5t-20 -5.5h-353z" />
    <glyph glyph-name="Tbar" unicode="&#x166;" horiz-adv-x="520" 
d="M294 26q-1 -13 -7 -19.5t-19 -6.5h-88q-13 0 -18 6.5t-4 19.5l38 306h-102q-13 0 -19 6t-4 19l6 43q1 13 7.5 18t19.5 5h104l18 145h-142q-13 0 -18.5 6t-4.5 19l8 63q1 13 8 18.5t20 5.5h419q13 0 18.5 -5.5t4.5 -18.5l-8 -63q-1 -13 -8 -19t-20 -6h-142l-18 -145h107
q13 0 18.5 -5t4.5 -18l-6 -43q-2 -13 -8 -19t-19 -6h-108z" />
    <glyph glyph-name="Delta" unicode="&#x394;" horiz-adv-x="400" 
d="M109 437h182q13 0 18.5 -6t5.5 -19v-181q0 -13 -5.5 -19t-18.5 -6h-182q-13 0 -18.5 6t-5.5 19v181q0 13 5.5 19t18.5 6z" />
    <glyph glyph-name="Omega" unicode="&#x3a9;" horiz-adv-x="400" 
d="M64 320q0 56 40 96.5t95 40.5t95.5 -40.5t40.5 -96.5q0 -55 -40.5 -95t-95.5 -40t-95 40t-40 95zM84 320q0 -49 33 -82t82 -33q48 0 82 33t34 82q0 48 -34 82.5t-82 34.5q-49 0 -82 -34.5t-33 -82.5z" />
    <glyph glyph-name="a" unicode="a" horiz-adv-x="540" 
d="M188 340l-23 -182q-1 -7 -1 -9v-5q0 -16 10.5 -27t38.5 -11q37 0 70.5 17t50.5 28l25 195q-15 12 -44 29t-66 17q-34 0 -46.5 -16t-14.5 -36zM325 48q-23 -16 -62 -36t-101 -20q-64 0 -98 32.5t-34 88.5q0 5 0.5 12t1.5 13l27 222q8 66 44.5 106t114.5 40q57 0 96 -19.5
t58 -35.5l5 22q3 13 8.5 19t18.5 6h80q10 0 16 -5.5t5 -19.5l-55 -447q-1 -13 -7.5 -19.5t-19.5 -6.5h-78q-10 0 -16 6t-5 20z" />
    <glyph glyph-name="agrave" unicode="&#xe0;" horiz-adv-x="540" 
d="M188 340l-23 -182q-1 -7 -1 -9v-5q0 -16 10.5 -27t38.5 -11q37 0 70.5 17t50.5 28l25 195q-15 12 -44 29t-66 17q-34 0 -46.5 -16t-14.5 -36zM325 48q-23 -16 -62 -36t-101 -20q-64 0 -98 32.5t-34 88.5q0 5 0.5 12t1.5 13l27 222q8 66 44.5 106t114.5 40q57 0 96 -19.5
t58 -35.5l5 22q3 13 8.5 19t18.5 6h80q10 0 16 -5.5t5 -19.5l-55 -447q-1 -13 -7.5 -19.5t-19.5 -6.5h-78q-10 0 -16 6t-5 20zM245 577l-60 106q-6 10 -1.5 17.5t17.5 7.5h85q13 0 20 -7t11 -18l37 -98q5 -13 -0.5 -19t-16.5 -6h-62q-13 0 -20 5.5t-10 11.5z" />
    <glyph glyph-name="aacute" unicode="&#xe1;" horiz-adv-x="540" 
d="M188 340l-23 -182q-1 -7 -1 -9v-5q0 -16 10.5 -27t38.5 -11q37 0 70.5 17t50.5 28l25 195q-15 12 -44 29t-66 17q-34 0 -46.5 -16t-14.5 -36zM325 48q-23 -16 -62 -36t-101 -20q-64 0 -98 32.5t-34 88.5q0 5 0.5 12t1.5 13l27 222q8 66 44.5 106t114.5 40q57 0 96 -19.5
t58 -35.5l5 22q3 13 8.5 19t18.5 6h80q10 0 16 -5.5t5 -19.5l-55 -447q-1 -13 -7.5 -19.5t-19.5 -6.5h-78q-10 0 -16 6t-5 20zM441 683l-85 -106q-4 -5 -12.5 -11t-21.5 -6h-67q-11 0 -14.5 6t4.5 19l60 98q7 10 15.5 17.5t21.5 7.5h90q13 0 15.5 -7.5t-6.5 -17.5z" />
    <glyph glyph-name="acircumflex" unicode="&#xe2;" horiz-adv-x="540" 
d="M188 340l-23 -182q-1 -7 -1 -9v-5q0 -16 10.5 -27t38.5 -11q37 0 70.5 17t50.5 28l25 195q-15 12 -44 29t-66 17q-34 0 -46.5 -16t-14.5 -36zM325 48q-23 -16 -62 -36t-101 -20q-64 0 -98 32.5t-34 88.5q0 5 0.5 12t1.5 13l27 222q8 66 44.5 106t114.5 40q57 0 96 -19.5
t58 -35.5l5 22q3 13 8.5 19t18.5 6h80q10 0 16 -5.5t5 -19.5l-55 -447q-1 -13 -7.5 -19.5t-19.5 -6.5h-78q-10 0 -16 6t-5 20zM307 630l-30 -45q-6 -9 -15.5 -17t-22.5 -8h-64q-13 0 -16 7.5t6 17.5l84 98q9 11 19.5 18t23.5 7h48q13 0 21 -7.5t15 -17.5l61 -98
q7 -10 1.5 -17.5t-18.5 -7.5h-62q-13 0 -20 8t-11 17z" />
    <glyph glyph-name="atilde" unicode="&#xe3;" horiz-adv-x="540" 
d="M188 340l-23 -182q-1 -7 -1 -9v-5q0 -16 10.5 -27t38.5 -11q37 0 70.5 17t50.5 28l25 195q-15 12 -44 29t-66 17q-34 0 -46.5 -16t-14.5 -36zM325 48q-23 -16 -62 -36t-101 -20q-64 0 -98 32.5t-34 88.5q0 5 0.5 12t1.5 13l27 222q8 66 44.5 106t114.5 40q57 0 96 -19.5
t58 -35.5l5 22q3 13 8.5 19t18.5 6h80q10 0 16 -5.5t5 -19.5l-55 -447q-1 -13 -7.5 -19.5t-19.5 -6.5h-78q-10 0 -16 6t-5 20zM244 607q-9 0 -13 -5t-7 -15l-3 -10q-4 -13 -11 -17.5t-18 -4.5h-42q-13 0 -16.5 8t-0.5 21l9 42q8 37 34.5 57t60.5 20q15 0 31 -3.5t29 -10.5
l40 -21q10 -5 18.5 -9t14.5 -4q10 0 14 5t8 18l2 6q4 12 10 17t19 5h44q13 0 17 -8t1 -21l-9 -38q-10 -40 -34 -59t-55 -19q-25 0 -39 3.5t-27 10.5l-43 21q-10 5 -18.5 8t-15.5 3z" />
    <glyph glyph-name="adieresis" unicode="&#xe4;" horiz-adv-x="540" 
d="M188 340l-23 -182q-1 -7 -1 -9v-5q0 -16 10.5 -27t38.5 -11q37 0 70.5 17t50.5 28l25 195q-15 12 -44 29t-66 17q-34 0 -46.5 -16t-14.5 -36zM325 48q-23 -16 -62 -36t-101 -20q-64 0 -98 32.5t-34 88.5q0 5 0.5 12t1.5 13l27 222q8 66 44.5 106t114.5 40q57 0 96 -19.5
t58 -35.5l5 22q3 13 8.5 19t18.5 6h80q10 0 16 -5.5t5 -19.5l-55 -447q-1 -13 -7.5 -19.5t-19.5 -6.5h-78q-10 0 -16 6t-5 20zM434 681l-12 -93q-1 -13 -7.5 -19t-19.5 -6h-48q-13 0 -17.5 6t-3.5 19l11 93q1 13 8 19t20 6h48q13 0 17.5 -6t3.5 -19zM294 681l-11 -93
q-1 -13 -7.5 -19t-19.5 -6h-49q-13 0 -17.5 6t-3.5 19l11 93q1 13 8 19t20 6h49q13 0 17 -6t3 -19z" />
    <glyph glyph-name="aring" unicode="&#xe5;" horiz-adv-x="540" 
d="M188 340l-23 -182q-1 -7 -1 -9v-5q0 -16 10.5 -27t38.5 -11q37 0 70.5 17t50.5 28l25 195q-15 12 -44 29t-66 17q-34 0 -46.5 -16t-14.5 -36zM325 48q-23 -16 -62 -36t-101 -20q-64 0 -98 32.5t-34 88.5q0 5 0.5 12t1.5 13l27 222q8 66 44.5 106t114.5 40q57 0 96 -19.5
t58 -35.5l5 22q3 13 8.5 19t18.5 6h80q10 0 16 -5.5t5 -19.5l-55 -447q-1 -13 -7.5 -19.5t-19.5 -6.5h-78q-10 0 -16 6t-5 20zM427 650l-3 -30q-3 -31 -28 -53.5t-85 -22.5q-59 0 -85 22.5t-22 57.5l3 30q3 31 29 53.5t87 22.5q57 0 82.5 -22.5t21.5 -57.5zM355 629l1 15
q1 16 -9 23t-29 7t-30.5 -7t-12.5 -23l-1 -15q-1 -16 9 -23t29 -7t30.5 7t12.5 23z" />
    <glyph glyph-name="amacron" unicode="&#x101;" horiz-adv-x="540" 
d="M188 340l-23 -182q-1 -7 -1 -9v-5q0 -16 10.5 -27t38.5 -11q37 0 70.5 17t50.5 28l25 195q-15 12 -44 29t-66 17q-34 0 -46.5 -16t-14.5 -36zM325 48q-23 -16 -62 -36t-101 -20q-64 0 -98 32.5t-34 88.5q0 5 0.5 12t1.5 13l27 222q8 66 44.5 106t114.5 40q57 0 96 -19.5
t58 -35.5l5 22q3 13 8.5 19t18.5 6h80q10 0 16 -5.5t5 -19.5l-55 -447q-1 -13 -7.5 -19.5t-19.5 -6.5h-78q-10 0 -16 6t-5 20zM197 671h231q13 0 18 -5.5t4 -18.5l-6 -51q-1 -13 -8 -18.5t-20 -5.5h-231q-13 0 -18 5.5t-4 18.5l6 51q1 13 8 18.5t20 5.5z" />
    <glyph glyph-name="abreve" unicode="&#x103;" horiz-adv-x="540" 
d="M188 340l-23 -182q-1 -7 -1 -9v-5q0 -16 10.5 -27t38.5 -11q37 0 70.5 17t50.5 28l25 195q-15 12 -44 29t-66 17q-34 0 -46.5 -16t-14.5 -36zM325 48q-23 -16 -62 -36t-101 -20q-64 0 -98 32.5t-34 88.5q0 5 0.5 12t1.5 13l27 222q8 66 44.5 106t114.5 40q57 0 96 -19.5
t58 -35.5l5 22q3 13 8.5 19t18.5 6h80q10 0 16 -5.5t5 -19.5l-55 -447q-1 -13 -7.5 -19.5t-19.5 -6.5h-78q-10 0 -16 6t-5 20zM266 685l-1 -10q-1 -7 -1 -11v-5q0 -16 9 -25.5t32 -9.5q27 0 38 12.5t12 32.5l1 16q1 12 7 16.5t18 4.5h50q12 0 16 -5t3 -16l-1 -13
q-4 -57 -40.5 -91t-108.5 -34q-59 0 -95 26.5t-36 75.5v9.5t1 11.5l2 15q1 11 7 16t18 5h50q11 0 15.5 -4.5t3.5 -16.5z" />
    <glyph glyph-name="aogonek" unicode="&#x105;" horiz-adv-x="540" 
d="M403 -171h-36q-28 0 -62 16.5t-34 67.5q0 17 8.5 47.5t45.5 63.5v24q-23 -16 -62 -36t-101 -20q-64 0 -98 32.5t-34 88.5q0 5 0.5 11.5t1.5 13.5l27 222q8 66 44.5 106t114.5 40q57 0 96 -19.5t58 -35.5l5 22q3 13 8.5 19t18.5 6h80q10 0 16 -5.5t5 -19.5l-55 -447
q-1 -13 -7.5 -19.5t-19.5 -6.5h-8q-20 0 -33.5 -17.5t-13.5 -39.5q0 -15 9.5 -23t29.5 -8h8q13 0 19.5 -5.5t5.5 -18.5l-4 -34q-1 -13 -10.5 -19t-22.5 -6zM188 340l-23 -182q-1 -4 -1 -7v-7q0 -16 10.5 -27t38.5 -11q37 0 70.5 17t50.5 28l25 195q-15 12 -44 29t-66 17
q-34 0 -46.5 -16t-14.5 -36z" />
    <glyph glyph-name="aringacute" unicode="&#x1fb;" horiz-adv-x="540" 
d="M307 544q-58 0 -84.5 21.5t-22.5 58.5l3 32q2 22 19.5 43t56.5 28l43 70q7 10 15.5 17.5t21.5 7.5h90q13 0 15.5 -7.5t-6.5 -17.5l-66 -83q19 -10 26 -25.5t5 -38.5l-3 -30q-3 -31 -28 -53.5t-85 -22.5zM351 629l1 15q1 17 -10.5 23.5t-27.5 6.5q-19 0 -30.5 -7
t-12.5 -23l-1 -15q-1 -17 10 -23.5t28 -6.5q19 0 30.5 7t12.5 23zM188 340l-23 -182q-1 -7 -1 -9v-5q0 -16 10.5 -27t38.5 -11q37 0 70.5 17t50.5 28l25 195q-15 12 -44 29t-66 17q-34 0 -46.5 -16t-14.5 -36zM325 48q-23 -16 -62 -36t-101 -20q-64 0 -98 32.5t-34 88.5
q0 5 0.5 12t1.5 13l27 222q8 66 44.5 106t114.5 40q57 0 96 -19.5t58 -35.5l5 22q3 13 8.5 19t18.5 6h80q10 0 16 -5.5t5 -19.5l-55 -447q-1 -13 -7.5 -19.5t-19.5 -6.5h-78q-10 0 -16 6t-5 20z" />
    <glyph glyph-name="b" unicode="b" horiz-adv-x="540" 
d="M124 0h-78q-10 0 -16 7t-5 19l80 647q1 13 7.5 19.5t19.5 6.5h84q14 0 17.5 -7.5t2.5 -18.5l-27 -221q23 16 62 35t97 19q63 0 98 -32.5t35 -89.5q0 -5 -0.5 -11.5t-1.5 -12.5l-27 -222q-8 -66 -47.5 -106t-114.5 -40q-60 0 -97.5 20t-56.5 36l-5 -22q-3 -13 -8.5 -19.5
t-18.5 -6.5zM342 158l24 182q1 5 1 8.5v4.5q0 16 -10.5 27.5t-38.5 11.5q-38 0 -71.5 -17t-50.5 -29l-24 -195q14 -11 43 -28t67 -17q34 0 45.5 16t14.5 36z" />
    <glyph glyph-name="c" unicode="c" horiz-adv-x="494" 
d="M278 506q100 0 145 -36t45 -92v-7t-1 -14l-1 -15q-1 -13 -8 -18.5t-20 -5.5h-76q-12 0 -17 5.5t-4 17.5l1 8q1 6 1 8.5v3.5q0 21 -16.5 31t-55.5 10q-43 0 -61 -12.5t-22 -40.5l-23 -185q-1 -6 -1.5 -12.5t-0.5 -13.5q0 -22 16.5 -32t54.5 -10q43 0 61 13t22 41l2 15
q1 13 7.5 19t19.5 6h77q14 0 18 -7.5t3 -17.5l-3 -25q-8 -66 -56.5 -107t-163.5 -41q-98 0 -145 35t-47 93v9t1 11l27 219q8 66 58 106.5t163 40.5z" />
    <glyph glyph-name="ccedilla" unicode="&#xe7;" horiz-adv-x="494" 
d="M338 -117q0 -48 -28 -71t-70 -23h-120q-14 0 -18 7t-3 18l2 20q1 13 7.5 18.5t19.5 5.5h98q10 0 15.5 4t5.5 13q0 8 -5.5 11t-12.5 3h-73q-17 0 -25.5 8t-1.5 25l30 74q-66 10 -98 42.5t-32 81.5v9t1 11l27 219q8 66 58 106.5t163 40.5q100 0 145 -36t45 -92v-7t-1 -14
l-1 -15q-1 -13 -8 -18.5t-20 -5.5h-76q-12 0 -17 5.5t-4 17.5l1 8q1 6 1 8.5v3.5q0 21 -16.5 31t-55.5 10q-43 0 -61 -12.5t-22 -40.5l-23 -185q-1 -6 -1.5 -12.5t-0.5 -13.5q0 -22 16.5 -32t54.5 -10q43 0 61 13t22 41l2 15q1 13 7.5 19t19.5 6h77q14 0 18 -7.5t3 -17.5
l-3 -25q-7 -63 -51 -103t-145 -44l-15 -38h31q34 0 55.5 -19t21.5 -53z" />
    <glyph glyph-name="cacute" unicode="&#x107;" horiz-adv-x="494" 
d="M434 683l-85 -106q-4 -5 -12.5 -11t-21.5 -6h-67q-11 0 -14.5 6t4.5 19l60 98q7 10 15.5 17.5t21.5 7.5h90q13 0 15.5 -7.5t-6.5 -17.5zM278 506q100 0 145 -36t45 -92v-7t-1 -14l-1 -15q-1 -13 -8 -18.5t-20 -5.5h-76q-12 0 -17 5.5t-4 17.5l1 8q1 6 1 8.5v3.5
q0 21 -16.5 31t-55.5 10q-43 0 -61 -12.5t-22 -40.5l-23 -185q-1 -6 -1.5 -12.5t-0.5 -13.5q0 -22 16.5 -32t54.5 -10q43 0 61 13t22 41l2 15q1 13 7.5 19t19.5 6h77q14 0 18 -7.5t3 -17.5l-3 -25q-8 -66 -56.5 -107t-163.5 -41q-98 0 -145 35t-47 93v9t1 11l27 219
q8 66 58 106.5t163 40.5z" />
    <glyph glyph-name="ccircumflex" unicode="&#x109;" horiz-adv-x="494" 
d="M298 630l-30 -45q-6 -9 -15.5 -17t-22.5 -8h-64q-13 0 -16 7.5t6 17.5l84 98q9 11 19.5 18t23.5 7h48q13 0 21 -7.5t15 -17.5l61 -98q7 -10 1.5 -17.5t-18.5 -7.5h-62q-13 0 -20 8t-11 17zM278 506q100 0 145 -36t45 -92v-7t-1 -14l-1 -15q-1 -13 -8 -18.5t-20 -5.5h-76
q-12 0 -17 5.5t-4 17.5l1 8q1 6 1 8.5v3.5q0 21 -16.5 31t-55.5 10q-43 0 -61 -12.5t-22 -40.5l-23 -185q-1 -6 -1.5 -12.5t-0.5 -13.5q0 -22 16.5 -32t54.5 -10q43 0 61 13t22 41l2 15q1 13 7.5 19t19.5 6h77q14 0 18 -7.5t3 -17.5l-3 -25q-8 -66 -56.5 -107t-163.5 -41
q-98 0 -145 35t-47 93v9t1 11l27 219q8 66 58 106.5t163 40.5z" />
    <glyph glyph-name="cdotaccent" unicode="&#x10b;" horiz-adv-x="494" 
d="M278 506q100 0 145 -36t45 -92v-7t-1 -14l-1 -15q-1 -13 -8 -18.5t-20 -5.5h-76q-12 0 -17 5.5t-4 17.5l1 8q1 6 1 8.5v3.5q0 21 -16.5 31t-55.5 10q-43 0 -61 -12.5t-22 -40.5l-23 -185q-1 -6 -1.5 -12.5t-0.5 -13.5q0 -22 16.5 -32t54.5 -10q43 0 61 13t22 41l2 15
q1 13 7.5 19t19.5 6h77q14 0 18 -7.5t3 -17.5l-3 -25q-8 -66 -56.5 -107t-163.5 -41q-98 0 -145 35t-47 93v9t1 11l27 219q8 66 58 106.5t163 40.5zM360 677l-10 -81q-1 -13 -7 -19t-19 -6h-86q-13 0 -17.5 6t-3.5 19l10 81q1 13 7.5 19t19.5 6h86q13 0 17 -6t3 -19z" />
    <glyph glyph-name="ccaron" unicode="&#x10d;" horiz-adv-x="494" 
d="M275 684l19 -46l31 46q6 9 15 16.5t22 7.5h65q13 0 16 -7t-6 -17l-85 -99q-9 -10 -19.5 -17.5t-23.5 -7.5h-47q-13 0 -21 7.5t-15 18.5l-62 98q-6 10 -1 17t18 7h63q13 0 20 -7.5t11 -16.5zM278 506q100 0 145 -36t45 -92v-7t-1 -14l-1 -15q-1 -13 -8 -18.5t-20 -5.5h-76
q-12 0 -17 5.5t-4 17.5l1 8q1 6 1 8.5v3.5q0 21 -16.5 31t-55.5 10q-43 0 -61 -12.5t-22 -40.5l-23 -185q-1 -6 -1.5 -12.5t-0.5 -13.5q0 -22 16.5 -32t54.5 -10q43 0 61 13t22 41l2 15q1 13 7.5 19t19.5 6h77q14 0 18 -7.5t3 -17.5l-3 -25q-8 -66 -56.5 -107t-163.5 -41
q-98 0 -145 35t-47 93v9t1 11l27 219q8 66 58 106.5t163 40.5z" />
    <glyph glyph-name="d" unicode="d" horiz-adv-x="540" 
d="M188 340l-22 -176q-1 -6 -1.5 -11t-0.5 -9q0 -16 10.5 -27t38.5 -11q37 0 70.5 17t50.5 28l25 195q-15 12 -44 29t-66 17q-34 0 -46.5 -16t-14.5 -36zM325 48q-24 -16 -62 -36t-101 -20q-64 0 -98 32.5t-34 87.5q0 6 0.5 13t1.5 13l27 222q8 66 44.5 106t114.5 40
q54 0 94 -19t59 -35l27 221q1 13 7.5 19.5t19.5 6.5h84q13 0 17.5 -6.5t3.5 -19.5l-80 -647q-1 -13 -7.5 -19.5t-19.5 -6.5h-78q-13 0 -17.5 6.5t-3.5 19.5z" />
    <glyph glyph-name="dcaron" unicode="&#x10f;" horiz-adv-x="563" 
d="M593 685l4 31q1 13 7.5 19t19.5 6h62q13 0 17 -6t3 -19l-5 -38q-6 -46 -22 -74.5t-38 -58.5q-8 -11 -16.5 -13t-17.5 0l-45 11q-12 3 -13.5 12t5.5 21q19 32 26.5 51t12.5 58zM188 340l-22 -176q-1 -6 -1.5 -11t-0.5 -9q0 -16 10.5 -27t38.5 -11q37 0 70.5 17t50.5 28
l25 195q-15 12 -44 29t-66 17q-34 0 -46.5 -16t-14.5 -36zM325 48q-24 -16 -62 -36t-101 -20q-64 0 -98 32.5t-34 87.5q0 6 0.5 13t1.5 13l27 222q8 66 44.5 106t114.5 40q54 0 94 -19t59 -35l27 221q1 13 7.5 19.5t19.5 6.5h84q13 0 17.5 -6.5t3.5 -19.5l-80 -647
q-1 -13 -7.5 -19.5t-19.5 -6.5h-78q-13 0 -17.5 6.5t-3.5 19.5z" />
    <glyph glyph-name="e" unicode="e" horiz-adv-x="501" 
d="M464 359l-14 -116q-1 -12 -7.5 -17.5t-18.5 -5.5h-256l-7 -62q-1 -6 -1.5 -13.5t-0.5 -9.5q0 -22 16.5 -33.5t54.5 -11.5q43 0 63 14t22 37l1 10q1 13 8 19t20 6h70q13 0 17.5 -6.5t3.5 -18.5l-1 -11q-6 -68 -52 -108t-160 -40q-99 0 -146 35t-47 93v9t1 11l27 219
q8 66 58 106.5t162 40.5q96 0 142 -35t46 -92v-8t-1 -12zM185 353l-6 -45h157l5 38q1 8 1 11v5q0 22 -17 34t-56 12q-42 0 -61 -15t-23 -40z" />
    <glyph glyph-name="egrave" unicode="&#xe8;" horiz-adv-x="501" 
d="M464 359l-14 -116q-1 -12 -7.5 -17.5t-18.5 -5.5h-256l-7 -62q-1 -6 -1.5 -13.5t-0.5 -9.5q0 -22 16.5 -33.5t54.5 -11.5q43 0 63 14t22 37l1 10q1 13 8 19t20 6h70q13 0 17.5 -6.5t3.5 -18.5l-1 -11q-6 -68 -52 -108t-160 -40q-99 0 -146 35t-47 93v9t1 11l27 219
q8 66 58 106.5t162 40.5q96 0 142 -35t46 -92v-8t-1 -12zM185 353l-6 -45h157l5 38q1 8 1 11v5q0 22 -17 34t-56 12q-42 0 -61 -15t-23 -40zM223 577l-60 106q-6 10 -1.5 17.5t17.5 7.5h85q13 0 20 -7t11 -18l37 -98q5 -13 -0.5 -19t-16.5 -6h-62q-13 0 -20 5.5t-10 11.5z
" />
    <glyph glyph-name="eacute" unicode="&#xe9;" horiz-adv-x="501" 
d="M426 683l-85 -106q-4 -5 -12.5 -11t-21.5 -6h-67q-11 0 -14.5 6t4.5 19l60 98q7 10 15.5 17.5t21.5 7.5h90q13 0 15.5 -7.5t-6.5 -17.5zM464 359l-14 -116q-1 -12 -7.5 -17.5t-18.5 -5.5h-256l-7 -62q-1 -6 -1.5 -13.5t-0.5 -9.5q0 -22 16.5 -33.5t54.5 -11.5q43 0 63 14
t22 37l1 10q1 13 8 19t20 6h70q13 0 17.5 -6.5t3.5 -18.5l-1 -11q-6 -68 -52 -108t-160 -40q-99 0 -146 35t-47 93v9t1 11l27 219q8 66 58 106.5t162 40.5q96 0 142 -35t46 -92v-8t-1 -12zM185 353l-6 -45h157l5 38q1 8 1 11v5q0 22 -17 34t-56 12q-42 0 -61 -15t-23 -40z
" />
    <glyph glyph-name="ecircumflex" unicode="&#xea;" horiz-adv-x="501" 
d="M291 630l-30 -45q-6 -9 -15.5 -17t-22.5 -8h-64q-13 0 -16 7.5t6 17.5l84 98q9 11 19.5 18t23.5 7h48q13 0 21 -7.5t15 -17.5l61 -98q7 -10 1.5 -17.5t-18.5 -7.5h-62q-13 0 -20 8t-11 17zM464 359l-14 -116q-1 -12 -7.5 -17.5t-18.5 -5.5h-256l-7 -62q-1 -6 -1.5 -13.5
t-0.5 -9.5q0 -22 16.5 -33.5t54.5 -11.5q43 0 63 14t22 37l1 10q1 13 8 19t20 6h70q13 0 17.5 -6.5t3.5 -18.5l-1 -11q-6 -68 -52 -108t-160 -40q-99 0 -146 35t-47 93v9t1 11l27 219q8 66 58 106.5t162 40.5q96 0 142 -35t46 -92v-8t-1 -12zM185 353l-6 -45h157l5 38
q1 8 1 11v5q0 22 -17 34t-56 12q-42 0 -61 -15t-23 -40z" />
    <glyph glyph-name="edieresis" unicode="&#xeb;" horiz-adv-x="501" 
d="M410 681l-12 -93q-1 -13 -7.5 -19t-19.5 -6h-48q-13 0 -17.5 6t-3.5 19l11 93q1 13 8 19t20 6h48q13 0 17.5 -6t3.5 -19zM270 681l-11 -93q-1 -13 -7.5 -19t-19.5 -6h-49q-13 0 -17.5 6t-3.5 19l11 93q1 13 8 19t20 6h49q13 0 17 -6t3 -19zM464 359l-14 -116
q-1 -12 -7.5 -17.5t-18.5 -5.5h-256l-7 -62q-1 -6 -1.5 -13.5t-0.5 -9.5q0 -22 16.5 -33.5t54.5 -11.5q43 0 63 14t22 37l1 10q1 13 8 19t20 6h70q13 0 17.5 -6.5t3.5 -18.5l-1 -11q-6 -68 -52 -108t-160 -40q-99 0 -146 35t-47 93v9t1 11l27 219q8 66 58 106.5t162 40.5
q96 0 142 -35t46 -92v-8t-1 -12zM185 353l-6 -45h157l5 38q1 8 1 11v5q0 22 -17 34t-56 12q-42 0 -61 -15t-23 -40z" />
    <glyph glyph-name="emacron" unicode="&#x113;" horiz-adv-x="501" 
d="M464 359l-14 -116q-1 -12 -7.5 -17.5t-18.5 -5.5h-256l-7 -62q-1 -6 -1.5 -13.5t-0.5 -9.5q0 -22 16.5 -33.5t54.5 -11.5q43 0 63 14t22 37l1 10q1 13 8 19t20 6h70q13 0 17.5 -6.5t3.5 -18.5l-1 -11q-6 -68 -52 -108t-160 -40q-99 0 -146 35t-47 93v9t1 11l27 219
q8 66 58 106.5t162 40.5q96 0 142 -35t46 -92v-8t-1 -12zM185 353l-6 -45h157l5 38q1 8 1 11v5q0 22 -17 34t-56 12q-42 0 -61 -15t-23 -40zM184 671h231q13 0 18 -5.5t4 -18.5l-6 -51q-1 -13 -8 -18.5t-20 -5.5h-231q-13 0 -18 5.5t-4 18.5l6 51q1 13 8 18.5t20 5.5z" />
    <glyph glyph-name="ebreve" unicode="&#x115;" horiz-adv-x="501" 
d="M464 359l-14 -116q-1 -12 -7.5 -17.5t-18.5 -5.5h-256l-7 -62q-1 -6 -1.5 -13.5t-0.5 -9.5q0 -22 16.5 -33.5t54.5 -11.5q43 0 63 14t22 37l1 10q1 13 8 19t20 6h70q13 0 17.5 -6.5t3.5 -18.5l-1 -11q-6 -68 -52 -108t-160 -40q-99 0 -146 35t-47 93v9t1 11l27 219
q8 66 58 106.5t162 40.5q96 0 142 -35t46 -92v-8t-1 -12zM185 353l-6 -45h157l5 38q1 8 1 11v5q0 22 -17 34t-56 12q-42 0 -61 -15t-23 -40zM253 685l-1 -10q-1 -7 -1 -11v-5q0 -16 9 -25.5t32 -9.5q27 0 38 12.5t12 32.5l1 16q1 12 7 16.5t18 4.5h50q12 0 16 -5t3 -16
l-1 -13q-4 -57 -40.5 -91t-108.5 -34q-59 0 -95 26.5t-36 75.5v9.5t1 11.5l2 15q1 11 7 16t18 5h50q11 0 15.5 -4.5t3.5 -16.5z" />
    <glyph glyph-name="edotaccent" unicode="&#x117;" horiz-adv-x="501" 
d="M464 359l-14 -116q-1 -12 -7.5 -17.5t-18.5 -5.5h-256l-7 -62q-1 -6 -1.5 -13.5t-0.5 -9.5q0 -22 16.5 -33.5t54.5 -11.5q43 0 63 14t22 37l1 10q1 13 8 19t20 6h70q13 0 17.5 -6.5t3.5 -18.5l-1 -11q-6 -68 -52 -108t-160 -40q-99 0 -146 35t-47 93v9t1 11l27 219
q8 66 58 106.5t162 40.5q96 0 142 -35t46 -92v-8t-1 -12zM185 353l-6 -45h157l5 38q1 8 1 11v5q0 22 -17 34t-56 12q-42 0 -61 -15t-23 -40zM355 677l-10 -81q-1 -13 -7 -19t-19 -6h-86q-13 0 -17.5 6t-3.5 19l10 81q1 13 7.5 19t19.5 6h86q13 0 17 -6t3 -19z" />
    <glyph glyph-name="eogonek" unicode="&#x119;" horiz-adv-x="502" 
d="M464 359l-14 -116q-1 -12 -7.5 -17.5t-18.5 -5.5h-256l-7 -62q-1 -5 -1.5 -11.5t-0.5 -13.5q0 -20 17 -31.5t54 -11.5q43 0 63 14t22 37l1 10q1 13 8 19t20 6h70q13 0 17.5 -6.5t3.5 -18.5l-1 -11q-3 -29 -14 -55t-37 -50q-20 -19 -36.5 -39t-16.5 -54q0 -14 9 -22t29 -8
h20q13 0 19.5 -5.5t5.5 -18.5l-4 -34q-1 -13 -10.5 -19t-22.5 -6h-48q-28 0 -62 16t-34 67q0 15 4.5 35.5t17.5 45.5q-7 -1 -15.5 -1h-16.5q-99 0 -146 35t-47 93v10t1 10l27 219q8 66 58 106.5t162 40.5q96 0 142 -35t46 -92v-9.5t-1 -10.5zM185 353l-6 -45h157l5 38
q1 5 1 9.5v6.5q0 22 -17 34t-56 12q-42 0 -61 -15t-23 -40z" />
    <glyph glyph-name="ecaron" unicode="&#x11b;" horiz-adv-x="501" 
d="M268 684l19 -46l31 46q6 9 15 16.5t22 7.5h65q13 0 16 -7t-6 -17l-85 -99q-9 -10 -19.5 -17.5t-23.5 -7.5h-47q-13 0 -21 7.5t-15 18.5l-62 98q-6 10 -1 17t18 7h63q13 0 20 -7.5t11 -16.5zM464 359l-14 -116q-1 -12 -7.5 -17.5t-18.5 -5.5h-256l-7 -62q-1 -6 -1.5 -13.5
t-0.5 -9.5q0 -22 16.5 -33.5t54.5 -11.5q43 0 63 14t22 37l1 10q1 13 8 19t20 6h70q13 0 17.5 -6.5t3.5 -18.5l-1 -11q-6 -68 -52 -108t-160 -40q-99 0 -146 35t-47 93v9t1 11l27 219q8 66 58 106.5t162 40.5q96 0 142 -35t46 -92v-8t-1 -12zM185 353l-6 -45h157l5 38
q1 8 1 11v5q0 22 -17 34t-56 12q-42 0 -61 -15t-23 -40z" />
    <glyph glyph-name="f" unicode="f" horiz-adv-x="349" 
d="M121 496l7 59q8 67 62 107.5t167 40.5h13q13 0 18.5 -6t4.5 -19l-7 -58q-1 -13 -8.5 -19t-20.5 -6h-9q-43 0 -64.5 -13t-25.5 -41l-6 -45h83q13 0 18.5 -5t4.5 -18l-7 -56q-1 -13 -8 -19t-20 -6h-83l-70 -568q-1 -13 -7 -19t-19 -6h-84q-13 0 -17.5 6t-3.5 19l70 568h-54
q-13 0 -18 6t-4 19l6 50q1 13 8 18t20 6l51 5h3z" />
    <glyph glyph-name="g" unicode="g" horiz-adv-x="540" 
d="M163 -8q-65 0 -99 33t-34 88q0 6 0.5 12.5t1.5 12.5l27 222q8 66 44.5 106t114.5 40q60 0 99 -20.5t58 -37.5l5 25q3 13 8.5 19t18.5 6h77q13 0 17.5 -7t3.5 -18l-64 -527q-8 -66 -61.5 -106.5t-170.5 -40.5h-141q-13 0 -18.5 6t-4.5 18l7 58q1 13 8.5 19.5t20.5 6.5h140
q44 0 65.5 13t24.5 41l10 84q-23 -16 -60.5 -34.5t-97.5 -18.5zM187 340l-21 -173q-1 -5 -1.5 -12t-0.5 -10q0 -16 10.5 -27.5t38.5 -11.5q37 0 70.5 17t50.5 28l25 195q-15 12 -44 29t-66 17q-34 0 -47 -16t-15 -36z" />
    <glyph glyph-name="gcircumflex" unicode="&#x11d;" horiz-adv-x="540" 
d="M309 630l-30 -45q-6 -9 -15.5 -17t-22.5 -8h-64q-13 0 -16 7.5t6 17.5l84 98q9 11 19.5 18t23.5 7h48q13 0 21 -7.5t15 -17.5l61 -98q7 -10 1.5 -17.5t-18.5 -7.5h-62q-13 0 -20 8t-11 17zM163 -8q-65 0 -99 33t-34 88q0 6 0.5 12.5t1.5 12.5l27 222q8 66 44.5 106
t114.5 40q60 0 99 -20.5t58 -37.5l5 25q3 13 8.5 19t18.5 6h77q13 0 17.5 -7t3.5 -18l-64 -527q-8 -66 -61.5 -106.5t-170.5 -40.5h-141q-13 0 -18.5 6t-4.5 18l7 58q1 13 8.5 19.5t20.5 6.5h140q44 0 65.5 13t24.5 41l10 84q-23 -16 -60.5 -34.5t-97.5 -18.5zM187 340
l-21 -173q-1 -5 -1.5 -12t-0.5 -10q0 -16 10.5 -27.5t38.5 -11.5q37 0 70.5 17t50.5 28l25 195q-15 12 -44 29t-66 17q-34 0 -47 -16t-15 -36z" />
    <glyph glyph-name="gbreve" unicode="&#x11f;" horiz-adv-x="540" 
d="M163 -8q-65 0 -99 33t-34 88q0 6 0.5 12.5t1.5 12.5l27 222q8 66 44.5 106t114.5 40q60 0 99 -20.5t58 -37.5l5 25q3 13 8.5 19t18.5 6h77q13 0 17.5 -7t3.5 -18l-64 -527q-8 -66 -61.5 -106.5t-170.5 -40.5h-141q-13 0 -18.5 6t-4.5 18l7 58q1 13 8.5 19.5t20.5 6.5h140
q44 0 65.5 13t24.5 41l10 84q-23 -16 -60.5 -34.5t-97.5 -18.5zM187 340l-21 -173q-1 -5 -1.5 -12t-0.5 -10q0 -16 10.5 -27.5t38.5 -11.5q37 0 70.5 17t50.5 28l25 195q-15 12 -44 29t-66 17q-34 0 -47 -16t-15 -36zM260 685l-1 -10q-1 -7 -1 -11v-5q0 -16 9 -25.5t32 -9.5
q27 0 38 12.5t12 32.5l1 16q1 12 7 16.5t18 4.5h50q12 0 16 -5t3 -16l-1 -13q-4 -57 -40.5 -91t-108.5 -34q-59 0 -95 26.5t-36 75.5v9.5t1 11.5l2 15q1 11 7 16t18 5h50q11 0 15.5 -4.5t3.5 -16.5z" />
    <glyph glyph-name="gdotaccent" unicode="&#x121;" horiz-adv-x="540" 
d="M163 -8q-65 0 -99 33t-34 88q0 6 0.5 12.5t1.5 12.5l27 222q8 66 44.5 106t114.5 40q60 0 99 -20.5t58 -37.5l5 25q3 13 8.5 19t18.5 6h77q13 0 17.5 -7t3.5 -18l-64 -527q-8 -66 -61.5 -106.5t-170.5 -40.5h-141q-13 0 -18.5 6t-4.5 18l7 58q1 13 8.5 19.5t20.5 6.5h140
q44 0 65.5 13t24.5 41l10 84q-23 -16 -60.5 -34.5t-97.5 -18.5zM187 340l-21 -173q-1 -5 -1.5 -12t-0.5 -10q0 -16 10.5 -27.5t38.5 -11.5q37 0 70.5 17t50.5 28l25 195q-15 12 -44 29t-66 17q-34 0 -47 -16t-15 -36zM359 677l-10 -81q-1 -13 -7 -19t-19 -6h-86
q-13 0 -17.5 6t-3.5 19l10 81q1 13 7.5 19t19.5 6h86q13 0 17 -6t3 -19z" />
    <glyph glyph-name="gcommaaccent" unicode="&#x123;" horiz-adv-x="540" 
d="M163 -8q-65 0 -99 33t-34 88q0 6 0.5 12.5t1.5 12.5l27 222q8 66 44.5 106t114.5 40q60 0 99 -20.5t58 -37.5l5 25q3 13 8.5 19t18.5 6h77q13 0 17.5 -7t3.5 -18l-64 -527q-8 -66 -61.5 -106.5t-170.5 -40.5h-141q-13 0 -18.5 6t-4.5 18l7 58q1 13 8.5 19.5t20.5 6.5h140
q44 0 65.5 13t24.5 41l10 84q-23 -16 -60.5 -34.5t-97.5 -18.5zM187 340l-21 -173q-1 -5 -1.5 -12t-0.5 -10q0 -16 10.5 -27.5t38.5 -11.5q37 0 70.5 17t50.5 28l25 195q-15 12 -44 29t-66 17q-34 0 -47 -16t-15 -36z" />
    <glyph glyph-name="h" unicode="h" horiz-adv-x="544" 
d="M236 673l-27 -219q23 16 63 34t96 18q60 0 96.5 -33t36.5 -84v-7t-1 -10l-42 -346q-1 -13 -8 -19.5t-20 -6.5h-81q-11 0 -17 6.5t-5 19.5l38 313q1 6 1 9v6q0 19 -11 28.5t-38 9.5q-37 0 -70.5 -16.5t-50.5 -28.5l-39 -321q-1 -13 -7.5 -19.5t-19.5 -6.5h-84
q-10 0 -16 6.5t-5 19.5l80 647q1 13 7.5 19.5t19.5 6.5h84q13 0 17 -6.5t3 -19.5z" />
    <glyph glyph-name="hcircumflex" unicode="&#x125;" horiz-adv-x="544" 
d="M236 673l-27 -219q23 16 63 34t96 18q60 0 96.5 -33t36.5 -84v-7t-1 -10l-42 -346q-1 -13 -8 -19.5t-20 -6.5h-81q-11 0 -17 6.5t-5 19.5l38 313q1 6 1 9v6q0 19 -11 28.5t-38 9.5q-37 0 -70.5 -16.5t-50.5 -28.5l-39 -321q-1 -13 -7.5 -19.5t-19.5 -6.5h-84
q-10 0 -16 6.5t-5 19.5l80 647q1 13 7.5 19.5t19.5 6.5h84q13 0 17 -6.5t3 -19.5zM188 800l-31 -45q-6 -8 -15 -16.5t-22 -8.5h-65q-13 0 -16 7.5t6 17.5l85 98q9 10 19.5 17.5t23.5 7.5h47q13 0 21 -7.5t15 -17.5l62 -98q7 -10 1.5 -17.5t-18.5 -7.5h-62q-13 0 -20.5 7.5
t-11.5 17.5z" />
    <glyph glyph-name="i" unicode="i" horiz-adv-x="246" 
d="M236 673l-11 -86q-1 -13 -7 -18.5t-19 -5.5h-84q-13 0 -17.5 5.5t-3.5 18.5l11 86q1 13 7.5 19.5t19.5 6.5h84q13 0 17 -6.5t3 -19.5zM212 473l-55 -447q-1 -13 -7.5 -19.5t-19.5 -6.5h-84q-13 0 -17.5 6.5t-3.5 19.5l56 447q1 13 7 19t19 6h83q13 0 18 -6t4 -19z" />
    <glyph glyph-name="igrave" unicode="&#xec;" horiz-adv-x="246" 
d="M212 473l-55 -448q-1 -13 -7.5 -19t-19.5 -6h-83q-13 0 -17.5 6t-3.5 19l55 448q1 13 7.5 19t19.5 6h84q13 0 17 -6t3 -19zM95 577l-60 106q-6 10 -1.5 17.5t17.5 7.5h85q13 0 20 -7t11 -18l37 -98q5 -13 -0.5 -19t-16.5 -6h-62q-13 0 -20 5.5t-10 11.5z" />
    <glyph glyph-name="iacute" unicode="&#xed;" horiz-adv-x="247" 
d="M306 683l-85 -106q-4 -5 -12.5 -11t-21.5 -6h-67q-11 0 -14.5 6t4.5 19l60 98q7 10 15.5 17.5t21.5 7.5h90q13 0 15.5 -7.5t-6.5 -17.5zM212 473l-55 -448q-1 -13 -7.5 -19t-19.5 -6h-83q-13 0 -17.5 6t-3.5 19l55 448q1 13 7.5 19t19.5 6h84q13 0 17 -6t3 -19z" />
    <glyph glyph-name="icircumflex" unicode="&#xee;" horiz-adv-x="247" 
d="M167 630l-30 -45q-6 -9 -15.5 -17t-22.5 -8h-64q-13 0 -16 7.5t6 17.5l84 98q9 11 19.5 18t23.5 7h48q13 0 21 -7.5t15 -17.5l61 -98q7 -10 1.5 -17.5t-18.5 -7.5h-62q-13 0 -20 8t-11 17zM212 473l-55 -448q-1 -13 -7.5 -19t-19.5 -6h-83q-13 0 -17.5 6t-3.5 19l55 448
q1 13 7.5 19t19.5 6h84q13 0 17 -6t3 -19z" />
    <glyph glyph-name="idieresis" unicode="&#xef;" horiz-adv-x="247" 
d="M293 681l-12 -93q-1 -13 -7.5 -19t-19.5 -6h-48q-13 0 -17.5 6t-3.5 19l11 93q1 13 8 19t20 6h48q13 0 17.5 -6t3.5 -19zM153 681l-11 -93q-1 -13 -7.5 -19t-19.5 -6h-49q-13 0 -17.5 6t-3.5 19l11 93q1 13 8 19t20 6h49q13 0 17 -6t3 -19zM212 473l-55 -448
q-1 -13 -7.5 -19t-19.5 -6h-83q-13 0 -17.5 6t-3.5 19l55 448q1 13 7.5 19t19.5 6h84q13 0 17 -6t3 -19z" />
    <glyph glyph-name="itilde" unicode="&#x129;" horiz-adv-x="247" 
d="M212 473l-55 -448q-1 -13 -7.5 -19t-19.5 -6h-83q-13 0 -17.5 6t-3.5 19l55 448q1 13 7.5 19t19.5 6h84q13 0 17 -6t3 -19zM101 607q-9 0 -13 -5t-7 -15l-3 -10q-4 -13 -11 -17.5t-18 -4.5h-42q-13 0 -16.5 8t-0.5 21l9 42q8 37 34.5 57t60.5 20q15 0 31 -3.5t29 -10.5
l40 -21q10 -5 18.5 -9t14.5 -4q10 0 14 5t8 18l2 6q4 12 10 17t19 5h44q13 0 17 -8t1 -21l-9 -38q-10 -40 -34 -59t-55 -19q-25 0 -39 3.5t-27 10.5l-43 21q-10 5 -18.5 8t-15.5 3z" />
    <glyph glyph-name="imacron" unicode="&#x12b;" horiz-adv-x="247" 
d="M212 473l-55 -448q-1 -13 -7.5 -19t-19.5 -6h-83q-13 0 -17.5 6t-3.5 19l55 448q1 13 7.5 19t19.5 6h84q13 0 17 -6t3 -19zM56 671h231q13 0 18 -5.5t4 -18.5l-6 -51q-1 -13 -8 -18.5t-20 -5.5h-231q-13 0 -18 5.5t-4 18.5l6 51q1 13 8 18.5t20 5.5z" />
    <glyph glyph-name="ibreve" unicode="&#x12d;" horiz-adv-x="247" 
d="M212 473l-55 -448q-1 -13 -7.5 -19t-19.5 -6h-83q-13 0 -17.5 6t-3.5 19l55 448q1 13 7.5 19t19.5 6h84q13 0 17 -6t3 -19zM123 685l-1 -10q-1 -7 -1 -11v-5q0 -16 9 -25.5t32 -9.5q27 0 38 12.5t12 32.5l1 16q1 12 7 16.5t18 4.5h50q12 0 16 -5t3 -16l-1 -13
q-4 -57 -40.5 -91t-108.5 -34q-59 0 -95 26.5t-36 75.5v9.5t1 11.5l2 15q1 11 7 16t18 5h50q11 0 15.5 -4.5t3.5 -16.5z" />
    <glyph glyph-name="iogonek" unicode="&#x12f;" horiz-adv-x="252" 
d="M241 673l-11 -86q-1 -13 -7 -18.5t-19 -5.5h-84q-13 0 -17.5 5.5t-3.5 18.5l11 86q1 13 7.5 19.5t19.5 6.5h84q13 0 17 -6.5t3 -19.5zM217 473l-55 -447q-1 -13 -7.5 -19.5t-19.5 -6.5h-22q-25 0 -36.5 -18.5t-11.5 -41.5q0 -15 9 -21.5t28 -6.5h24q13 0 20.5 -5.5
t5.5 -18.5l-5 -34q-2 -13 -10.5 -19t-21.5 -6h-52q-25 0 -61 15.5t-36 67.5q0 23 11.5 58.5t54.5 72.5l54 430q1 13 7 19t19 6h83q13 0 18 -6t4 -19z" />
    <glyph glyph-name="j" unicode="j" horiz-adv-x="246" 
d="M236 673l-10 -86q-1 -13 -7 -18.5t-19 -5.5h-83q-13 0 -18 5.5t-4 18.5l10 86q1 13 8 19.5t20 6.5h83q13 0 17 -6.5t3 -19.5zM212 473l-65 -527q-9 -71 -62 -109t-165 -38h-13q-13 0 -18.5 5.5t-4.5 18.5l7 58q1 13 8.5 19.5t20.5 6.5h9q41 0 63 13t26 41l63 512
q1 13 7.5 19t19.5 6h83q13 0 17.5 -6t3.5 -19z" />
    <glyph glyph-name="jcircumflex" unicode="&#x135;" horiz-adv-x="247" 
d="M212 473l-65 -527q-9 -71 -62 -109t-165 -38h-13q-13 0 -18.5 5.5t-4.5 18.5l7 57q1 13 8.5 19.5t20.5 6.5h9q41 0 63 13t26 41l63 513q1 13 7.5 19t19.5 6h83q13 0 17.5 -6t3.5 -19zM164 630l-30 -45q-6 -9 -15.5 -17t-22.5 -8h-64q-13 0 -16 7.5t6 17.5l84 98
q9 11 19.5 18t23.5 7h48q13 0 21 -7.5t15 -17.5l61 -98q7 -10 1.5 -17.5t-18.5 -7.5h-62q-13 0 -20 8t-11 17z" />
    <glyph glyph-name="k" unicode="k" horiz-adv-x="502" 
d="M130 0h-83q-13 0 -17.5 6t-3.5 19l79 649q1 13 8 19t20 6h83q13 0 17 -6t3 -19l-42 -346h19l137 145q9 10 19 17.5t23 7.5h98q13 0 15 -8.5t-6 -16.5l-184 -189l143 -259q4 -9 0.5 -17t-16.5 -8h-95q-13 0 -21 7.5t-13 17.5l-109 204h-22l-25 -204q-1 -13 -7.5 -19
t-19.5 -6z" />
    <glyph glyph-name="kcommaaccent" unicode="&#x137;" horiz-adv-x="502" 
d="M162 -106l4 31q1 13 7.5 19t19.5 6h62q13 0 17 -6t3 -19l-5 -38q-6 -46 -22 -74.5t-38 -58.5q-8 -11 -16.5 -13t-17.5 0l-45 11q-12 3 -13.5 12t5.5 21q19 32 26.5 51t12.5 58zM130 0h-83q-13 0 -17.5 6t-3.5 19l79 649q1 13 8 19t20 6h83q13 0 17 -6t3 -19l-42 -346h19
l137 145q9 10 19 17.5t23 7.5h98q13 0 15 -8.5t-6 -16.5l-184 -189l143 -259q4 -9 0.5 -17t-16.5 -8h-95q-13 0 -21 7.5t-13 17.5l-109 204h-22l-25 -204q-1 -13 -7.5 -19t-19.5 -6z" />
    <glyph glyph-name="l" unicode="l" horiz-adv-x="246" 
d="M236 673l-79 -647q-1 -13 -7.5 -19.5t-19.5 -6.5h-84q-13 0 -17.5 6.5t-3.5 19.5l80 647q1 13 7.5 19.5t19.5 6.5h84q13 0 17 -6.5t3 -19.5z" />
    <glyph glyph-name="lacute" unicode="&#x13a;" horiz-adv-x="246" 
d="M328 853l-85 -106q-4 -6 -13 -11.5t-22 -5.5h-67q-11 0 -14.5 6t4.5 19l61 98q7 10 15.5 17.5t21.5 7.5h89q13 0 15.5 -7.5t-5.5 -17.5zM236 673l-79 -647q-1 -13 -7.5 -19.5t-19.5 -6.5h-84q-13 0 -17.5 6.5t-3.5 19.5l80 647q1 13 7.5 19.5t19.5 6.5h84q13 0 17 -6.5
t3 -19.5z" />
    <glyph glyph-name="lcommaaccent" unicode="&#x13c;" horiz-adv-x="246" 
d="M23 -106l4 31q1 13 7.5 19t19.5 6h62q13 0 17 -6t3 -19l-5 -38q-6 -46 -22 -74.5t-38 -58.5q-8 -11 -16.5 -13t-17.5 0l-45 11q-12 3 -13.5 12t5.5 21q19 32 26.5 51t12.5 58zM236 673l-79 -647q-1 -13 -7.5 -19.5t-19.5 -6.5h-84q-13 0 -17.5 6.5t-3.5 19.5l80 647
q1 13 7.5 19.5t19.5 6.5h84q13 0 17 -6.5t3 -19.5z" />
    <glyph glyph-name="lcaron" unicode="&#x13e;" horiz-adv-x="269" 
d="M298 685l4 31q1 13 7.5 19t19.5 6h62q13 0 17 -6t3 -19l-5 -38q-6 -46 -22 -74.5t-38 -58.5q-8 -11 -16.5 -13t-17.5 0l-45 11q-12 3 -13.5 12t5.5 21q19 32 26.5 51t12.5 58zM236 673l-79 -647q-1 -13 -7.5 -19.5t-19.5 -6.5h-84q-13 0 -17.5 6.5t-3.5 19.5l80 647
q1 13 7.5 19.5t19.5 6.5h84q13 0 17 -6.5t3 -19.5z" />
    <glyph glyph-name="m" unicode="m" horiz-adv-x="833" 
d="M25 26l56 448q1 13 7 18.5t19 5.5h78q13 0 17.5 -5.5t3.5 -18.5l-1 -24q22 17 58.5 36.5t98.5 19.5q44 0 78 -18t46 -49q20 16 59 41.5t112 25.5q60 0 97 -32t37 -82v-8.5t-1 -11.5l-43 -346q-1 -13 -7.5 -19.5t-19.5 -6.5h-82q-10 0 -16.5 6.5t-5.5 19.5l37 306
q1 7 1.5 12.5t0.5 9.5q0 19 -11.5 28.5t-36.5 9.5q-38 0 -69 -16.5t-47 -28.5l-39 -321q-1 -13 -8 -19.5t-20 -6.5h-81q-11 0 -17 6.5t-5 19.5l38 312q1 6 1 9.5v6.5q0 19 -11.5 28.5t-36.5 9.5q-37 0 -68.5 -16t-47.5 -29l-39 -321q-1 -13 -7.5 -19.5t-19.5 -6.5h-84
q-10 0 -16 6.5t-5 19.5z" />
    <glyph glyph-name="n" unicode="n" horiz-adv-x="544" 
d="M107 498h78q13 0 18 -5.5t4 -18.5l-1 -24q22 17 62.5 36.5t99.5 19.5q60 0 96.5 -33t36.5 -84q0 -4 -0.5 -11t-1.5 -13l-41 -339q-1 -13 -8 -19.5t-20 -6.5h-81q-11 0 -17.5 5t-4.5 21l37 306q1 6 1.5 12.5t0.5 9.5q0 19 -11 28.5t-37 9.5q-38 0 -71.5 -16.5t-50.5 -28.5
l-39 -321q-1 -13 -7.5 -19.5t-19.5 -6.5h-84q-10 0 -16 5.5t-5 20.5l56 448q1 13 7 18.5t19 5.5z" />
    <glyph glyph-name="ntilde" unicode="&#xf1;" horiz-adv-x="544" 
d="M107 498h78q13 0 18 -5.5t4 -18.5l-1 -24q22 17 62.5 36.5t99.5 19.5q60 0 96.5 -33t36.5 -84q0 -4 -0.5 -11t-1.5 -13l-41 -339q-1 -13 -8 -19.5t-20 -6.5h-81q-11 0 -17.5 5t-4.5 21l37 306q1 6 1.5 12.5t0.5 9.5q0 19 -11 28.5t-37 9.5q-38 0 -71.5 -16.5t-50.5 -28.5
l-39 -321q-1 -13 -7.5 -19.5t-19.5 -6.5h-84q-10 0 -16 5.5t-5 20.5l56 448q1 13 7 18.5t19 5.5zM250 607q-9 0 -13 -5t-7 -15l-3 -10q-4 -13 -11 -17.5t-18 -4.5h-42q-13 0 -16.5 8t-0.5 21l9 42q8 37 34.5 57t60.5 20q15 0 31 -3.5t29 -10.5l40 -21q10 -5 18.5 -9t14.5 -4
q10 0 14 5t8 18l2 6q4 12 10 17t19 5h44q13 0 17 -8t1 -21l-9 -38q-10 -40 -34 -59t-55 -19q-25 0 -39 3.5t-27 10.5l-43 21q-10 5 -18.5 8t-15.5 3z" />
    <glyph glyph-name="nacute" unicode="&#x144;" horiz-adv-x="544" 
d="M458 683l-85 -106q-4 -5 -12.5 -11t-21.5 -6h-67q-11 0 -14.5 6t4.5 19l60 98q7 10 15.5 17.5t21.5 7.5h90q13 0 15.5 -7.5t-6.5 -17.5zM107 498h78q13 0 18 -5.5t4 -18.5l-1 -24q22 17 62.5 36.5t99.5 19.5q60 0 96.5 -33t36.5 -84q0 -4 -0.5 -11t-1.5 -13l-41 -339
q-1 -13 -8 -19.5t-20 -6.5h-81q-11 0 -17.5 5t-4.5 21l37 306q1 6 1.5 12.5t0.5 9.5q0 19 -11 28.5t-37 9.5q-38 0 -71.5 -16.5t-50.5 -28.5l-39 -321q-1 -13 -7.5 -19.5t-19.5 -6.5h-84q-10 0 -16 5.5t-5 20.5l56 448q1 13 7 18.5t19 5.5z" />
    <glyph glyph-name="ncommaaccent" unicode="&#x146;" horiz-adv-x="544" 
d="M168 -106l4 31q1 13 7.5 19t19.5 6h62q13 0 17 -6t3 -19l-5 -38q-6 -46 -22 -74.5t-38 -58.5q-8 -11 -16.5 -13t-17.5 0l-45 11q-12 3 -13.5 12t5.5 21q19 32 26.5 51t12.5 58zM107 498h78q13 0 18 -5.5t4 -18.5l-1 -24q22 17 62.5 36.5t99.5 19.5q60 0 96.5 -33
t36.5 -84q0 -4 -0.5 -11t-1.5 -13l-41 -339q-1 -13 -8 -19.5t-20 -6.5h-81q-11 0 -17.5 5t-4.5 21l37 306q1 6 1.5 12.5t0.5 9.5q0 19 -11 28.5t-37 9.5q-38 0 -71.5 -16.5t-50.5 -28.5l-39 -321q-1 -13 -7.5 -19.5t-19.5 -6.5h-84q-10 0 -16 5.5t-5 20.5l56 448
q1 13 7 18.5t19 5.5z" />
    <glyph glyph-name="ncaron" unicode="&#x148;" horiz-adv-x="544" 
d="M294 684l19 -46l31 46q6 9 15 16.5t22 7.5h65q13 0 16 -7t-6 -17l-85 -99q-9 -10 -19.5 -17.5t-23.5 -7.5h-47q-13 0 -21 7.5t-15 18.5l-62 98q-6 10 -1 17t18 7h63q13 0 20 -7.5t11 -16.5zM107 498h78q13 0 18 -5.5t4 -18.5l-1 -24q22 17 62.5 36.5t99.5 19.5
q60 0 96.5 -33t36.5 -84q0 -4 -0.5 -11t-1.5 -13l-41 -339q-1 -13 -8 -19.5t-20 -6.5h-81q-11 0 -17.5 5t-4.5 21l37 306q1 6 1.5 12.5t0.5 9.5q0 19 -11 28.5t-37 9.5q-38 0 -71.5 -16.5t-50.5 -28.5l-39 -321q-1 -13 -7.5 -19.5t-19.5 -6.5h-84q-10 0 -16 5.5t-5 20.5
l56 448q1 13 7 18.5t19 5.5z" />
    <glyph glyph-name="o" unicode="o" horiz-adv-x="529" 
d="M30 140l27 219q8 66 63 106.5t168 40.5q98 0 150 -35t52 -94v-7.5t-1 -10.5l-27 -219q-8 -67 -62.5 -107.5t-167.5 -40.5q-99 0 -151 35.5t-52 95.5v7t1 10zM333 151l22 181q1 11 2 17t1 7q0 25 -22 35.5t-57 10.5q-42 0 -65.5 -13t-26.5 -41l-22 -181q-1 -5 -2 -13.5
t-1 -11.5q0 -25 20.5 -35.5t58.5 -10.5q42 0 65 13.5t27 41.5z" />
    <glyph glyph-name="ograve" unicode="&#xf2;" horiz-adv-x="529" 
d="M30 140l27 219q8 66 63 106.5t168 40.5q98 0 150 -35t52 -94v-7.5t-1 -10.5l-27 -219q-8 -67 -62.5 -107.5t-167.5 -40.5q-99 0 -151 35.5t-52 95.5v7t1 10zM333 151l22 181q1 11 2 17t1 7q0 25 -22 35.5t-57 10.5q-42 0 -65.5 -13t-26.5 -41l-22 -181q-1 -5 -2 -13.5
t-1 -11.5q0 -25 20.5 -35.5t58.5 -10.5q42 0 65 13.5t27 41.5zM238 577l-60 106q-6 10 -1.5 17.5t17.5 7.5h85q13 0 20 -7t11 -18l37 -98q5 -13 -0.5 -19t-16.5 -6h-62q-13 0 -20 5.5t-10 11.5z" />
    <glyph glyph-name="oacute" unicode="&#xf3;" horiz-adv-x="529" 
d="M438 683l-85 -106q-4 -5 -12.5 -11t-21.5 -6h-67q-11 0 -14.5 6t4.5 19l60 98q7 10 15.5 17.5t21.5 7.5h90q13 0 15.5 -7.5t-6.5 -17.5zM30 140l27 219q8 66 63 106.5t168 40.5q98 0 150 -35t52 -94v-7.5t-1 -10.5l-27 -219q-8 -67 -62.5 -107.5t-167.5 -40.5
q-99 0 -151 35.5t-52 95.5v7t1 10zM333 151l22 181q1 11 2 17t1 7q0 25 -22 35.5t-57 10.5q-42 0 -65.5 -13t-26.5 -41l-22 -181q-1 -5 -2 -13.5t-1 -11.5q0 -25 20.5 -35.5t58.5 -10.5q42 0 65 13.5t27 41.5z" />
    <glyph glyph-name="ocircumflex" unicode="&#xf4;" horiz-adv-x="529" 
d="M307 630l-30 -45q-6 -9 -15.5 -17t-22.5 -8h-64q-13 0 -16 7.5t6 17.5l84 98q9 11 19.5 18t23.5 7h48q13 0 21 -7.5t15 -17.5l61 -98q7 -10 1.5 -17.5t-18.5 -7.5h-62q-13 0 -20 8t-11 17zM30 140l27 219q8 66 63 106.5t168 40.5q98 0 150 -35t52 -94v-7.5t-1 -10.5
l-27 -219q-8 -67 -62.5 -107.5t-167.5 -40.5q-99 0 -151 35.5t-52 95.5v7t1 10zM333 151l22 181q1 11 2 17t1 7q0 25 -22 35.5t-57 10.5q-42 0 -65.5 -13t-26.5 -41l-22 -181q-1 -5 -2 -13.5t-1 -11.5q0 -25 20.5 -35.5t58.5 -10.5q42 0 65 13.5t27 41.5z" />
    <glyph glyph-name="otilde" unicode="&#xf5;" horiz-adv-x="529" 
d="M30 140l27 219q8 66 63 106.5t168 40.5q98 0 150 -35t52 -94v-7.5t-1 -10.5l-27 -219q-8 -67 -62.5 -107.5t-167.5 -40.5q-99 0 -151 35.5t-52 95.5v7t1 10zM333 151l22 181q1 11 2 17t1 7q0 25 -22 35.5t-57 10.5q-42 0 -65.5 -13t-26.5 -41l-22 -181q-1 -5 -2 -13.5
t-1 -11.5q0 -25 20.5 -35.5t58.5 -10.5q42 0 65 13.5t27 41.5zM228 607q-9 0 -13 -5t-7 -15l-3 -10q-4 -13 -11 -17.5t-18 -4.5h-42q-13 0 -16.5 8t-0.5 21l9 42q8 37 34.5 57t60.5 20q15 0 31 -3.5t29 -10.5l40 -21q10 -5 18.5 -9t14.5 -4q10 0 14 5t8 18l2 6q4 12 10 17
t19 5h44q13 0 17 -8t1 -21l-9 -38q-10 -40 -34 -59t-55 -19q-25 0 -39 3.5t-27 10.5l-43 21q-10 5 -18.5 8t-15.5 3z" />
    <glyph glyph-name="odieresis" unicode="&#xf6;" horiz-adv-x="529" 
d="M430 681l-12 -93q-1 -13 -7.5 -19t-19.5 -6h-48q-13 0 -17.5 6t-3.5 19l11 93q1 13 8 19t20 6h48q13 0 17.5 -6t3.5 -19zM290 681l-11 -93q-1 -13 -7.5 -19t-19.5 -6h-49q-13 0 -17.5 6t-3.5 19l11 93q1 13 8 19t20 6h49q13 0 17 -6t3 -19zM30 140l27 219q8 66 63 106.5
t168 40.5q98 0 150 -35t52 -94v-7.5t-1 -10.5l-27 -219q-8 -67 -62.5 -107.5t-167.5 -40.5q-99 0 -151 35.5t-52 95.5v7t1 10zM333 151l22 181q1 11 2 17t1 7q0 25 -22 35.5t-57 10.5q-42 0 -65.5 -13t-26.5 -41l-22 -181q-1 -5 -2 -13.5t-1 -11.5q0 -25 20.5 -35.5
t58.5 -10.5q42 0 65 13.5t27 41.5z" />
    <glyph glyph-name="omacron" unicode="&#x14d;" horiz-adv-x="529" 
d="M196 671h231q13 0 18 -5.5t4 -18.5l-6 -51q-1 -13 -8 -18.5t-20 -5.5h-231q-13 0 -18 5.5t-4 18.5l6 51q1 13 8 18.5t20 5.5zM30 140l27 219q8 66 63 106.5t168 40.5q98 0 150 -35t52 -94v-7.5t-1 -10.5l-27 -219q-8 -67 -62.5 -107.5t-167.5 -40.5q-99 0 -151 35.5
t-52 95.5v7t1 10zM333 151l22 181q1 11 2 17t1 7q0 25 -22 35.5t-57 10.5q-42 0 -65.5 -13t-26.5 -41l-22 -181q-1 -5 -2 -13.5t-1 -11.5q0 -25 20.5 -35.5t58.5 -10.5q42 0 65 13.5t27 41.5z" />
    <glyph glyph-name="obreve" unicode="&#x14f;" horiz-adv-x="529" 
d="M30 140l27 219q8 66 63 106.5t168 40.5q98 0 150 -35t52 -94v-7.5t-1 -10.5l-27 -219q-8 -67 -62.5 -107.5t-167.5 -40.5q-99 0 -151 35.5t-52 95.5v7t1 10zM333 151l22 181q1 11 2 17t1 7q0 25 -22 35.5t-57 10.5q-42 0 -65.5 -13t-26.5 -41l-22 -181q-1 -5 -2 -13.5
t-1 -11.5q0 -25 20.5 -35.5t58.5 -10.5q42 0 65 13.5t27 41.5zM267 685l-1 -10q-1 -7 -1 -11v-5q0 -16 9 -25.5t32 -9.5q27 0 38 12.5t12 32.5l1 16q1 12 7 16.5t18 4.5h50q12 0 16 -5t3 -16l-1 -13q-4 -57 -40.5 -91t-108.5 -34q-59 0 -95 26.5t-36 75.5v9.5t1 11.5l2 15
q1 11 7 16t18 5h50q11 0 15.5 -4.5t3.5 -16.5z" />
    <glyph glyph-name="ohungarumlaut" unicode="&#x151;" horiz-adv-x="529" 
d="M351 683l-66 -98q-7 -11 -15 -18t-21 -7h-61q-13 0 -17 6.5t3 18.5l54 98q7 12 15.5 18.5t21.5 6.5h73q13 0 16.5 -7.5t-3.5 -17.5zM512 683l-81 -99q-7 -9 -17 -16.5t-23 -7.5h-61q-13 0 -15.5 6.5t5.5 18.5l69 98q8 11 18 18t23 7h73q13 0 15.5 -7.5t-6.5 -17.5z
M30 140l27 219q8 66 63 106.5t168 40.5q98 0 150 -35t52 -94v-7.5t-1 -10.5l-27 -219q-8 -67 -62.5 -107.5t-167.5 -40.5q-99 0 -151 35.5t-52 95.5v7t1 10zM333 151l22 181q1 11 2 17t1 7q0 25 -22 35.5t-57 10.5q-42 0 -65.5 -13t-26.5 -41l-22 -181q-1 -5 -2 -13.5
t-1 -11.5q0 -25 20.5 -35.5t58.5 -10.5q42 0 65 13.5t27 41.5z" />
    <glyph glyph-name="p" unicode="p" horiz-adv-x="540" 
d="M343 158l21 176q1 7 1.5 12t0.5 9q0 16 -10.5 26.5t-37.5 10.5q-38 0 -71.5 -17t-49.5 -29l-25 -195q14 -11 43.5 -28t66.5 -17q34 0 46.5 16t14.5 36zM107 498h78q13 0 18 -6t4 -19l-2 -24q23 16 63 36.5t100 20.5q64 0 98.5 -32.5t34.5 -89.5q0 -4 -0.5 -10.5
t-1.5 -13.5l-27 -222q-8 -66 -44.5 -106t-114.5 -40q-55 0 -95 18.5t-59 34.5l-27 -221q-1 -13 -7.5 -19t-19.5 -6h-83q-10 0 -16.5 5t-5.5 20l81 649q1 13 7 19t19 6z" />
    <glyph glyph-name="q" unicode="q" horiz-adv-x="540" 
d="M406 498h78q13 0 17.5 -7t3.5 -18l-80 -649q-1 -13 -7.5 -19t-19.5 -6h-83q-14 0 -18 7.5t-3 17.5l27 221q-23 -16 -61 -34.5t-97 -18.5q-65 0 -99 33t-34 88q0 6 0.5 12.5t1.5 12.5l27 222q8 66 44.5 106t114.5 40q59 0 98 -20.5t58 -36.5l5 24q3 13 8.5 19t18.5 6z
M187 340l-21 -174q-1 -6 -1.5 -11.5t-0.5 -9.5q0 -16 10.5 -27.5t38.5 -11.5q37 0 70.5 17t50.5 28l25 195q-15 12 -44 29t-66 17q-34 0 -47 -16t-15 -36z" />
    <glyph glyph-name="r" unicode="r" horiz-adv-x="370" 
d="M359 506q13 0 18.5 -6t4.5 -19l-8 -64q-1 -13 -8.5 -18.5t-20.5 -6.5q-51 -4 -91.5 -24t-58.5 -35l-38 -307q-1 -13 -7.5 -19.5t-19.5 -6.5h-84q-13 0 -17.5 6.5t-3.5 19.5l56 448q1 13 7 18.5t19 5.5h78q13 0 18 -5.5t4 -18.5l-2 -35q22 21 59.5 44t94.5 23z" />
    <glyph glyph-name="racute" unicode="&#x155;" horiz-adv-x="370" 
d="M370 683l-85 -106q-4 -5 -12.5 -11t-21.5 -6h-67q-11 0 -14.5 6t4.5 19l60 98q7 10 15.5 17.5t21.5 7.5h90q13 0 15.5 -7.5t-6.5 -17.5zM359 506q13 0 18.5 -6t4.5 -19l-8 -64q-1 -13 -8.5 -18.5t-20.5 -6.5q-51 -4 -91.5 -24t-58.5 -35l-38 -307q-1 -13 -7.5 -19.5
t-19.5 -6.5h-84q-13 0 -17.5 6.5t-3.5 19.5l56 448q1 13 7 18.5t19 5.5h78q13 0 18 -5.5t4 -18.5l-2 -35q22 21 59.5 44t94.5 23z" />
    <glyph glyph-name="rcommaaccent" unicode="&#x157;" horiz-adv-x="370" 
d="M20 -106l4 31q1 13 7.5 19t19.5 6h62q13 0 17 -6t3 -19l-5 -38q-6 -46 -22 -74.5t-38 -58.5q-8 -11 -16.5 -13t-17.5 0l-45 11q-12 3 -13.5 12t5.5 21q19 32 26.5 51t12.5 58zM359 506q13 0 18.5 -6t4.5 -19l-8 -64q-1 -13 -8.5 -18.5t-20.5 -6.5q-51 -4 -91.5 -24
t-58.5 -35l-38 -307q-1 -13 -7.5 -19.5t-19.5 -6.5h-84q-13 0 -17.5 6.5t-3.5 19.5l56 448q1 13 7 18.5t19 5.5h78q13 0 18 -5.5t4 -18.5l-2 -35q22 21 59.5 44t94.5 23z" />
    <glyph glyph-name="rcaron" unicode="&#x159;" horiz-adv-x="370" 
d="M207 684l19 -46l31 46q6 9 15 16.5t22 7.5h65q13 0 16 -7t-6 -17l-85 -99q-9 -10 -19.5 -17.5t-23.5 -7.5h-47q-13 0 -21 7.5t-15 18.5l-62 98q-6 10 -1 17t18 7h63q13 0 20 -7.5t11 -16.5zM359 506q13 0 18.5 -6t4.5 -19l-8 -64q-1 -13 -8.5 -18.5t-20.5 -6.5
q-51 -4 -91.5 -24t-58.5 -35l-38 -307q-1 -13 -7.5 -19.5t-19.5 -6.5h-84q-13 0 -17.5 6.5t-3.5 19.5l56 448q1 13 7 18.5t19 5.5h78q13 0 18 -5.5t4 -18.5l-2 -35q22 21 59.5 44t94.5 23z" />
    <glyph glyph-name="s" unicode="s" horiz-adv-x="476" 
d="M318 354l1 12q1 7 1 10v4q0 18 -18.5 26t-48.5 8q-32 0 -53.5 -7.5t-23.5 -30.5l-1 -9q-1 -7 -1 -8.5v-2.5q0 -11 5.5 -19t20.5 -13l139 -48q41 -14 62 -39t21 -53v-6t-1 -11l-6 -53q-5 -48 -53 -85t-158 -37q-100 0 -145.5 34.5t-45.5 77.5v5.5t1 12.5l2 22q1 12 7 17.5
t19 5.5h75q11 0 15.5 -5t3.5 -18l-1 -8q-1 -7 -1 -11v-5q0 -19 22 -27t53 -8q34 0 59 8.5t28 31.5l2 15q2 14 -7 24t-33 19l-137 50q-31 11 -49.5 36.5t-18.5 58.5v5.5t1 12.5l4 33q6 48 48.5 87.5t152.5 39.5q96 0 139 -37t43 -82v-5.5t-1 -10.5l-2 -17q-1 -13 -7 -18
t-19 -5h-74q-12 0 -16.5 5.5t-3.5 17.5z" />
    <glyph glyph-name="sacute" unicode="&#x15b;" horiz-adv-x="477" 
d="M412 683l-85 -106q-4 -5 -12.5 -11t-21.5 -6h-67q-11 0 -14.5 6t4.5 19l60 98q7 10 15.5 17.5t21.5 7.5h90q13 0 15.5 -7.5t-6.5 -17.5zM318 354l1 12q1 7 1 10v4q0 18 -18.5 26t-48.5 8q-32 0 -53.5 -7.5t-23.5 -30.5l-1 -9q-1 -7 -1 -8.5v-2.5q0 -11 5.5 -19t20.5 -13
l139 -48q41 -14 62 -39t21 -53v-6t-1 -11l-6 -53q-5 -48 -53 -85t-158 -37q-100 0 -145.5 34.5t-45.5 77.5v5.5t1 12.5l2 22q1 12 7 17.5t19 5.5h75q11 0 15.5 -5t3.5 -18l-1 -8q-1 -7 -1 -11v-5q0 -19 22 -27t53 -8q34 0 59 8.5t28 31.5l2 15q2 14 -7 24t-33 19l-137 50
q-31 11 -49.5 36.5t-18.5 58.5v5.5t1 12.5l4 33q6 48 48.5 87.5t152.5 39.5q96 0 139 -37t43 -82v-5.5t-1 -10.5l-2 -17q-1 -13 -7 -18t-19 -5h-74q-12 0 -16.5 5.5t-3.5 17.5z" />
    <glyph glyph-name="scircumflex" unicode="&#x15d;" horiz-adv-x="477" 
d="M273 630l-30 -45q-6 -9 -15.5 -17t-22.5 -8h-64q-13 0 -16 7.5t6 17.5l84 98q9 11 19.5 18t23.5 7h48q13 0 21 -7.5t15 -17.5l61 -98q7 -10 1.5 -17.5t-18.5 -7.5h-62q-13 0 -20 8t-11 17zM318 354l1 12q1 7 1 10v4q0 18 -18.5 26t-48.5 8q-32 0 -53.5 -7.5t-23.5 -30.5
l-1 -9q-1 -7 -1 -8.5v-2.5q0 -11 5.5 -19t20.5 -13l139 -48q41 -14 62 -39t21 -53v-6t-1 -11l-6 -53q-5 -48 -53 -85t-158 -37q-100 0 -145.5 34.5t-45.5 77.5v5.5t1 12.5l2 22q1 12 7 17.5t19 5.5h75q11 0 15.5 -5t3.5 -18l-1 -8q-1 -7 -1 -11v-5q0 -19 22 -27t53 -8
q34 0 59 8.5t28 31.5l2 15q2 14 -7 24t-33 19l-137 50q-31 11 -49.5 36.5t-18.5 58.5v5.5t1 12.5l4 33q6 48 48.5 87.5t152.5 39.5q96 0 139 -37t43 -82v-5.5t-1 -10.5l-2 -17q-1 -13 -7 -18t-19 -5h-74q-12 0 -16.5 5.5t-3.5 17.5z" />
    <glyph glyph-name="scedilla" unicode="&#x15f;" horiz-adv-x="477" 
d="M230 -211h-120q-14 0 -18 7t-3 18l2 20q1 13 7.5 18.5t19.5 5.5h98q10 0 15.5 4t5.5 13q0 8 -5.5 11t-12.5 3h-73q-17 0 -25.5 8t-1.5 25l30 74q-71 10 -103.5 41t-32.5 67v5.5t1 12.5l2 22q1 12 7 17.5t19 5.5h75q11 0 15.5 -5t3.5 -18l-1 -8q-1 -7 -1 -11v-5
q0 -19 22 -27t53 -8q34 0 59 8.5t28 31.5l2 15q2 14 -7 24t-33 19l-137 50q-31 11 -49.5 36.5t-18.5 58.5v5.5t1 12.5l4 33q6 48 48.5 87.5t152.5 39.5q96 0 139 -37t43 -82v-5.5t-1 -10.5l-2 -17q-1 -13 -7 -18t-19 -5h-74q-12 0 -16.5 5.5t-3.5 17.5l1 12q1 7 1 10v4
q0 18 -18.5 26t-48.5 8q-32 0 -53.5 -7.5t-23.5 -30.5l-1 -9q-1 -7 -1 -8.5v-2.5q0 -11 5.5 -19t20.5 -13l139 -48q41 -14 62 -39t21 -53v-6t-1 -11l-6 -53q-4 -44 -45.5 -79.5t-134.5 -41.5l-15 -38h31q34 0 55.5 -19t21.5 -53q0 -48 -28 -71t-70 -23z" />
    <glyph glyph-name="scaron" unicode="&#x161;" horiz-adv-x="477" 
d="M246 684l19 -46l31 46q6 9 15 16.5t22 7.5h65q13 0 16 -7t-6 -17l-85 -99q-9 -10 -19.5 -17.5t-23.5 -7.5h-47q-13 0 -21 7.5t-15 18.5l-62 98q-6 10 -1 17t18 7h63q13 0 20 -7.5t11 -16.5zM318 354l1 12q1 7 1 10v4q0 18 -18.5 26t-48.5 8q-32 0 -53.5 -7.5t-23.5 -30.5
l-1 -9q-1 -7 -1 -8.5v-2.5q0 -11 5.5 -19t20.5 -13l139 -48q41 -14 62 -39t21 -53v-6t-1 -11l-6 -53q-5 -48 -53 -85t-158 -37q-100 0 -145.5 34.5t-45.5 77.5v5.5t1 12.5l2 22q1 12 7 17.5t19 5.5h75q11 0 15.5 -5t3.5 -18l-1 -8q-1 -7 -1 -11v-5q0 -19 22 -27t53 -8
q34 0 59 8.5t28 31.5l2 15q2 14 -7 24t-33 19l-137 50q-31 11 -49.5 36.5t-18.5 58.5v5.5t1 12.5l4 33q6 48 48.5 87.5t152.5 39.5q96 0 139 -37t43 -82v-5.5t-1 -10.5l-2 -17q-1 -13 -7 -18t-19 -5h-74q-12 0 -16.5 5.5t-3.5 17.5z" />
    <glyph glyph-name="scommaaccent" unicode="&#x219;" horiz-adv-x="476" 
d="M144 -105l4 31q1 13 7.5 19t19.5 6h62q13 0 17 -6t3 -19l-5 -38q-6 -46 -22 -74.5t-38 -58.5q-8 -11 -16.5 -13t-17.5 0l-45 11q-12 3 -13.5 12t5.5 21q19 32 26.5 51t12.5 58zM318 354l1 12q1 7 1 10v4q0 18 -18.5 26t-48.5 8q-32 0 -53.5 -7.5t-23.5 -30.5l-1 -9
q-1 -7 -1 -8.5v-2.5q0 -11 5.5 -19t20.5 -13l139 -48q41 -14 62 -39t21 -53v-6t-1 -11l-6 -53q-5 -48 -53 -85t-158 -37q-100 0 -145.5 34.5t-45.5 77.5v5.5t1 12.5l2 22q1 12 7 17.5t19 5.5h75q11 0 15.5 -5t3.5 -18l-1 -8q-1 -7 -1 -11v-5q0 -19 22 -27t53 -8q34 0 59 8.5
t28 31.5l2 15q2 14 -7 24t-33 19l-137 50q-31 11 -49.5 36.5t-18.5 58.5v5.5t1 12.5l4 33q6 48 48.5 87.5t152.5 39.5q96 0 139 -37t43 -82v-5.5t-1 -10.5l-2 -17q-1 -13 -7 -18t-19 -5h-74q-12 0 -16.5 5.5t-3.5 17.5z" />
    <glyph glyph-name="t" unicode="t" horiz-adv-x="364" 
d="M233 392l-28 -223q-1 -6 -1 -10.5v-7.5q0 -23 16.5 -33t57.5 -10h22q13 0 18 -7t4 -18l-7 -58q-1 -13 -8 -19t-20 -6h-42q-96 0 -135.5 30.5t-39.5 87.5q0 7 0.5 15t1.5 15l29 244h-49q-13 0 -17.5 6.5t-3.5 18.5l6 50q1 13 8 18t20 6l48 5h1l12 96q1 13 8 19t20 6h83
q13 0 17 -6.5t3 -18.5l-11 -96h91q13 0 17.5 -6.5t3.5 -16.5l-6 -56q-1 -13 -8.5 -19t-20.5 -6h-90z" />
    <glyph glyph-name="tcommaaccent" unicode="&#x163;" horiz-adv-x="362" 
d="M73 -106l4 31q1 13 7.5 19t19.5 6h62q13 0 17 -6t3 -19l-5 -38q-6 -46 -22 -74.5t-38 -58.5q-8 -11 -16.5 -13t-17.5 0l-45 11q-12 3 -13.5 12t5.5 21q19 32 26.5 51t12.5 58zM233 392l-28 -223q-1 -6 -1 -10.5v-7.5q0 -23 16.5 -33t57.5 -10h22q13 0 18 -7t4 -18l-7 -58
q-1 -13 -8 -19t-20 -6h-42q-96 0 -135.5 30.5t-39.5 87.5q0 7 0.5 15t1.5 15l29 244h-49q-13 0 -17.5 6.5t-3.5 18.5l6 50q1 13 8 18t20 6l48 5h1l12 96q1 13 8 19t20 6h83q13 0 17 -6.5t3 -18.5l-11 -96h91q13 0 17.5 -6.5t3.5 -16.5l-6 -56q-1 -13 -8.5 -19t-20.5 -6h-90z
" />
    <glyph glyph-name="tcaron" unicode="&#x165;" horiz-adv-x="363" 
d="M334 685l4 31q1 13 7.5 19t19.5 6h62q13 0 17 -6t3 -19l-5 -38q-6 -46 -22 -74.5t-38 -58.5q-8 -11 -16.5 -13t-17.5 0l-45 11q-12 3 -13.5 12t5.5 21q19 32 26.5 51t12.5 58zM233 392l-28 -223q-1 -6 -1 -10.5v-7.5q0 -23 16.5 -33t57.5 -10h22q13 0 18 -7t4 -18l-7 -58
q-1 -13 -8 -19t-20 -6h-42q-96 0 -135.5 30.5t-39.5 87.5q0 7 0.5 15t1.5 15l29 244h-49q-13 0 -17.5 6.5t-3.5 18.5l6 50q1 13 8 18t20 6l48 5h1l12 96q1 13 8 19t20 6h83q13 0 17 -6.5t3 -18.5l-11 -96h91q13 0 17.5 -6.5t3.5 -16.5l-6 -56q-1 -13 -8.5 -19t-20.5 -6h-90z
" />
    <glyph glyph-name="u" unicode="u" horiz-adv-x="538" 
d="M322 25l1 22q-22 -17 -60 -36t-97 -19q-61 0 -97 32.5t-36 83.5v7.5t1 10.5l43 347q1 13 7.5 19t19.5 6h82q10 0 16.5 -5t5.5 -20l-38 -314q-1 -6 -1 -9v-7q0 -19 10.5 -28t37.5 -9q36 0 67.5 16t48.5 28l39 323q1 13 7.5 19t19.5 6h83q14 0 18 -6.5t3 -18.5l-55 -448
q-1 -13 -8 -19t-20 -6h-76q-13 0 -18 5.5t-4 19.5z" />
    <glyph glyph-name="ugrave" unicode="&#xf9;" horiz-adv-x="538" 
d="M322 25l1 22q-22 -17 -60 -36t-97 -19q-61 0 -97 32.5t-36 83.5v7.5t1 10.5l43 347q1 13 7.5 19t19.5 6h82q10 0 16.5 -5t5.5 -20l-38 -314q-1 -6 -1 -9v-7q0 -19 10.5 -28t37.5 -9q36 0 67.5 16t48.5 28l39 323q1 13 7.5 19t19.5 6h83q14 0 18 -6.5t3 -18.5l-55 -448
q-1 -13 -8 -19t-20 -6h-76q-13 0 -18 5.5t-4 19.5zM239 577l-60 106q-6 10 -1.5 17.5t17.5 7.5h85q13 0 20 -7t11 -18l37 -98q5 -13 -0.5 -19t-16.5 -6h-62q-13 0 -20 5.5t-10 11.5z" />
    <glyph glyph-name="uacute" unicode="&#xfa;" horiz-adv-x="538" 
d="M447 683l-85 -106q-4 -5 -12.5 -11t-21.5 -6h-67q-11 0 -14.5 6t4.5 19l60 98q7 10 15.5 17.5t21.5 7.5h90q13 0 15.5 -7.5t-6.5 -17.5zM322 25l1 22q-22 -17 -60 -36t-97 -19q-61 0 -97 32.5t-36 83.5v7.5t1 10.5l43 347q1 13 7.5 19t19.5 6h82q10 0 16.5 -5t5.5 -20
l-38 -314q-1 -6 -1 -9v-7q0 -19 10.5 -28t37.5 -9q36 0 67.5 16t48.5 28l39 323q1 13 7.5 19t19.5 6h83q14 0 18 -6.5t3 -18.5l-55 -448q-1 -13 -8 -19t-20 -6h-76q-13 0 -18 5.5t-4 19.5z" />
    <glyph glyph-name="ucircumflex" unicode="&#xfb;" horiz-adv-x="538" 
d="M308 630l-30 -45q-6 -9 -15.5 -17t-22.5 -8h-64q-13 0 -16 7.5t6 17.5l84 98q9 11 19.5 18t23.5 7h48q13 0 21 -7.5t15 -17.5l61 -98q7 -10 1.5 -17.5t-18.5 -7.5h-62q-13 0 -20 8t-11 17zM322 25l1 22q-22 -17 -60 -36t-97 -19q-61 0 -97 32.5t-36 83.5v7.5t1 10.5
l43 347q1 13 7.5 19t19.5 6h82q10 0 16.5 -5t5.5 -20l-38 -314q-1 -6 -1 -9v-7q0 -19 10.5 -28t37.5 -9q36 0 67.5 16t48.5 28l39 323q1 13 7.5 19t19.5 6h83q14 0 18 -6.5t3 -18.5l-55 -448q-1 -13 -8 -19t-20 -6h-76q-13 0 -18 5.5t-4 19.5z" />
    <glyph glyph-name="udieresis" unicode="&#xfc;" horiz-adv-x="538" 
d="M432 681l-12 -93q-1 -13 -7.5 -19t-19.5 -6h-48q-13 0 -17.5 6t-3.5 19l11 93q1 13 8 19t20 6h48q13 0 17.5 -6t3.5 -19zM292 681l-11 -93q-1 -13 -7.5 -19t-19.5 -6h-49q-13 0 -17.5 6t-3.5 19l11 93q1 13 8 19t20 6h49q13 0 17 -6t3 -19zM322 25l1 22q-22 -17 -60 -36
t-97 -19q-61 0 -97 32.5t-36 83.5v7.5t1 10.5l43 347q1 13 7.5 19t19.5 6h82q10 0 16.5 -5t5.5 -20l-38 -314q-1 -6 -1 -9v-7q0 -19 10.5 -28t37.5 -9q36 0 67.5 16t48.5 28l39 323q1 13 7.5 19t19.5 6h83q14 0 18 -6.5t3 -18.5l-55 -448q-1 -13 -8 -19t-20 -6h-76
q-13 0 -18 5.5t-4 19.5z" />
    <glyph glyph-name="utilde" unicode="&#x169;" horiz-adv-x="538" 
d="M322 25l1 22q-22 -17 -60 -36t-97 -19q-61 0 -97 32.5t-36 83.5v7.5t1 10.5l43 347q1 13 7.5 19t19.5 6h82q10 0 16.5 -5t5.5 -20l-38 -314q-1 -6 -1 -9v-7q0 -19 10.5 -28t37.5 -9q36 0 67.5 16t48.5 28l39 323q1 13 7.5 19t19.5 6h83q14 0 18 -6.5t3 -18.5l-55 -448
q-1 -13 -8 -19t-20 -6h-76q-13 0 -18 5.5t-4 19.5zM242 607q-9 0 -13 -5t-7 -15l-3 -10q-4 -13 -11 -17.5t-18 -4.5h-42q-13 0 -16.5 8t-0.5 21l9 42q8 37 34.5 57t60.5 20q15 0 31 -3.5t29 -10.5l40 -21q10 -5 18.5 -9t14.5 -4q10 0 14 5t8 18l2 6q4 12 10 17t19 5h44
q13 0 17 -8t1 -21l-9 -38q-10 -40 -34 -59t-55 -19q-25 0 -39 3.5t-27 10.5l-43 21q-10 5 -18.5 8t-15.5 3z" />
    <glyph glyph-name="umacron" unicode="&#x16b;" horiz-adv-x="538" 
d="M322 25l1 22q-22 -17 -60 -36t-97 -19q-61 0 -97 32.5t-36 83.5v7.5t1 10.5l43 347q1 13 7.5 19t19.5 6h82q10 0 16.5 -5t5.5 -20l-38 -314q-1 -6 -1 -9v-7q0 -19 10.5 -28t37.5 -9q36 0 67.5 16t48.5 28l39 323q1 13 7.5 19t19.5 6h83q14 0 18 -6.5t3 -18.5l-55 -448
q-1 -13 -8 -19t-20 -6h-76q-13 0 -18 5.5t-4 19.5zM196 671h231q13 0 18 -5.5t4 -18.5l-6 -51q-1 -13 -8 -18.5t-20 -5.5h-231q-13 0 -18 5.5t-4 18.5l6 51q1 13 8 18.5t20 5.5z" />
    <glyph glyph-name="ubreve" unicode="&#x16d;" horiz-adv-x="538" 
d="M322 25l1 22q-22 -17 -60 -36t-97 -19q-61 0 -97 32.5t-36 83.5v7.5t1 10.5l43 347q1 13 7.5 19t19.5 6h82q10 0 16.5 -5t5.5 -20l-38 -314q-1 -6 -1 -9v-7q0 -19 10.5 -28t37.5 -9q36 0 67.5 16t48.5 28l39 323q1 13 7.5 19t19.5 6h83q14 0 18 -6.5t3 -18.5l-55 -448
q-1 -13 -8 -19t-20 -6h-76q-13 0 -18 5.5t-4 19.5zM265 685l-1 -10q-1 -7 -1 -11v-5q0 -16 9 -25.5t32 -9.5q27 0 38 12.5t12 32.5l1 16q1 12 7 16.5t18 4.5h50q12 0 16 -5t3 -16l-1 -13q-4 -57 -40.5 -91t-108.5 -34q-59 0 -95 26.5t-36 75.5v9.5t1 11.5l2 15q1 11 7 16
t18 5h50q11 0 15.5 -4.5t3.5 -16.5z" />
    <glyph glyph-name="uring" unicode="&#x16f;" horiz-adv-x="538" 
d="M423 650l-3 -30q-3 -31 -28 -53.5t-85 -22.5q-59 0 -85 22.5t-22 57.5l3 30q3 31 29 53.5t87 22.5q57 0 82.5 -22.5t21.5 -57.5zM351 629l1 15q1 16 -9 23t-29 7t-30.5 -7t-12.5 -23l-1 -15q-1 -16 9 -23t29 -7t30.5 7t12.5 23zM322 25l1 22q-22 -17 -60 -36t-97 -19
q-61 0 -97 32.5t-36 83.5v7.5t1 10.5l43 347q1 13 7.5 19t19.5 6h82q10 0 16.5 -5t5.5 -20l-38 -314q-1 -6 -1 -9v-7q0 -19 10.5 -28t37.5 -9q36 0 67.5 16t48.5 28l39 323q1 13 7.5 19t19.5 6h83q14 0 18 -6.5t3 -18.5l-55 -448q-1 -13 -8 -19t-20 -6h-76q-13 0 -18 5.5
t-4 19.5z" />
    <glyph glyph-name="uhungarumlaut" unicode="&#x171;" horiz-adv-x="538" 
d="M322 25l1 22q-22 -17 -60 -36t-97 -19q-61 0 -97 32.5t-36 83.5v7.5t1 10.5l43 347q1 13 7.5 19t19.5 6h82q10 0 16.5 -5t5.5 -20l-38 -314q-1 -6 -1 -9v-7q0 -19 10.5 -28t37.5 -9q36 0 67.5 16t48.5 28l39 323q1 13 7.5 19t19.5 6h83q14 0 18 -6.5t3 -18.5l-55 -448
q-1 -13 -8 -19t-20 -6h-76q-13 0 -18 5.5t-4 19.5zM352 683l-66 -98q-7 -11 -15 -18t-21 -7h-61q-13 0 -17 6.5t3 18.5l54 98q7 12 15.5 18.5t21.5 6.5h73q13 0 16.5 -7.5t-3.5 -17.5zM513 683l-81 -99q-7 -9 -17 -16.5t-23 -7.5h-61q-13 0 -15.5 6.5t5.5 18.5l69 98
q8 11 18 18t23 7h73q13 0 15.5 -7.5t-6.5 -17.5z" />
    <glyph glyph-name="uogonek" unicode="&#x173;" horiz-adv-x="538" 
d="M399 -171h-35q-28 0 -62 16.5t-34 67.5q0 17 8.5 48t46.5 64v22q-22 -17 -60 -36t-97 -19q-61 0 -97 32.5t-36 83.5v7.5t1 10.5l43 347q1 13 7.5 19t19.5 6h82q10 0 16.5 -5t5.5 -20l-38 -314q-1 -5 -1 -8.5v-7.5q0 -19 10.5 -28t37.5 -9q36 0 67.5 16t48.5 28l39 323
q1 13 7.5 19t19.5 6h83q14 0 18 -6.5t3 -18.5l-55 -448q-1 -13 -8 -19t-20 -6h-6q-22 0 -35.5 -17.5t-13.5 -40.5q0 -15 9 -22.5t30 -7.5h7q13 0 19.5 -5.5t5.5 -18.5l-4 -34q-1 -13 -10.5 -19t-22.5 -6z" />
    <glyph glyph-name="v" unicode="v" horiz-adv-x="479" 
d="M253 0h-95q-13 0 -16.5 5t-6.5 18l-98 450q-3 13 5.5 19t21.5 6h83q13 0 18 -7t7 -18l44 -227q5 -27 6.5 -57.5t1.5 -35.5q1 7 10 37.5t20 54.5l105 228q5 11 11.5 18t19.5 7h80q13 0 19.5 -6.5t0.5 -18.5l-209 -450q-6 -13 -10.5 -18t-17.5 -5z" />
    <glyph glyph-name="w" unicode="w" horiz-adv-x="722" 
d="M644 498h68q13 0 19.5 -6t1.5 -19l-184 -450q-5 -13 -10 -18t-18 -5h-99q-13 0 -17.5 6t-5.5 17l-26 237q-1 16 -2.5 32t-1.5 22q-1 -6 -6.5 -22.5t-11.5 -31.5l-99 -237q-4 -11 -9.5 -17t-18.5 -6h-97q-13 0 -17.5 5.5t-5.5 17.5l-66 450q-1 13 6.5 19t20.5 6h78
q13 0 18.5 -7t6.5 -18l36 -262q2 -15 2.5 -30t0.5 -19l6.5 19.5t10.5 29.5l105 262q4 11 11 18t20 7h80q13 0 18.5 -7t6.5 -18l28 -262q1 -13 2.5 -28.5t1.5 -19.5q1 3 5 17.5t11 30.5l101 262q4 11 10.5 18t19.5 7z" />
    <glyph glyph-name="wcircumflex" unicode="&#x175;" horiz-adv-x="722" 
d="M409 630l-30 -45q-6 -9 -15.5 -17t-22.5 -8h-64q-13 0 -16 7.5t6 17.5l84 98q9 11 19.5 18t23.5 7h48q13 0 21 -7.5t15 -17.5l61 -98q7 -10 1.5 -17.5t-18.5 -7.5h-62q-13 0 -20 8t-11 17zM644 498h68q13 0 19.5 -6t1.5 -19l-184 -450q-5 -13 -10 -18t-18 -5h-99
q-13 0 -17.5 6t-5.5 17l-26 237q-1 16 -2.5 32t-1.5 22q-1 -6 -6.5 -22.5t-11.5 -31.5l-99 -237q-4 -11 -9.5 -17t-18.5 -6h-97q-13 0 -17.5 5.5t-5.5 17.5l-66 450q-1 13 6.5 19t20.5 6h78q13 0 18.5 -7t6.5 -18l36 -262q2 -15 2.5 -30t0.5 -19l6.5 19.5t10.5 29.5l105 262
q4 11 11 18t20 7h80q13 0 18.5 -7t6.5 -18l28 -262q1 -13 2.5 -28.5t1.5 -19.5q1 3 5 17.5t11 30.5l101 262q4 11 10.5 18t19.5 7z" />
    <glyph glyph-name="wgrave" unicode="&#x1e81;" horiz-adv-x="723" 
d="M644 498h68q13 0 19.5 -6t1.5 -19l-184 -450q-5 -13 -10 -18t-18 -5h-99q-13 0 -17.5 6t-5.5 17l-26 237q-1 16 -2.5 32t-1.5 22q-1 -6 -6.5 -22.5t-11.5 -31.5l-99 -237q-4 -11 -9.5 -17t-18.5 -6h-97q-13 0 -17.5 5.5t-5.5 17.5l-66 450q-1 13 6.5 19t20.5 6h78
q13 0 18.5 -7t6.5 -18l36 -262q2 -15 2.5 -30t0.5 -19l6.5 19.5t10.5 29.5l105 262q4 11 11 18t20 7h80q13 0 18.5 -7t6.5 -18l28 -262q1 -13 2.5 -28.5t1.5 -19.5q1 3 5 17.5t11 30.5l101 262q4 11 10.5 18t19.5 7zM338 577l-60 106q-6 10 -1.5 17.5t17.5 7.5h85
q13 0 20 -7t11 -18l37 -98q5 -13 -0.5 -19t-16.5 -6h-62q-13 0 -20 5.5t-10 11.5z" />
    <glyph glyph-name="wacute" unicode="&#x1e83;" horiz-adv-x="723" 
d="M556 683l-85 -106q-4 -5 -12.5 -11t-21.5 -6h-67q-11 0 -14.5 6t4.5 19l60 98q7 10 15.5 17.5t21.5 7.5h90q13 0 15.5 -7.5t-6.5 -17.5zM644 498h68q13 0 19.5 -6t1.5 -19l-184 -450q-5 -13 -10 -18t-18 -5h-99q-13 0 -17.5 6t-5.5 17l-26 237q-1 16 -2.5 32t-1.5 22
q-1 -6 -6.5 -22.5t-11.5 -31.5l-99 -237q-4 -11 -9.5 -17t-18.5 -6h-97q-13 0 -17.5 5.5t-5.5 17.5l-66 450q-1 13 6.5 19t20.5 6h78q13 0 18.5 -7t6.5 -18l36 -262q2 -15 2.5 -30t0.5 -19l6.5 19.5t10.5 29.5l105 262q4 11 11 18t20 7h80q13 0 18.5 -7t6.5 -18l28 -262
q1 -13 2.5 -28.5t1.5 -19.5q1 3 5 17.5t11 30.5l101 262q4 11 10.5 18t19.5 7z" />
    <glyph glyph-name="wdieresis" unicode="&#x1e85;" horiz-adv-x="723" 
d="M529 681l-12 -93q-1 -13 -7.5 -19t-19.5 -6h-48q-13 0 -17.5 6t-3.5 19l11 93q1 13 8 19t20 6h48q13 0 17.5 -6t3.5 -19zM389 681l-11 -93q-1 -13 -7.5 -19t-19.5 -6h-49q-13 0 -17.5 6t-3.5 19l11 93q1 13 8 19t20 6h49q13 0 17 -6t3 -19zM644 498h68q13 0 19.5 -6
t1.5 -19l-184 -450q-5 -13 -10 -18t-18 -5h-99q-13 0 -17.5 6t-5.5 17l-26 237q-1 16 -2.5 32t-1.5 22q-1 -6 -6.5 -22.5t-11.5 -31.5l-99 -237q-4 -11 -9.5 -17t-18.5 -6h-97q-13 0 -17.5 5.5t-5.5 17.5l-66 450q-1 13 6.5 19t20.5 6h78q13 0 18.5 -7t6.5 -18l36 -262
q2 -15 2.5 -30t0.5 -19l6.5 19.5t10.5 29.5l105 262q4 11 11 18t20 7h80q13 0 18.5 -7t6.5 -18l28 -262q1 -13 2.5 -28.5t1.5 -19.5q1 3 5 17.5t11 30.5l101 262q4 11 10.5 18t19.5 7z" />
    <glyph glyph-name="x" unicode="x" horiz-adv-x="488" 
d="M156 498q13 0 20 -7.5t13 -17.5l71 -128l95 128q8 10 17.5 17.5t22.5 7.5h83q13 0 14.5 -7.5t-6.5 -17.5l-176 -223l123 -224q5 -10 1 -18t-17 -8h-89q-13 0 -20 8t-12 17l-75 136l-104 -136q-7 -9 -17 -17t-23 -8h-81q-12 0 -14 8t5 17l182 231l-118 217
q-5 10 -1.5 17.5t17.5 7.5h89z" />
    <glyph glyph-name="y" unicode="y" horiz-adv-x="478" 
d="M490 473l-300 -649q-4 -10 -11.5 -17.5t-20.5 -7.5h-62q-13 0 -19 6t-1 19l69 163l-109 486q-3 12 6 18.5t22 6.5h82q13 0 17.5 -7t6.5 -18l47 -229q4 -19 6.5 -42.5t1.5 -42.5q9 26 16.5 47t13.5 34l106 233q5 12 12 18.5t20 6.5h76q13 0 20 -6t1 -19z" />
    <glyph glyph-name="yacute" unicode="&#xfd;" horiz-adv-x="478" 
d="M490 473l-300 -649q-4 -10 -11.5 -17.5t-20.5 -7.5h-62q-13 0 -19 6t-1 19l69 163l-109 486q-3 12 6 18.5t22 6.5h82q13 0 17.5 -7t6.5 -18l47 -229q4 -19 6.5 -42.5t1.5 -42.5q9 26 16.5 47t13.5 34l106 233q5 12 12 18.5t20 6.5h76q13 0 20 -6t1 -19zM421 683l-85 -106
q-4 -5 -12.5 -11t-21.5 -6h-67q-11 0 -14.5 6t4.5 19l60 98q7 10 15.5 17.5t21.5 7.5h90q13 0 15.5 -7.5t-6.5 -17.5z" />
    <glyph glyph-name="ydieresis" unicode="&#xff;" horiz-adv-x="478" 
d="M490 473l-300 -649q-4 -10 -11.5 -17.5t-20.5 -7.5h-62q-13 0 -19 6t-1 19l69 163l-109 486q-3 12 6 18.5t22 6.5h82q13 0 17.5 -7t6.5 -18l47 -229q4 -19 6.5 -42.5t1.5 -42.5q9 26 16.5 47t13.5 34l106 233q5 12 12 18.5t20 6.5h76q13 0 20 -6t1 -19zM397 681l-12 -93
q-1 -13 -7.5 -19t-19.5 -6h-48q-13 0 -17.5 6t-3.5 19l11 93q1 13 8 19t20 6h48q13 0 17.5 -6t3.5 -19zM257 681l-11 -93q-1 -13 -7.5 -19t-19.5 -6h-49q-13 0 -17.5 6t-3.5 19l11 93q1 13 8 19t20 6h49q13 0 17 -6t3 -19z" />
    <glyph glyph-name="ycircumflex" unicode="&#x177;" horiz-adv-x="478" 
d="M490 473l-300 -649q-4 -10 -11.5 -17.5t-20.5 -7.5h-62q-13 0 -19 6t-1 19l69 163l-109 486q-3 12 6 18.5t22 6.5h82q13 0 17.5 -7t6.5 -18l47 -229q4 -19 6.5 -42.5t1.5 -42.5q9 26 16.5 47t13.5 34l106 233q5 12 12 18.5t20 6.5h76q13 0 20 -6t1 -19zM279 630l-30 -45
q-6 -9 -15.5 -17t-22.5 -8h-64q-13 0 -16 7.5t6 17.5l84 98q9 11 19.5 18t23.5 7h48q13 0 21 -7.5t15 -17.5l61 -98q7 -10 1.5 -17.5t-18.5 -7.5h-62q-13 0 -20 8t-11 17z" />
    <glyph glyph-name="ygrave" unicode="&#x1ef3;" horiz-adv-x="478" 
d="M490 473l-300 -649q-4 -10 -11.5 -17.5t-20.5 -7.5h-62q-13 0 -19 6t-1 19l69 163l-109 486q-3 12 6 18.5t22 6.5h82q13 0 17.5 -7t6.5 -18l47 -229q4 -19 6.5 -42.5t1.5 -42.5q9 26 16.5 47t13.5 34l106 233q5 12 12 18.5t20 6.5h76q13 0 20 -6t1 -19zM204 577l-60 106
q-6 10 -1.5 17.5t17.5 7.5h85q13 0 20 -7t11 -18l37 -98q5 -13 -0.5 -19t-16.5 -6h-62q-13 0 -20 5.5t-10 11.5z" />
    <glyph glyph-name="z" unicode="z" horiz-adv-x="444" 
d="M97 498h303q13 0 18 -5t4 -18l-7 -59q-1 -5 -3 -10.5t-5 -8.5l-242 -290h205q13 0 18 -5.5t4 -18.5l-7 -59q-1 -13 -8.5 -18.5t-20.5 -5.5h-338q-13 0 -17.5 5.5t-3.5 18.5l7 59q1 7 3 11.5t4 7.5l241 289h-169q-13 0 -18 5.5t-4 18.5l7 59q1 13 8.5 18.5t20.5 5.5z" />
    <glyph glyph-name="zacute" unicode="&#x17a;" horiz-adv-x="444" 
d="M393 683l-85 -106q-4 -5 -12.5 -11t-21.5 -6h-67q-11 0 -14.5 6t4.5 19l60 98q7 10 15.5 17.5t21.5 7.5h90q13 0 15.5 -7.5t-6.5 -17.5zM97 498h303q13 0 18 -5t4 -18l-7 -59q-1 -5 -3 -10.5t-5 -8.5l-242 -290h205q13 0 18 -5.5t4 -18.5l-7 -59q-1 -13 -8.5 -18.5
t-20.5 -5.5h-338q-13 0 -17.5 5.5t-3.5 18.5l7 59q1 7 3 11.5t4 7.5l241 289h-169q-13 0 -18 5.5t-4 18.5l7 59q1 13 8.5 18.5t20.5 5.5z" />
    <glyph glyph-name="zdotaccent" unicode="&#x17c;" horiz-adv-x="444" 
d="M97 498h303q13 0 18 -5t4 -18l-7 -59q-1 -5 -3 -10.5t-5 -8.5l-242 -290h205q13 0 18 -5.5t4 -18.5l-7 -59q-1 -13 -8.5 -18.5t-20.5 -5.5h-338q-13 0 -17.5 5.5t-3.5 18.5l7 59q1 7 3 11.5t4 7.5l241 289h-169q-13 0 -18 5.5t-4 18.5l7 59q1 13 8.5 18.5t20.5 5.5z
M334 677l-10 -81q-1 -13 -7 -19t-19 -6h-86q-13 0 -17.5 6t-3.5 19l10 81q1 13 7.5 19t19.5 6h86q13 0 17 -6t3 -19z" />
    <glyph glyph-name="zcaron" unicode="&#x17e;" horiz-adv-x="444" 
d="M231 684l19 -46l31 46q6 9 15 16.5t22 7.5h65q13 0 16 -7t-6 -17l-85 -99q-9 -10 -19.5 -17.5t-23.5 -7.5h-47q-13 0 -21 7.5t-15 18.5l-62 98q-6 10 -1 17t18 7h63q13 0 20 -7.5t11 -16.5zM97 498h303q13 0 18 -5t4 -18l-7 -59q-1 -5 -3 -10.5t-5 -8.5l-242 -290h205
q13 0 18 -5.5t4 -18.5l-7 -59q-1 -13 -8.5 -18.5t-20.5 -5.5h-338q-13 0 -17.5 5.5t-3.5 18.5l7 59q1 7 3 11.5t4 7.5l241 289h-169q-13 0 -18 5.5t-4 18.5l7 59q1 13 8.5 18.5t20.5 5.5z" />
    <glyph glyph-name="ordfeminine" unicode="&#xaa;" horiz-adv-x="396" 
d="M186 580l-11 -87q-1 -6 -1 -10v-7q0 -10 6 -16.5t21 -6.5q19 0 36 12t22 16l12 101q-4 5 -17 16.5t-34 11.5q-19 0 -26 -9t-8 -21zM252 411q-13 -10 -35.5 -22t-59.5 -12q-39 0 -64 20t-25 54v7t1 10l16 131q5 40 32 64.5t74 24.5q33 0 58 -7.5t53 2.5h69q6 0 9.5 -3.5
t2.5 -12.5l-32 -269q-1 -8 -5.5 -12t-11.5 -4h-69q-7 0 -10 4t-3 12v13z" />
    <glyph glyph-name="ordmasculine" unicode="&#xba;" horiz-adv-x="373" 
d="M68 482l14 110q6 44 41 70t107 26q60 0 97 -23t37 -62q0 -3 -0.5 -8.5t-1.5 -12.5l-13 -110q-5 -43 -41 -69t-107 -26q-62 0 -98.5 23t-36.5 61q0 2 0.5 9.5t1.5 11.5zM247 481l11 92q1 7 1.5 11t0.5 6q0 11 -10.5 15.5t-25.5 4.5q-16 0 -27.5 -5.5t-12.5 -18.5l-12 -94
q-1 -7 -1 -11v-5q0 -12 10.5 -17t25.5 -5q16 0 27.5 6t12.5 21z" />
    <glyph glyph-name="germandbls" unicode="&#xdf;" horiz-adv-x="644" 
d="M260 554l-65 -528q-1 -13 -7.5 -19.5t-19.5 -6.5h-83q-13 0 -17.5 6.5t-3.5 19.5l45 366h-54q-11 0 -17 6t-5 19l6 50q1 13 8 18t20 6l53 5h1l8 64q8 67 66 107.5t177 40.5q104 0 155.5 -35t51.5 -92q0 -4 -0.5 -10t-1.5 -12l-4 -34q-4 -34 -27.5 -58t-51.5 -36l-71 -29
q-10 -4 -20 -10t-10 -17v-4q0 -13 11 -20.5t16 -9.5l110 -53q27 -13 51.5 -37t24.5 -58v-5t-1 -11l-5 -43q-7 -63 -47.5 -102.5t-144.5 -39.5q-88 0 -123.5 30.5t-35.5 81.5v6t1 14l1 12q1 13 8.5 19t20.5 6h56q14 0 18 -6.5t3 -18.5l-1 -11q-1 -7 -1 -9v-3q0 -18 13.5 -28
t44.5 -10q33 0 47.5 13t18.5 38l4 28q3 19 -9.5 29.5t-23.5 15.5l-102 45q-28 13 -50 40t-16 71l3 23q4 35 25.5 56.5t49.5 32.5l48 19q19 7 31.5 19t13.5 28l2 19q1 6 1 8v3q0 24 -21.5 38.5t-70.5 14.5q-52 0 -76 -17t-28 -45z" />
    <glyph glyph-name="ae" unicode="&#xe6;" horiz-adv-x="780" 
d="M742 359l-13 -116q-1 -12 -7.5 -17.5t-18.5 -5.5h-256l-9 -72q-1 -7 -1 -10v-4q0 -22 17 -33t56 -11q43 0 61 13.5t22 37.5l2 10q2 13 8 19t19 6h70q10 0 16.5 -5.5t4.5 -19.5l-2 -14q-9 -64 -52.5 -104.5t-156.5 -40.5q-66 0 -110 16.5t-64 46.5q-22 -19 -63 -41
t-104 -22t-103.5 28.5t-40.5 79.5v5.5t1 11.5l5 47q5 50 46 87t120 37h137l8 60q1 7 1 10.5v6.5q0 22 -16 33.5t-53 11.5q-43 0 -61.5 -11.5t-20.5 -38.5l-1 -11q-1 -13 -8 -19t-20 -6h-73q-11 0 -17 5t-5 20l1 14q4 65 54 104t159 39q51 0 83 -12t50 -31q22 19 58 31t91 12
q96 0 141.5 -35t45.5 -92v-8t-1 -12zM463 353l-6 -45h157l5 37q1 7 1 11.5v5.5q0 22 -17 34t-56 12q-42 0 -61 -15t-23 -40zM193 95q34 0 65 16t50 29l7 56h-113q-28 0 -39 -13t-13 -30l-2 -15q-1 -6 -1 -8v-5q0 -16 13.5 -23t32.5 -7z" />
    <glyph glyph-name="aeacute" unicode="&#x1fd;" horiz-adv-x="780" 
d="M567 683l-85 -106q-4 -5 -12.5 -11t-21.5 -6h-67q-11 0 -14.5 6t4.5 19l60 98q7 10 15.5 17.5t21.5 7.5h90q13 0 15.5 -7.5t-6.5 -17.5zM742 359l-13 -116q-1 -12 -7.5 -17.5t-18.5 -5.5h-256l-9 -72q-1 -7 -1 -10v-4q0 -22 17 -33t56 -11q43 0 61 13.5t22 37.5l2 10
q2 13 8 19t19 6h70q10 0 16.5 -5.5t4.5 -19.5l-2 -14q-9 -64 -52.5 -104.5t-156.5 -40.5q-66 0 -110 16.5t-64 46.5q-22 -19 -63 -41t-104 -22t-103.5 28.5t-40.5 79.5v5.5t1 11.5l5 47q5 50 46 87t120 37h137l8 60q1 7 1 10.5v6.5q0 22 -16 33.5t-53 11.5
q-43 0 -61.5 -11.5t-20.5 -38.5l-1 -11q-1 -13 -8 -19t-20 -6h-73q-11 0 -17 5t-5 20l1 14q4 65 54 104t159 39q51 0 83 -12t50 -31q22 19 58 31t91 12q96 0 141.5 -35t45.5 -92v-8t-1 -12zM463 353l-6 -45h157l5 37q1 7 1 11.5v5.5q0 22 -17 34t-56 12q-42 0 -61 -15
t-23 -40zM193 95q34 0 65 16t50 29l7 56h-113q-28 0 -39 -13t-13 -30l-2 -15q-1 -6 -1 -8v-5q0 -16 13.5 -23t32.5 -7z" />
    <glyph glyph-name="eth" unicode="&#xf0;" horiz-adv-x="529" 
d="M317 582l47 23q-9 6 -23 8.5t-33 2.5h-97q-10 0 -16.5 5t-5.5 20l5 42q1 13 8 18.5t20 5.5h98q55 0 94 -11.5t61 -31.5l46 24q9 4 18.5 3t14.5 -12l7 -15q4 -10 1 -17.5t-15 -14.5l-41 -22q1 -6 2 -13.5t1 -14.5v-11t-1 -11l-52 -421q-8 -66 -58.5 -106.5t-163.5 -40.5
q-99 0 -151.5 35.5t-52.5 94.5v6.5t1 10.5l27 221q8 66 45 106t114 40q57 0 96 -19t58 -35l12 94l-41 -20q-9 -4 -17 -3.5t-15 12.5l-8 15q-5 10 0 18.5t15 13.5zM334 150l25 197q-15 12 -44 29t-66 17q-35 0 -47.5 -16.5t-14.5 -36.5l-23 -190q-1 -5 -1 -7.5v-3.5
q0 -21 20 -32.5t59 -11.5q42 0 65 13.5t27 41.5z" />
    <glyph glyph-name="oslash" unicode="&#xf8;" horiz-adv-x="529" 
d="M187 348l-22 -184l153 234q-8 2 -18 3t-21 1q-42 0 -65 -13t-27 -41zM241 96q42 0 65 13.5t27 41.5l23 184l-155 -235q8 -2 18.5 -3t21.5 -1zM131 -8q-10 -16 -18.5 -23t-24.5 -7h-32q-13 0 -11.5 10.5t7.5 19.5l25 38q-24 17 -36 41t-12 52v7.5t1 9.5l27 219
q8 66 63 106.5t168 40.5q27 0 50.5 -3t43.5 -8l8 13q7 11 16 20.5t23 9.5h35q13 0 13 -9t-8 -21l-26 -40q23 -16 35 -39.5t12 -51.5v-8.5t-1 -9.5l-27 -219q-8 -67 -62.5 -107.5t-167.5 -40.5q-27 0 -50.5 3t-43.5 8z" />
    <glyph glyph-name="oslashacute" unicode="&#x1ff;" horiz-adv-x="529" 
d="M187 348l-22 -184l153 234q-8 2 -18 3t-21 1q-42 0 -65 -13t-27 -41zM241 96q42 0 65 13.5t27 41.5l23 184l-155 -235q8 -2 18.5 -3t21.5 -1zM131 -8q-10 -16 -18.5 -23t-24.5 -7h-32q-13 0 -11.5 10.5t7.5 19.5l25 38q-24 17 -36 41t-12 52v7.5t1 9.5l27 219
q8 66 63 106.5t168 40.5q27 0 50.5 -3t43.5 -8l8 13q7 11 16 20.5t23 9.5h35q13 0 13 -9t-8 -21l-26 -40q23 -16 35 -39.5t12 -51.5v-8.5t-1 -9.5l-27 -219q-8 -67 -62.5 -107.5t-167.5 -40.5q-27 0 -50.5 3t-43.5 8zM444 683l-85 -106q-4 -5 -12.5 -11t-21.5 -6h-67
q-11 0 -14.5 6t4.5 19l60 98q7 10 15.5 17.5t21.5 7.5h90q13 0 15.5 -7.5t-6.5 -17.5z" />
    <glyph glyph-name="thorn" unicode="&#xfe;" horiz-adv-x="541" 
d="M283 105q34 0 46.5 16.5t14.5 36.5l23 181q1 6 1 8.5v6.5q0 16 -11 27.5t-39 11.5q-37 0 -70.5 -17t-49.5 -29l-25 -196q14 -12 43 -29t67 -17zM160 45l-27 -221q-1 -13 -7 -19t-19 -6h-84q-10 0 -16.5 5t-5.5 20l105 850q1 13 8 19t20 6h82q13 0 17.5 -6.5t3.5 -18.5
l-27 -222q23 16 62 35t97 19q64 0 98.5 -32.5t34.5 -88.5q0 -6 -0.5 -12.5t-1.5 -13.5l-27 -221q-8 -66 -45 -106t-114 -40q-58 0 -96.5 18.5t-57.5 34.5z" />
    <glyph glyph-name="dcroat" unicode="&#x111;" horiz-adv-x="541" 
d="M188 340l-22 -176q-1 -6 -1.5 -11t-0.5 -9q0 -16 10.5 -27t38.5 -11q37 0 70.5 17t50.5 28l25 195q-15 12 -44 29t-66 17q-34 0 -46.5 -16t-14.5 -36zM325 48q-24 -16 -62 -36t-101 -20q-64 0 -98 32.5t-34 87.5q0 6 0.5 13t1.5 13l27 222q8 66 44.5 106t114.5 40
q54 0 94 -19t59 -35l11 89h-85q-13 0 -18 5.5t-4 18.5l5 43q1 13 8 18.5t20 5.5h85l5 41q1 13 7.5 19.5t19.5 6.5h84q13 0 17.5 -6.5t3.5 -19.5l-5 -41h32q13 0 19 -5.5t4 -18.5l-6 -43q-2 -13 -8.5 -18.5t-19.5 -5.5h-32l-64 -515q-1 -13 -7.5 -19.5t-19.5 -6.5h-78
q-13 0 -17.5 6.5t-3.5 19.5z" />
    <glyph glyph-name="hbar" unicode="&#x127;" horiz-adv-x="544" 
d="M157 26q-1 -13 -7.5 -19.5t-19.5 -6.5h-84q-10 0 -16 6.5t-5 19.5l64 515h-37q-13 0 -18.5 5.5t-4.5 18.5l5 43q1 13 8 18.5t20 5.5h38l5 41q1 13 7.5 19.5t19.5 6.5h84q13 0 17 -6.5t3 -19.5l-5 -41h80q13 0 19 -5.5t4 -18.5l-6 -43q-2 -13 -8 -18.5t-19 -5.5h-81
l-11 -87q23 16 63 34t96 18q60 0 96.5 -33t36.5 -84v-7t-1 -10l-42 -346q-1 -13 -8 -19.5t-20 -6.5h-81q-11 0 -17 6.5t-5 19.5l38 313q1 6 1 9v6q0 19 -11 28.5t-38 9.5q-37 0 -70.5 -16.5t-50.5 -28.5z" />
    <glyph glyph-name="dotlessi" unicode="&#x131;" horiz-adv-x="246" 
d="M212 473l-55 -448q-1 -13 -7.5 -19t-19.5 -6h-83q-13 0 -17.5 6t-3.5 19l55 448q1 13 7.5 19t19.5 6h84q13 0 17 -6t3 -19z" />
    <glyph glyph-name="ij" unicode="&#x133;" horiz-adv-x="496" 
d="M236 673l-11 -86q-1 -13 -7 -18.5t-19 -5.5h-84q-13 0 -17.5 5.5t-3.5 18.5l11 86q1 13 7.5 19.5t19.5 6.5h84q13 0 17 -6.5t3 -19.5zM212 473l-55 -447q-1 -13 -7.5 -19.5t-19.5 -6.5h-84q-13 0 -17.5 6.5t-3.5 19.5l56 447q1 13 7 19t19 6h83q13 0 18 -6t4 -19z
M486 673l-10 -86q-1 -13 -7 -18.5t-19 -5.5h-83q-13 0 -18 5.5t-4 18.5l10 86q1 13 8 19.5t20 6.5h83q13 0 17 -6.5t3 -19.5zM462 473l-65 -527q-9 -71 -62 -109t-165 -38h-13q-13 0 -18.5 5.5t-4.5 18.5l7 58q1 13 8.5 19.5t20.5 6.5h9q41 0 63 13t26 41l63 512
q1 13 7.5 19t19.5 6h83q13 0 17.5 -6t3.5 -19z" />
    <glyph glyph-name="kgreenlandic" unicode="&#x138;" horiz-adv-x="503" 
d="M130 0h-83q-13 0 -17.5 6t-3.5 19l55 448q1 13 8 19t20 6h83q13 0 17 -6t3 -19l-18 -145h19l137 145q9 9 19 17t23 8h98q13 0 14.5 -8.5t-5.5 -16.5l-184 -189l143 -259q4 -9 0.5 -17t-16.5 -8h-95q-13 0 -21 7.5t-13 17.5l-109 204h-22l-25 -204q-1 -13 -7.5 -19
t-19.5 -6z" />
    <glyph glyph-name="ldot" unicode="&#x140;" horiz-adv-x="370" 
d="M236 673l-79 -647q-1 -13 -7.5 -19.5t-19.5 -6.5h-84q-13 0 -17.5 6.5t-3.5 19.5l80 647q1 13 7.5 19.5t19.5 6.5h84q13 0 17 -6.5t3 -19.5zM389 393l-10 -81q-1 -13 -7.5 -19t-19.5 -6h-85q-13 0 -17.5 6t-3.5 19l9 81q1 13 8 19t20 6h86q13 0 17 -6t3 -19z" />
    <glyph glyph-name="lslash" unicode="&#x142;" horiz-adv-x="313" 
d="M160 0h-84q-13 0 -17.5 6.5t-3.5 19.5l31 249l-35 -13q-12 -4 -19.5 -1.5t-10.5 14.5l-7 29q-2 10 1.5 18.5t14.5 12.5l66 26l39 312q1 13 7.5 19.5t19.5 6.5h84q13 0 17 -6.5t3 -19.5l-32 -259l40 15q10 4 18.5 1t12.5 -15l9 -28q3 -10 -1 -18t-17 -13l-72 -28l-37 -302
q-1 -13 -7.5 -19.5t-19.5 -6.5z" />
    <glyph glyph-name="napostrophe" unicode="&#x149;" horiz-adv-x="544" 
d="M98 685l4 31q1 13 7.5 19t19.5 6h62q13 0 17 -6t3 -19l-5 -38q-6 -46 -22 -74.5t-38 -58.5q-8 -11 -16.5 -13t-17.5 0l-45 11q-12 3 -13.5 12t5.5 21q19 32 26.5 51t12.5 58zM107 498h78q13 0 18 -5.5t4 -18.5l-1 -24q22 17 62.5 36.5t99.5 19.5q60 0 96.5 -33t36.5 -84
q0 -4 -0.5 -11t-1.5 -13l-41 -339q-1 -13 -8 -19.5t-20 -6.5h-81q-11 0 -17.5 5t-4.5 21l37 306q1 6 1.5 12.5t0.5 9.5q0 19 -11 28.5t-37 9.5q-38 0 -71.5 -16.5t-50.5 -28.5l-39 -321q-1 -13 -7.5 -19.5t-19.5 -6.5h-84q-10 0 -16 5.5t-5 20.5l56 448q1 13 7 18.5t19 5.5z
" />
    <glyph glyph-name="eng" unicode="&#x14b;" horiz-adv-x="544" 
d="M501 389v-10.5t-1 -13.5l-52 -419q-9 -71 -62 -109t-165 -38h-13q-13 0 -19 5.5t-4 18.5l8 57q2 13 8.5 19.5t19.5 6.5h9q41 0 63 13t26 41l45 373q1 5 1.5 11.5t0.5 9.5q0 19 -11 29t-37 10q-37 0 -71 -16.5t-50 -28.5l-40 -323q-1 -13 -7.5 -19t-19.5 -6h-83
q-11 0 -16.5 5.5t-4.5 19.5l55 449q1 13 7.5 18.5t19.5 5.5h77q13 0 18 -5.5t4 -18.5l-1 -24q22 17 63 36.5t99 19.5q60 0 96.5 -33t36.5 -84z" />
    <glyph glyph-name="oe" unicode="&#x153;" horiz-adv-x="803" 
d="M524 -8q-49 0 -85 9t-60 25q-23 -16 -59.5 -25t-87.5 -9q-99 0 -151 35.5t-52 94.5v6.5t1 10.5l27 220q8 66 59 106.5t164 40.5q52 0 89 -10.5t59 -29.5q23 18 59.5 29t90.5 11q96 0 142 -34.5t46 -92.5v-7.5t-1 -12.5l-14 -114q-1 -12 -7.5 -17.5t-18.5 -5.5h-256
l-9 -76q-1 -5 -1 -7.5v-3.5q0 -22 17 -34t56 -12q43 0 61 13.5t22 37.5l2 11q2 13 8.5 18.5t19.5 5.5h69q11 0 16.5 -5t4.5 -19l-1 -14q-4 -65 -50.5 -105t-159.5 -40zM636 307l5 37q1 7 1 13v8q0 18 -16 31t-56 13q-43 0 -61.5 -15t-22.5 -41l-6 -46h156zM332 150l23 190
q1 7 1 10v6q0 25 -21 36t-57 11q-42 0 -64.5 -13.5t-26.5 -41.5l-24 -190q-1 -7 -1 -11v-6q0 -25 20 -35.5t59 -10.5q42 0 64.5 13.5t26.5 41.5z" />
    <glyph glyph-name="tbar" unicode="&#x167;" horiz-adv-x="369" 
d="M320 25q-1 -13 -8 -19t-20 -6h-42q-96 0 -135.5 30.5t-39.5 87.5q0 7 0.5 15t1.5 15l10 86h-48q-13 0 -19 6t-4 19l6 43q1 13 7.5 18t19.5 5h49l8 67h-49q-13 0 -17.5 6.5t-3.5 18.5l6 50q1 13 8 18t20 6l48 5h1l12 96q1 13 8 19t20 6h83q13 0 17 -6.5t3 -18.5l-11 -96
h91q13 0 17.5 -6.5t3.5 -16.5l-6 -56q-1 -13 -8.5 -19t-20.5 -6h-90l-8 -67h90q13 0 18.5 -5t4.5 -18l-6 -43q-2 -13 -8.5 -19t-19.5 -6h-91l-8 -65q-1 -6 -1 -11v-8q0 -22 16.5 -32t57.5 -10h22q13 0 18 -7t4 -18z" />
    <glyph glyph-name="longs" unicode="&#x17f;" horiz-adv-x="304" 
d="M258 541l-89 -717q-1 -13 -7 -19t-19 -6h-83q-13 0 -18 6t-4 19l71 569h-54q-13 0 -18 6t-4 19l6 49q1 13 7.5 18t19.5 6l51 5h4l7 60q7 66 61.5 106.5t167.5 40.5h13q13 0 18 -6t4 -19l-7 -57q-1 -13 -8 -19t-20 -6h-10q-42 0 -63.5 -13.5t-25.5 -41.5z" />
    <glyph glyph-name="dotlessj" unicode="&#x237;" horiz-adv-x="246" 
d="M212 473l-65 -527q-9 -71 -62 -109t-165 -38h-13q-13 0 -18.5 5.5t-4.5 18.5l7 57q1 13 8.5 19.5t20.5 6.5h9q41 0 63 13t26 41l63 513q1 13 7.5 19t19.5 6h83q13 0 17.5 -6t3.5 -19z" />
    <glyph glyph-name="mu" unicode="&#x3bc;" horiz-adv-x="548" 
d="M329 24l1 23q-22 -16 -58 -35.5t-81 -19.5q-15 0 -26 3.5t-15 7.5l-15 -179q-1 -13 -7.5 -19t-19.5 -6h-83q-13 0 -17.5 6t-3.5 19l80 649q1 13 8 19t20 6h81q10 0 16.5 -5t5.5 -20l-38 -311q-1 -6 -1 -11v-9q0 -19 10.5 -28t37.5 -9q37 0 68.5 16t47.5 28l39 324
q1 13 7.5 19t19.5 6h83q14 0 18 -6.5t3 -18.5l-55 -449q-1 -13 -7.5 -18.5t-19.5 -5.5h-77q-13 0 -18 5.5t-4 18.5z" />
    <glyph glyph-name="pi" unicode="&#x3c0;" horiz-adv-x="350" 
d="M50 452h274q13 0 14.5 -12t-5.5 -23l-128 -207q-7 -10 -17.5 -10t-17.5 10l-127 207q-7 11 -6.5 23t13.5 12z" />
    <glyph glyph-name="zero" unicode="0" horiz-adv-x="582" 
d="M42 162l44 363q7 63 60.5 113t186.5 50q117 0 168.5 -43.5t51.5 -100.5q0 -5 -0.5 -12t-1.5 -14l-43 -363q-7 -63 -61 -113t-187 -50q-118 0 -169 43.5t-51 100.5q0 4 0.5 12t1.5 14zM375 179l39 316q1 6 1.5 11t0.5 8q0 31 -23 46.5t-67 15.5q-49 0 -76 -19t-31 -56
l-39 -310q-1 -6 -2 -14t-1 -11q0 -31 23.5 -46.5t68.5 -15.5q49 0 75.5 19t30.5 56z" />
    <glyph glyph-name="one" unicode="1" horiz-adv-x="514" 
d="M114 642l251 45q9 1 16 -3t5 -21l-68 -551h132q13 0 18 -5.5t4 -18.5l-8 -63q-1 -13 -8 -19t-20 -6h-402q-13 0 -18 6t-4 19l8 63q1 13 8 18.5t20 5.5h135l55 443l-138 -25q-12 -2 -18 3t-5 18l8 64q1 13 8.5 19t20.5 8z" />
    <glyph glyph-name="two" unicode="2" horiz-adv-x="560" 
d="M175 112h290q15 0 19.5 -6.5t3.5 -17.5l-8 -63q-1 -13 -8 -19t-20 -6h-401q-14 0 -18 6.5t-3 18.5l20 163q7 57 35.5 83t66.5 40l194 71q15 5 28.5 17.5t17.5 40.5l9 58q1 11 1.5 15.5t0.5 5.5q0 29 -23.5 44t-67.5 15q-49 0 -74 -19t-31 -56l-6 -39q-2 -13 -7.5 -19
t-18.5 -6h-83q-14 0 -18.5 7t-3.5 18l8 61q8 63 59.5 113t183.5 50q116 0 166.5 -43.5t50.5 -100.5q0 -7 -0.5 -13t-1.5 -13l-9 -78q-8 -74 -42 -107t-71 -46l-178 -64q-26 -10 -37.5 -20t-15.5 -35z" />
    <glyph glyph-name="three" unicode="3" horiz-adv-x="560" 
d="M213 404h68q50 0 76.5 18.5t30.5 55.5l3 28q1 7 1 10v5q0 29 -21 44t-64 15q-49 0 -73 -18.5t-27 -55.5l-1 -13q-1 -13 -8 -19t-20 -6h-83q-13 0 -17.5 7t-3.5 18l4 32q7 63 56 113t186 50q117 0 163 -42t46 -98q0 -4 -0.5 -9.5t-1.5 -18.5l-9 -65q-5 -39 -24.5 -63
t-62.5 -38q38 -15 54.5 -40.5t16.5 -56.5q0 -7 -0.5 -13.5t-1.5 -13.5l-11 -81q-8 -63 -58 -110t-186 -47q-120 0 -169 43t-49 100v8t1 12l4 32q1 13 7.5 19t19.5 6h83q16 0 19 -7.5t2 -17.5l-1 -13q-1 -6 -1 -10v-6q0 -28 24 -43t69 -15q49 0 75.5 18.5t30.5 55.5l6 49
q1 8 1 11.5v4.5q0 28 -23 42.5t-67 14.5h-77q-13 0 -18 6.5t-4 18.5l7 59q1 13 8 18.5t20 5.5z" />
    <glyph glyph-name="four" unicode="4" horiz-adv-x="559" 
d="M328 654l-154 -357h187l44 357q1 13 8 19.5t20 6.5h87q13 0 17 -6.5t3 -19.5l-77 -628q-1 -13 -7 -19.5t-19 -6.5h-87q-13 0 -18 6.5t-4 19.5l20 159h-305q-13 0 -18 5.5t-4 18.5l7 58q1 10 4.5 19t6.5 16l153 352q5 13 13 19.5t21 6.5h87q13 0 16.5 -7t-1.5 -19z" />
    <glyph glyph-name="five" unicode="5" horiz-adv-x="551" 
d="M139 680h366q12 0 18 -5t5 -19l-8 -63q-1 -13 -8 -19t-20 -6h-254l-16 -131h67q113 0 163.5 -42t50.5 -100q0 -4 -0.5 -11t-1.5 -15l-14 -115q-7 -63 -58.5 -113t-188.5 -50q-120 0 -168 43t-48 100v9.5t1 10.5l4 32q1 13 7.5 19t19.5 6h83q13 0 17.5 -5.5t3.5 -19.5
l-1 -11q-1 -7 -1 -11v-5q0 -28 23 -44t69 -16q49 0 74.5 19t29.5 56l9 70q1 12 1.5 17.5t0.5 7.5q0 29 -21.5 44.5t-67.5 15.5h-179q-13 0 -17 6.5t-3 19.5l36 299q1 13 7 19.5t19 6.5z" />
    <glyph glyph-name="six" unicode="6" horiz-adv-x="562" 
d="M42 155l45 371q7 60 56 111t183 51q116 0 162.5 -43t46.5 -97v-10t-1 -12l-4 -26q-2 -13 -8 -19t-19 -6h-83q-13 0 -17.5 6t-3.5 19l1 7q1 6 1 8.5v6.5q0 28 -20 43t-64 15q-49 0 -72 -19t-27 -54l-16 -122q22 13 50.5 22t65.5 9q99 0 144.5 -44t45.5 -99
q0 -4 -0.5 -12.5t-1.5 -15.5l-10 -90q-7 -63 -58 -113t-184 -50q-116 0 -164.5 42.5t-48.5 99.5v9.5t1 11.5zM364 175l7 58q1 6 1 9.5v5.5q0 29 -21.5 44t-65.5 15q-47 0 -71.5 -17t-28.5 -51l-7 -58q-1 -7 -1 -12.5v-9.5q0 -30 21 -44.5t65 -14.5q49 0 73 19t28 56z" />
    <glyph glyph-name="seven" unicode="7" horiz-adv-x="528" 
d="M95 680h434q13 0 18.5 -5.5t4.5 -18.5l-8 -62q-1 -7 -4 -14t-5 -11l-309 -543q-6 -10 -13 -18t-20 -8h-101q-13 0 -17.5 6.5t2.5 19.5l309 542h-304q-13 0 -18.5 6t-4.5 19l8 63q1 13 8 18.5t20 5.5z" />
    <glyph glyph-name="eight" unicode="8" horiz-adv-x="556" 
d="M84 465l7 60q7 63 51 113t178 50q115 0 159 -42.5t44 -98.5v-10t-1 -12l-8 -66q-5 -40 -26 -65t-63 -41q38 -14 56.5 -39t18.5 -55q0 -3 -0.5 -9t-1.5 -11l-10 -84q-7 -63 -57 -113t-183 -50q-117 0 -165 43.5t-48 100.5v8t1 11l10 91q4 40 28.5 65.5t69.5 41.5
q-32 13 -47 37.5t-15 52.5q0 4 0.5 9.5t1.5 12.5zM385 480l4 25q1 6 1 9.5v7.5q0 29 -18.5 43.5t-60.5 14.5q-47 0 -67 -19t-24 -56l-3 -25q-1 -7 -1 -10.5v-5.5q0 -30 17 -44.5t58 -14.5q48 0 68 19t26 56zM357 175l6 44q1 6 1.5 12t0.5 8q0 30 -21.5 44.5t-65.5 14.5
q-49 0 -73 -18t-28 -55l-6 -50q-1 -7 -1 -10.5v-5.5q0 -29 21 -44t65 -15q49 0 72.5 19t28.5 56z" />
    <glyph glyph-name="nine" unicode="9" horiz-adv-x="563" 
d="M210 505l-7 -58q-1 -6 -1 -9.5v-4.5q0 -30 21.5 -45t65.5 -15q47 0 71.5 17t28.5 51l7 58q1 7 1.5 12t0.5 9q0 30 -21.5 45t-64.5 15q-49 0 -73.5 -19t-28.5 -56zM532 525l-44 -371q-7 -60 -55.5 -111t-182.5 -51q-116 0 -163.5 43t-47.5 97v9.5t1 12.5l4 26q2 13 8 19
t19 6h83q13 0 17.5 -6t3.5 -19l-1 -7q-1 -6 -1 -9v-6q0 -28 20.5 -43t63.5 -15q49 0 72 19t27 54l16 122q-22 -13 -50.5 -22t-65.5 -9q-99 0 -144.5 44t-45.5 99q0 4 0.5 12.5t1.5 15.5l11 90q7 63 57 113t183 50q116 0 165.5 -43t49.5 -100q0 -4 -0.5 -9t-1.5 -11z" />
    <glyph glyph-name="onesuperior" unicode="&#xb9;" 
d="M126 812l154 22q6 1 10.5 -1.5t3.5 -14.5l-35 -283h65q9 0 12.5 -3.5t2.5 -12.5l-5 -47q-1 -9 -5.5 -12.5t-13.5 -3.5h-231q-9 0 -12.5 3.5t-2.5 12.5l6 47q1 9 5 12.5t13 3.5h67l25 206l-69 -8q-7 -1 -11 2.5t-3 10.5l6 48q1 9 6 13t12 5z" />
    <glyph glyph-name="twosuperior" unicode="&#xb2;" 
d="M166 535h162q8 0 11 -3.5t2 -12.5l-6 -47q-1 -9 -5 -12.5t-13 -3.5h-244q-9 0 -12.5 3.5t-2.5 12.5l11 91q3 23 16 39t36 25l110 43q11 4 20.5 10t11.5 22l2 16q1 7 1 9.5v3.5q0 14 -11 20t-30 6q-25 0 -35.5 -7.5t-11.5 -23.5l-2 -19q-1 -8 -4.5 -11.5t-12.5 -3.5h-66
q-8 0 -11.5 3.5t-2.5 11.5l3 29q4 37 38 67.5t117 30.5q66 0 97.5 -28t31.5 -62v-5t-1 -10l-4 -32q-5 -43 -27 -60.5t-44 -26.5l-105 -40q-8 -3 -12 -7t-5 -10z" />
    <glyph glyph-name="threesuperior" unicode="&#xb3;" 
d="M191 452q-65 0 -100 26t-35 61v4.5t1 12.5l1 8q1 9 5.5 13t12.5 4h65q8 0 10.5 -4t2.5 -13v-12q0 -15 13 -21t29 -6q23 0 34.5 7t14.5 25l2 12q1 7 1 9v3q0 17 -12 24.5t-30 7.5h-39q-7 0 -11 3t-3 11l5 39q1 7 5 10.5t12 3.5h35q19 0 33.5 9.5t15.5 28.5l1 12
q1 17 -10 24t-27 7q-23 0 -32.5 -7t-12.5 -25l-1 -6q-1 -9 -5 -12.5t-13 -3.5h-64q-9 0 -12 4t-2 12l2 16q4 37 35.5 66t115.5 29q69 0 99 -27t26 -64l-5 -39q-3 -24 -13.5 -35.5t-34.5 -20.5q21 -9 30.5 -23t9.5 -30v-5t-1 -12l-4 -35q-4 -35 -36.5 -63t-113.5 -28z" />
    <glyph glyph-name="onequarter" unicode="&#xbc;" horiz-adv-x="817" 
d="M649 358l-74 -189h85l24 189q1 8 4.5 12t12.5 4h66q8 0 11.5 -4t2.5 -12l-42 -342q-1 -8 -5 -12t-12 -4h-67q-9 0 -11.5 4t-1.5 12l9 77h-172q-9 0 -13 4t-3 12l4 31q1 10 4 17.5l5 12.5l76 188q3 7 8 11.5t14 4.5h64q10 0 12 -4.5t-1 -11.5zM100 662l154 22
q6 1 10.5 -1.5t3.5 -14.5l-35 -283h65q9 0 12.5 -3.5t2.5 -12.5l-5 -47q-1 -9 -5.5 -12.5t-13.5 -3.5h-231q-9 0 -12.5 3.5t-2.5 12.5l6 47q1 9 5 12.5t13 3.5h67l25 206l-69 -8q-7 -1 -11 2.5t-3 10.5l6 48q1 9 6 13t12 5zM685 662l-407 -644q-8 -13 -16.5 -19.5
t-21.5 -6.5h-65q-11 0 -12.5 9t3.5 17l406 644q7 10 17 18t23 8h65q11 0 13 -8t-5 -18z" />
    <glyph glyph-name="onehalf" unicode="&#xbd;" horiz-adv-x="833" 
d="M596 79h162q8 0 11 -3.5t2 -12.5l-6 -47q-1 -9 -5 -12.5t-13 -3.5h-244q-9 0 -12.5 3.5t-2.5 12.5l11 91q3 23 16 39t36 25l110 43q11 4 20.5 10t11.5 22l2 16q1 7 1 9.5v3.5q0 14 -11 20t-30 6q-25 0 -35.5 -7.5t-11.5 -23.5l-2 -19q-1 -8 -4.5 -11.5t-12.5 -3.5h-66
q-8 0 -11.5 3.5t-2.5 11.5l3 29q4 37 38 67.5t117 30.5q66 0 97.5 -28t31.5 -62v-5t-1 -10l-4 -32q-5 -43 -27 -60.5t-44 -26.5l-105 -40q-8 -3 -12 -7t-5 -10zM100 662l154 22q6 1 10.5 -1.5t3.5 -14.5l-35 -283h65q9 0 12.5 -3.5t2.5 -12.5l-5 -47q-1 -9 -5.5 -12.5
t-13.5 -3.5h-231q-9 0 -12.5 3.5t-2.5 12.5l6 47q1 9 5 12.5t13 3.5h67l25 206l-69 -8q-7 -1 -11 2.5t-3 10.5l6 48q1 9 6 13t12 5zM687 662l-407 -644q-8 -13 -16.5 -19.5t-21.5 -6.5h-65q-11 0 -12.5 9t3.5 17l406 644q7 10 17 18t23 8h65q11 0 13 -8t-5 -18z" />
    <glyph glyph-name="threequarters" unicode="&#xbe;" horiz-adv-x="818" 
d="M650 358l-74 -189h85l24 189q1 8 4.5 12t12.5 4h66q8 0 11.5 -4t2.5 -12l-42 -342q-1 -8 -5 -12t-12 -4h-67q-9 0 -11.5 4t-1.5 12l9 77h-172q-9 0 -13 4t-3 12l4 31q1 10 4 17.5l5 12.5l76 188q3 7 8 11.5t14 4.5h64q10 0 12 -4.5t-1 -11.5zM682 662l-407 -644
q-8 -13 -16.5 -19.5t-21.5 -6.5h-65q-11 0 -12.5 9t3.5 17l406 644q7 10 17 18t23 8h65q11 0 13 -8t-5 -18zM180 302q-65 0 -100 26t-35 61v4.5t1 12.5l1 8q1 9 5.5 13t12.5 4h65q8 0 10.5 -4t2.5 -13v-12q0 -15 13 -21t29 -6q23 0 34.5 7t14.5 25l2 12q1 7 1 9v3
q0 17 -12 24.5t-30 7.5h-39q-7 0 -11 3t-3 11l5 39q1 7 5 10.5t12 3.5h35q19 0 33.5 9.5t15.5 28.5l1 12q1 17 -10 24t-27 7q-23 0 -32.5 -7t-12.5 -25l-1 -6q-1 -9 -5 -12.5t-13 -3.5h-64q-9 0 -12 4t-2 12l2 16q4 37 35.5 66t115.5 29q69 0 99 -27t26 -64l-5 -39
q-3 -24 -13.5 -35.5t-34.5 -20.5q21 -9 30.5 -23t9.5 -30v-5t-1 -12l-4 -35q-4 -35 -36.5 -63t-113.5 -28z" />
    <glyph glyph-name="uni2153" unicode="&#x2153;" horiz-adv-x="832" 
d="M100 662l154 22q6 1 10.5 -1.5t3.5 -14.5l-35 -283h65q9 0 12.5 -3.5t2.5 -12.5l-5 -47q-1 -9 -5.5 -12.5t-13.5 -3.5h-231q-9 0 -12.5 3.5t-2.5 12.5l6 47q1 9 5 12.5t13 3.5h67l25 206l-69 -8q-7 -1 -11 2.5t-3 10.5l6 48q1 9 6 13t12 5zM685 662l-407 -644
q-8 -13 -16.5 -19.5t-21.5 -6.5h-65q-11 0 -12.5 9t3.5 17l406 644q7 10 17 18t23 8h65q11 0 13 -8t-5 -18zM623 -4q-65 0 -100 26t-35 61v4.5t1 12.5l1 8q1 9 5.5 13t12.5 4h65q8 0 10.5 -4t2.5 -13v-12q0 -15 13 -21t29 -6q23 0 34.5 7t14.5 25l2 12q1 7 1 9v3
q0 17 -12 24.5t-30 7.5h-39q-7 0 -11 3t-3 11l5 39q1 7 5 10.5t12 3.5h35q19 0 33.5 9.5t15.5 28.5l1 12q1 17 -10 24t-27 7q-23 0 -32.5 -7t-12.5 -25l-1 -6q-1 -9 -5 -12.5t-13 -3.5h-64q-9 0 -12 4t-2 12l2 16q4 37 35.5 66t115.5 29q69 0 99 -27t26 -64l-5 -39
q-3 -24 -13.5 -35.5t-34.5 -20.5q21 -9 30.5 -23t9.5 -30v-5t-1 -12l-4 -35q-4 -35 -36.5 -63t-113.5 -28z" />
    <glyph glyph-name="uni2154" unicode="&#x2154;" horiz-adv-x="841" 
d="M156 385h162q8 0 11 -3.5t2 -12.5l-6 -47q-1 -9 -5 -12.5t-13 -3.5h-244q-9 0 -12.5 3.5t-2.5 12.5l11 91q3 23 16 39t36 25l110 43q11 4 20.5 10t11.5 22l2 16q1 7 1 9.5v3.5q0 14 -11 20t-30 6q-25 0 -35.5 -7.5t-11.5 -23.5l-2 -19q-1 -8 -4.5 -11.5t-12.5 -3.5h-66
q-8 0 -11.5 3.5t-2.5 11.5l3 29q4 37 38 67.5t117 30.5q66 0 97.5 -28t31.5 -62v-5t-1 -10l-4 -32q-5 -43 -27 -60.5t-44 -26.5l-105 -40q-8 -3 -12 -7t-5 -10zM699 662l-407 -644q-8 -13 -16.5 -19.5t-21.5 -6.5h-65q-11 0 -12.5 9t3.5 17l406 644q7 10 17 18t23 8h65
q11 0 13 -8t-5 -18zM632 -4q-65 0 -100 26t-35 61v4.5t1 12.5l1 8q1 9 5.5 13t12.5 4h65q8 0 10.5 -4t2.5 -13v-12q0 -15 13 -21t29 -6q23 0 34.5 7t14.5 25l2 12q1 7 1 9v3q0 17 -12 24.5t-30 7.5h-39q-7 0 -11 3t-3 11l5 39q1 7 5 10.5t12 3.5h35q19 0 33.5 9.5t15.5 28.5
l1 12q1 17 -10 24t-27 7q-23 0 -32.5 -7t-12.5 -25l-1 -6q-1 -9 -5 -12.5t-13 -3.5h-64q-9 0 -12 4t-2 12l2 16q4 37 35.5 66t115.5 29q69 0 99 -27t26 -64l-5 -39q-3 -24 -13.5 -35.5t-34.5 -20.5q21 -9 30.5 -23t9.5 -30v-5t-1 -12l-4 -35q-4 -35 -36.5 -63t-113.5 -28z
" />
    <glyph glyph-name="uni2155" unicode="&#x2155;" horiz-adv-x="840" 
d="M685 662l-407 -644q-8 -13 -16.5 -19.5t-21.5 -6.5h-65q-11 0 -12.5 9t3.5 17l406 644q7 10 17 18t23 8h65q11 0 13 -8t-5 -18zM100 662l154 22q6 1 10.5 -1.5t3.5 -14.5l-35 -283h65q9 0 12.5 -3.5t2.5 -12.5l-5 -47q-1 -9 -5.5 -12.5t-13.5 -3.5h-231q-9 0 -12.5 3.5
t-2.5 12.5l6 47q1 9 5 12.5t13 3.5h67l25 206l-69 -8q-7 -1 -11 2.5t-3 10.5l6 48q1 9 6 13t12 5zM563 374h222q9 0 12.5 -3.5t2.5 -11.5l-5 -44q-1 -8 -5.5 -12t-13.5 -4h-140l-7 -52h40q68 0 93.5 -25.5t25.5 -56.5v-4.5t-1 -9.5l-8 -60q-4 -36 -35.5 -66t-112.5 -30
q-59 0 -97.5 24t-38.5 65v4.5t1 10.5l1 9q1 8 5 11.5t13 3.5h63q9 0 11 -3.5t2 -11.5v-6q0 -22 13 -28.5t30 -6.5q22 0 34.5 8t14.5 27l4 29q1 7 1 9.5v3.5q0 16 -11 23t-30 7h-108q-9 0 -12.5 4t-2.5 13l21 167q1 8 4.5 12t13.5 4z" />
    <glyph glyph-name="uni2156" unicode="&#x2156;" horiz-adv-x="851" 
d="M156 385h162q8 0 11 -3.5t2 -12.5l-6 -47q-1 -9 -5 -12.5t-13 -3.5h-244q-9 0 -12.5 3.5t-2.5 12.5l11 91q3 23 16 39t36 25l110 43q11 4 20.5 10t11.5 22l2 16q1 7 1 9.5v3.5q0 14 -11 20t-30 6q-25 0 -35.5 -7.5t-11.5 -23.5l-2 -19q-1 -8 -4.5 -11.5t-12.5 -3.5h-66
q-8 0 -11.5 3.5t-2.5 11.5l3 29q4 37 38 67.5t117 30.5q66 0 97.5 -28t31.5 -62v-5t-1 -10l-4 -32q-5 -43 -27 -60.5t-44 -26.5l-105 -40q-8 -3 -12 -7t-5 -10zM700 662l-407 -644q-8 -13 -16.5 -19.5t-21.5 -6.5h-65q-11 0 -12.5 9t3.5 17l406 644q7 10 17 18t23 8h65
q11 0 13 -8t-5 -18zM574 374h222q9 0 12.5 -3.5t2.5 -11.5l-5 -44q-1 -8 -5.5 -12t-13.5 -4h-140l-7 -52h40q68 0 93.5 -25.5t25.5 -56.5v-4.5t-1 -9.5l-8 -60q-4 -36 -35.5 -66t-112.5 -30q-59 0 -97.5 24t-38.5 65v4.5t1 10.5l1 9q1 8 5 11.5t13 3.5h63q9 0 11 -3.5
t2 -11.5v-6q0 -22 13 -28.5t30 -6.5q22 0 34.5 8t14.5 27l4 29q1 7 1 9.5v3.5q0 16 -11 23t-30 7h-108q-9 0 -12.5 4t-2.5 13l21 167q1 8 4.5 12t13.5 4z" />
    <glyph glyph-name="uni2157" unicode="&#x2157;" horiz-adv-x="838" 
d="M682 662l-407 -644q-8 -13 -16.5 -19.5t-21.5 -6.5h-65q-11 0 -12.5 9t3.5 17l406 644q7 10 17 18t23 8h65q11 0 13 -8t-5 -18zM562 374h222q9 0 12.5 -3.5t2.5 -11.5l-5 -44q-1 -8 -5.5 -12t-13.5 -4h-140l-7 -52h40q68 0 93.5 -25.5t25.5 -56.5v-4.5t-1 -9.5l-8 -60
q-4 -36 -35.5 -66t-112.5 -30q-59 0 -97.5 24t-38.5 65v4.5t1 10.5l1 9q1 8 5 11.5t13 3.5h63q9 0 11 -3.5t2 -11.5v-6q0 -22 13 -28.5t30 -6.5q22 0 34.5 8t14.5 27l4 29q1 7 1 9.5v3.5q0 16 -11 23t-30 7h-108q-9 0 -12.5 4t-2.5 13l21 167q1 8 4.5 12t13.5 4zM180 302
q-65 0 -100 26t-35 61v4.5t1 12.5l1 8q1 9 5.5 13t12.5 4h65q8 0 10.5 -4t2.5 -13v-12q0 -15 13 -21t29 -6q23 0 34.5 7t14.5 25l2 12q1 7 1 9v3q0 17 -12 24.5t-30 7.5h-39q-7 0 -11 3t-3 11l5 39q1 7 5 10.5t12 3.5h35q19 0 33.5 9.5t15.5 28.5l1 12q1 17 -10 24t-27 7
q-23 0 -32.5 -7t-12.5 -25l-1 -6q-1 -9 -5 -12.5t-13 -3.5h-64q-9 0 -12 4t-2 12l2 16q4 37 35.5 66t115.5 29q69 0 99 -27t26 -64l-5 -39q-3 -24 -13.5 -35.5t-34.5 -20.5q21 -9 30.5 -23t9.5 -30v-5t-1 -12l-4 -35q-4 -35 -36.5 -63t-113.5 -28z" />
    <glyph glyph-name="uni2158" unicode="&#x2158;" horiz-adv-x="854" 
d="M227 664l-74 -189h85l24 189q1 8 4.5 12t12.5 4h66q8 0 11.5 -4t2.5 -12l-42 -342q-1 -8 -5 -12t-12 -4h-67q-9 0 -11.5 4t-1.5 12l9 77h-172q-9 0 -13 4t-3 12l4 31q1 10 4 17.5l5 12.5l76 188q3 7 8 11.5t14 4.5h64q10 0 12 -4.5t-1 -11.5zM700 662l-407 -644
q-8 -13 -16.5 -19.5t-21.5 -6.5h-65q-11 0 -12.5 9t3.5 17l406 644q7 10 17 18t23 8h65q11 0 13 -8t-5 -18zM576 374h222q9 0 12.5 -3.5t2.5 -11.5l-5 -44q-1 -8 -5.5 -12t-13.5 -4h-140l-7 -52h40q68 0 93.5 -25.5t25.5 -56.5v-4.5t-1 -9.5l-8 -60q-4 -36 -35.5 -66
t-112.5 -30q-59 0 -97.5 24t-38.5 65v4.5t1 10.5l1 9q1 8 5 11.5t13 3.5h63q9 0 11 -3.5t2 -11.5v-6q0 -22 13 -28.5t30 -6.5q22 0 34.5 8t14.5 27l4 29q1 7 1 9.5v3.5q0 16 -11 23t-30 7h-108q-9 0 -12.5 4t-2.5 13l21 167q1 8 4.5 12t13.5 4z" />
    <glyph glyph-name="uni2159" unicode="&#x2159;" horiz-adv-x="826" 
d="M489 82v6t1 10l24 184q4 36 35 66t114 30q71 0 99 -29t25 -65l-1 -11q-1 -9 -5 -13.5t-12 -4.5h-65q-7 0 -10 2.5t-3 12.5v5q0 15 -8.5 22t-26.5 7q-22 0 -33 -8t-13 -26l-7 -51q13 5 25.5 8.5t29.5 3.5q60 0 89 -22.5t29 -54.5q0 -3 -0.5 -7.5t-1.5 -9.5l-6 -45
q-5 -37 -35.5 -66.5t-115.5 -29.5q-66 0 -97 26t-31 60zM672 103l2 20q2 21 -9.5 28t-27.5 7q-18 0 -30.5 -7t-14.5 -25l-3 -23q-2 -18 8.5 -25.5t28.5 -7.5q19 0 32 8t14 25zM100 662l154 22q6 1 10.5 -1.5t3.5 -14.5l-35 -283h65q9 0 12.5 -3.5t2.5 -12.5l-5 -47
q-1 -9 -5.5 -12.5t-13.5 -3.5h-231q-9 0 -12.5 3.5t-2.5 12.5l6 47q1 9 5 12.5t13 3.5h67l25 206l-69 -8q-7 -1 -11 2.5t-3 10.5l6 48q1 9 6 13t12 5zM686 662l-407 -644q-8 -13 -16.5 -19.5t-21.5 -6.5h-65q-11 0 -12.5 9t3.5 17l406 644q7 10 17 18t23 8h65q11 0 13 -8
t-5 -18z" />
    <glyph glyph-name="uni215A" unicode="&#x215a;" horiz-adv-x="826" 
d="M488 82v6t1 10l24 184q4 36 35 66t114 30q71 0 99 -29t25 -65l-1 -11q-1 -9 -5 -13.5t-12 -4.5h-65q-7 0 -10 2.5t-3 12.5v5q0 15 -8.5 22t-26.5 7q-22 0 -33 -8t-13 -26l-7 -51q13 5 25.5 8.5t29.5 3.5q60 0 89 -22.5t29 -54.5q0 -3 -0.5 -7.5t-1.5 -9.5l-6 -45
q-5 -37 -35.5 -66.5t-115.5 -29.5q-66 0 -97 26t-31 60zM671 103l2 20q2 21 -9.5 28t-27.5 7q-18 0 -30.5 -7t-14.5 -25l-3 -23q-2 -18 8.5 -25.5t28.5 -7.5q19 0 32 8t14 25zM676 662l-407 -644q-8 -13 -16.5 -19.5t-21.5 -6.5h-65q-11 0 -12.5 9t3.5 17l406 644
q7 10 17 18t23 8h65q11 0 13 -8t-5 -18zM112 680h222q9 0 12.5 -3.5t2.5 -11.5l-5 -44q-1 -8 -5.5 -12t-13.5 -4h-140l-7 -52h40q68 0 93.5 -25.5t25.5 -56.5v-4.5t-1 -9.5l-8 -60q-4 -36 -35.5 -66t-112.5 -30q-59 0 -97.5 24t-38.5 65v4.5t1 10.5l1 9q1 8 5 11.5t13 3.5
h63q9 0 11 -3.5t2 -11.5v-6q0 -22 13 -28.5t30 -6.5q22 0 34.5 8t14.5 27l4 29q1 7 1 9.5v3.5q0 16 -11 23t-30 7h-108q-9 0 -12.5 4t-2.5 13l21 167q1 8 4.5 12t13.5 4z" />
    <glyph glyph-name="uni215B" unicode="&#x215b;" horiz-adv-x="827" 
d="M689 662l-407 -644q-8 -13 -16.5 -19.5t-21.5 -6.5h-65q-11 0 -12.5 9t3.5 17l406 644q7 10 17 18t23 8h65q11 0 13 -8t-5 -18zM100 662l154 22q6 1 10.5 -1.5t3.5 -14.5l-35 -283h65q9 0 12.5 -3.5t2.5 -12.5l-5 -47q-1 -9 -5.5 -12.5t-13.5 -3.5h-231q-9 0 -12.5 3.5
t-2.5 12.5l6 47q1 9 5 12.5t13 3.5h67l25 206l-69 -8q-7 -1 -11 2.5t-3 10.5l6 48q1 9 6 13t12 5zM511 240q0 1 1 6.5t2 15.5l3 22q5 36 32 65t114 29q66 0 94.5 -24.5t28.5 -57.5v-4t-1 -8l-5 -36q-3 -22 -15 -34.5t-32 -21.5q19 -8 30 -21t11 -30q0 -1 -0.5 -6t-1.5 -17
l-4 -28q-5 -36 -35.5 -65t-116.5 -29q-69 0 -100 25.5t-31 59.5q0 1 1 12.5t2 15.5l3 26q2 19 16 33.5t39 23.5q-17 8 -26 20t-9 28zM686 260l1 6q1 6 1 9.5v4.5q0 15 -9 21t-25 6q-19 0 -30.5 -7.5t-13.5 -26.5l-1 -9q-1 -6 -1 -8v-3q0 -15 9.5 -20.5t26.5 -5.5q19 0 29 7
t13 26zM674 102l1 11q1 8 1 10.5v3.5q0 16 -11 22.5t-29 6.5q-21 0 -35 -7.5t-15 -26.5l-1 -11q-1 -7 -1 -10.5v-4.5q0 -16 11 -22.5t30 -6.5q20 0 34 8t15 27z" />
    <glyph glyph-name="uni215C" unicode="&#x215c;" horiz-adv-x="827" 
d="M684 662l-407 -644q-8 -13 -16.5 -19.5t-21.5 -6.5h-65q-11 0 -12.5 9t3.5 17l406 644q7 10 17 18t23 8h65q11 0 13 -8t-5 -18zM512 240q0 1 1 6.5t2 15.5l3 22q5 36 32 65t114 29q66 0 94.5 -24.5t28.5 -57.5v-4t-1 -8l-5 -36q-3 -22 -15 -34.5t-32 -21.5q19 -8 30 -21
t11 -30q0 -1 -0.5 -6t-1.5 -17l-4 -28q-5 -36 -35.5 -65t-116.5 -29q-69 0 -100 25.5t-31 59.5q0 1 1 12.5t2 15.5l3 26q2 19 16 33.5t39 23.5q-17 8 -26 20t-9 28zM687 260l1 6q1 6 1 9.5v4.5q0 15 -9 21t-25 6q-19 0 -30.5 -7.5t-13.5 -26.5l-1 -9q-1 -6 -1 -8v-3
q0 -15 9.5 -20.5t26.5 -5.5q19 0 29 7t13 26zM675 102l1 11q1 8 1 10.5v3.5q0 16 -11 22.5t-29 6.5q-21 0 -35 -7.5t-15 -26.5l-1 -11q-1 -7 -1 -10.5v-4.5q0 -16 11 -22.5t30 -6.5q20 0 34 8t15 27zM180 302q-65 0 -100 26t-35 61v4.5t1 12.5l1 8q1 9 5.5 13t12.5 4h65
q8 0 10.5 -4t2.5 -13v-12q0 -15 13 -21t29 -6q23 0 34.5 7t14.5 25l2 12q1 7 1 9v3q0 17 -12 24.5t-30 7.5h-39q-7 0 -11 3t-3 11l5 39q1 7 5 10.5t12 3.5h35q19 0 33.5 9.5t15.5 28.5l1 12q1 17 -10 24t-27 7q-23 0 -32.5 -7t-12.5 -25l-1 -6q-1 -9 -5 -12.5t-13 -3.5h-64
q-9 0 -12 4t-2 12l2 16q4 37 35.5 66t115.5 29q69 0 99 -27t26 -64l-5 -39q-3 -24 -13.5 -35.5t-34.5 -20.5q21 -9 30.5 -23t9.5 -30v-5t-1 -12l-4 -35q-4 -35 -36.5 -63t-113.5 -28z" />
    <glyph glyph-name="uni215D" unicode="&#x215d;" horiz-adv-x="825" 
d="M681 662l-407 -644q-8 -13 -16.5 -19.5t-21.5 -6.5h-65q-11 0 -12.5 9t3.5 17l406 644q7 10 17 18t23 8h65q11 0 13 -8t-5 -18zM510 240q0 1 1 6.5t2 15.5l3 22q5 36 32 65t114 29q66 0 94.5 -24.5t28.5 -57.5v-4t-1 -8l-5 -36q-3 -22 -15 -34.5t-32 -21.5q19 -8 30 -21
t11 -30q0 -1 -0.5 -6t-1.5 -17l-4 -28q-5 -36 -35.5 -65t-116.5 -29q-69 0 -100 25.5t-31 59.5q0 1 1 12.5t2 15.5l3 26q2 19 16 33.5t39 23.5q-17 8 -26 20t-9 28zM685 260l1 6q1 6 1 9.5v4.5q0 15 -9 21t-25 6q-19 0 -30.5 -7.5t-13.5 -26.5l-1 -9q-1 -6 -1 -8v-3
q0 -15 9.5 -20.5t26.5 -5.5q19 0 29 7t13 26zM673 102l1 11q1 8 1 10.5v3.5q0 16 -11 22.5t-29 6.5q-21 0 -35 -7.5t-15 -26.5l-1 -11q-1 -7 -1 -10.5v-4.5q0 -16 11 -22.5t30 -6.5q20 0 34 8t15 27zM112 680h222q9 0 12.5 -3.5t2.5 -11.5l-5 -44q-1 -8 -5.5 -12t-13.5 -4
h-140l-7 -52h40q68 0 93.5 -25.5t25.5 -56.5v-4.5t-1 -9.5l-8 -60q-4 -36 -35.5 -66t-112.5 -30q-59 0 -97.5 24t-38.5 65v4.5t1 10.5l1 9q1 8 5 11.5t13 3.5h63q9 0 11 -3.5t2 -11.5v-6q0 -22 13 -28.5t30 -6.5q22 0 34.5 8t14.5 27l4 29q1 7 1 9.5v3.5q0 16 -11 23t-30 7
h-108q-9 0 -12.5 4t-2.5 13l21 167q1 8 4.5 12t13.5 4z" />
    <glyph glyph-name="uni215E" unicode="&#x215e;" horiz-adv-x="777" 
d="M92 680h253q9 0 12.5 -3.5t2.5 -11.5l-5 -41q-1 -6 -3 -11t-3 -6l-162 -285q-3 -6 -8 -11t-14 -5h-78q-7 0 -10 4t1 12l159 279h-155q-9 0 -12.5 4t-2.5 13l5 47q1 8 6 11.5t14 3.5zM625 662l-407 -644q-8 -13 -16.5 -19.5t-21.5 -6.5h-65q-11 0 -12.5 9t3.5 17l406 644
q7 10 17 18t23 8h65q11 0 13 -8t-5 -18zM460 240q0 1 1 6.5t2 15.5l3 22q5 36 32 65t114 29q66 0 94.5 -24.5t28.5 -57.5v-4t-1 -8l-5 -36q-3 -22 -15 -34.5t-32 -21.5q19 -8 30 -21t11 -30q0 -1 -0.5 -6t-1.5 -17l-4 -28q-5 -36 -35.5 -65t-116.5 -29q-69 0 -100 25.5
t-31 59.5q0 1 1 12.5t2 15.5l3 26q2 19 16 33.5t39 23.5q-17 8 -26 20t-9 28zM635 260l1 6q1 6 1 9.5v4.5q0 15 -9 21t-25 6q-19 0 -30.5 -7.5t-13.5 -26.5l-1 -9q-1 -6 -1 -8v-3q0 -15 9.5 -20.5t26.5 -5.5q19 0 29 7t13 26zM623 102l1 11q1 8 1 10.5v3.5q0 16 -11 22.5
t-29 6.5q-21 0 -35 -7.5t-15 -26.5l-1 -11q-1 -7 -1 -10.5v-4.5q0 -16 11 -22.5t30 -6.5q20 0 34 8t15 27z" />
    <glyph glyph-name="uni215F" unicode="&#x215f;" horiz-adv-x="476" 
d="M93 662l154 22q6 1 10.5 -1.5t3.5 -14.5l-35 -283h65q9 0 12.5 -3.5t2.5 -12.5l-5 -47q-1 -9 -5.5 -12.5t-13.5 -3.5h-231q-9 0 -12.5 3.5t-2.5 12.5l6 47q1 9 5 12.5t13 3.5h67l25 206l-69 -8q-7 -1 -11 2.5t-3 10.5l6 48q1 9 6 13t12 5zM680 662l-407 -644
q-8 -13 -16.5 -19.5t-21.5 -6.5h-65q-11 0 -12.5 9t3.5 17l406 644q7 10 17 18t23 8h65q11 0 13 -8t-5 -18z" />
    <glyph glyph-name="underscore" unicode="_" horiz-adv-x="422" 
d="M-23 -74h364q13 0 19.5 -5t6.5 -18v-60q0 -13 -6.5 -19t-19.5 -6h-364q-13 0 -19 6t-6 19v60q0 13 6 18t19 5z" />
    <glyph glyph-name="hyphen" unicode="-" horiz-adv-x="429" 
d="M80 342h267q13 0 19.5 -5.5t6.5 -18.5v-59q0 -13 -6.5 -18.5t-19.5 -5.5h-267q-13 0 -19 5.5t-6 18.5v59q0 13 6 18.5t19 5.5z" />
    <glyph glyph-name="endash" unicode="&#x2013;" horiz-adv-x="526" 
d="M80 342h364q13 0 19 -5.5t6 -18.5v-59q0 -13 -6 -18.5t-19 -5.5h-364q-13 0 -19 5.5t-6 18.5v59q0 13 6 18.5t19 5.5z" />
    <glyph glyph-name="emdash" unicode="&#x2014;" horiz-adv-x="836" 
d="M80 342h675q13 0 19 -5.5t6 -18.5v-59q0 -13 -6 -18.5t-19 -5.5h-675q-13 0 -19 5.5t-6 18.5v59q0 13 6 18.5t19 5.5z" />
    <glyph glyph-name="parenleft" unicode="(" horiz-adv-x="331" 
d="M15 -61l76 621q10 78 58 113t158 35h26q10 0 16.5 -5t5.5 -20l-7 -58q-1 -13 -8.5 -19t-20.5 -6h-9q-42 0 -61.5 -13t-23.5 -41l-74 -601q-1 -6 -1 -8v-3q0 -22 17.5 -33t55.5 -11h10q10 0 17 -5t5 -20l-8 -58q-1 -13 -7.5 -19t-19.5 -6h-8q-96 0 -147.5 37t-51.5 99
q0 4 0.5 10t1.5 11z" />
    <glyph glyph-name="parenright" unicode=")" horiz-adv-x="332" 
d="M306 551l-76 -621q-10 -78 -58 -113t-158 -35h-25q-10 0 -17 5t-6 20l7 58q1 13 8.5 19t20.5 6h9q42 0 62 13t24 41l73 600q1 7 1 9v3q0 22 -17.5 33t-55.5 11h-10q-10 0 -16 5t-5 20l7 58q1 13 8 19t20 6h7q96 0 147.5 -37t51.5 -100q0 -4 -0.5 -9.5t-1.5 -10.5z" />
    <glyph glyph-name="bracketleft" unicode="[" horiz-adv-x="364" 
d="M4 -185l106 858q1 13 7.5 19.5t19.5 6.5h229q13 0 18 -5.5t4 -18.5l-8 -63q-1 -13 -8 -19t-20 -6h-117l-85 -686h117q13 0 18.5 -6t4.5 -19l-8 -63q-1 -13 -7.5 -18.5t-19.5 -5.5h-229q-13 0 -18 6.5t-4 19.5z" />
    <glyph glyph-name="bracketright" unicode="]" horiz-adv-x="363" 
d="M350 673l-107 -858q-1 -13 -7 -19.5t-19 -6.5h-229q-13 0 -18 5.5t-4 18.5l8 63q1 13 7.5 19t19.5 6h118l85 686h-118q-13 0 -18 6t-4 19l8 63q1 13 7.5 18.5t19.5 5.5h229q13 0 18 -6.5t4 -19.5z" />
    <glyph glyph-name="braceleft" unicode="{" horiz-adv-x="384" 
d="M120 357l25 203q8 67 61 107.5t163 40.5h17q15 0 19.5 -7t3.5 -18l-7 -58q-1 -13 -8.5 -19t-20.5 -6h-9q-42 0 -62 -13t-24 -41l-25 -203q-5 -40 -23 -61t-49 -33q25 -11 38 -31.5t13 -45.5q0 -2 -0.5 -7.5t-1.5 -12.5l-24 -194q-1 -11 -1.5 -17.5t-0.5 -8.5
q0 -20 17 -31t56 -11h10q15 0 18.5 -7t2.5 -18l-7 -58q-1 -13 -8 -19t-20 -6h-6q-95 0 -147.5 34.5t-52.5 99.5q0 4 0.5 13.5t1.5 15.5l24 193q1 6 1 10v7q0 20 -17 30t-53 10h-1q-15 0 -19 7t-3 18l6 57q1 13 8 19.5t20 6.5h2q40 0 59.5 13t23.5 41z" />
    <glyph glyph-name="braceright" unicode="}" horiz-adv-x="384" 
d="M305 549l-23 -183q-1 -6 -1.5 -11.5t-0.5 -9.5q0 -21 17 -31.5t54 -10.5h1q14 0 18.5 -7t3.5 -19l-6 -57q-1 -13 -8.5 -19t-20.5 -6h-1q-40 0 -59.5 -13t-23.5 -41l-26 -211q-8 -67 -61 -107.5t-163 -40.5h-17q-14 0 -19 6.5t-4 18.5l7 58q1 13 8.5 19t20.5 6h9
q42 0 62.5 13t23.5 41l25 210q4 40 23 61t50 34q-25 10 -38 30.5t-13 47.5q0 6 1 15t2 15l23 186q1 6 1.5 11.5t0.5 7.5q0 17 -18 27.5t-56 10.5h-10q-14 0 -18 7t-3 18l7 58q1 13 8 19t20 6h9q95 0 145.5 -35.5t50.5 -98.5v-10.5t-1 -14.5z" />
    <glyph glyph-name="numbersign" unicode="#" horiz-adv-x="615" 
d="M267 347l-32 -75h123l31 75h-122zM57 272h69l31 75h-42q-13 0 -18.5 5.5t-4.5 18.5l6 44q1 13 8 18t20 5h69l32 78q4 12 12.5 19t21.5 7h60q13 0 16 -7.5t-1 -18.5l-32 -78h122l33 78q5 12 12.5 19t20.5 7h61q13 0 15.5 -7.5t-1.5 -18.5l-32 -78h40q13 0 18 -5t4 -18
l-5 -44q-1 -13 -8 -18.5t-20 -5.5h-66l-31 -75h40q13 0 18 -5t4 -18l-4 -44q-1 -13 -8.5 -19t-20.5 -6h-66l-32 -78q-5 -13 -12.5 -19t-20.5 -6h-61q-11 0 -15.5 6t0.5 19l32 78h-123l-32 -78q-5 -13 -12 -19t-20 -6h-62q-11 0 -15.5 6t0.5 19l32 78h-42q-13 0 -18 6t-4 19
l5 44q1 13 7.5 18t19.5 5z" />
    <glyph glyph-name="percent" unicode="%" horiz-adv-x="802" 
d="M664 662l-407 -644q-8 -13 -16.5 -19.5t-21.5 -6.5h-65q-11 0 -12.5 9t3.5 17l406 644q7 10 17 18t23 8h65q11 0 13 -8t-5 -18zM356 578l-19 -156q-4 -36 -35 -67.5t-112 -31.5q-72 0 -105.5 27.5t-33.5 60.5v8t1 12l18 154q4 37 36.5 68t115.5 31q69 0 102 -28t33 -62
v-5t-1 -11zM152 446q-1 -7 -1 -10.5v-4.5q0 -16 10.5 -22.5t31.5 -6.5q15 0 29.5 8.5t16.5 27.5l16 124q1 7 1 9.5v3.5q0 17 -12.5 23.5t-26.5 6.5q-24 0 -35.5 -8t-13.5 -27zM762 251l-19 -156q-4 -36 -35 -67.5t-112 -31.5q-72 0 -105.5 27.5t-33.5 60.5v8t1 12l18 154
q4 37 36.5 68t115.5 31q69 0 102 -28t33 -62v-5t-1 -11zM558 119q-1 -7 -1 -10.5v-4.5q0 -16 10.5 -22.5t31.5 -6.5q15 0 29.5 8.5t16.5 27.5l16 124q1 7 1 9.5v3.5q0 17 -12.5 23.5t-26.5 6.5q-24 0 -35.5 -8t-13.5 -27z" />
    <glyph glyph-name="perthousand" unicode="&#x2030;" horiz-adv-x="1143" 
d="M664 662l-407 -644q-8 -13 -16.5 -19.5t-21.5 -6.5h-65q-11 0 -12.5 9t3.5 17l406 644q7 10 17 18t23 8h65q11 0 13 -8t-5 -18zM356 578l-19 -156q-4 -36 -35 -67.5t-112 -31.5q-72 0 -105.5 27.5t-33.5 60.5v8t1 12l18 154q4 37 36.5 68t115.5 31q69 0 102 -28t33 -62
v-5t-1 -11zM152 446q-1 -7 -1 -10.5v-4.5q0 -16 10.5 -22.5t31.5 -6.5q15 0 29.5 8.5t16.5 27.5l16 124q1 7 1 9.5v3.5q0 17 -12.5 23.5t-26.5 6.5q-24 0 -35.5 -8t-13.5 -27zM1104 251l-19 -156q-4 -36 -35 -67.5t-112 -31.5q-72 0 -105.5 27.5t-33.5 60.5v8t1 12l18 154
q4 37 36.5 68t115.5 31q69 0 102 -28t33 -62v-5t-1 -11zM762 251l-19 -156q-4 -36 -35 -67.5t-112 -31.5q-72 0 -105.5 27.5t-33.5 60.5v8t1 12l18 154q4 37 36.5 68t115.5 31q69 0 102 -28t33 -62v-5t-1 -11zM900 119q-1 -7 -1 -10.5v-4.5q0 -16 10.5 -22.5t31.5 -6.5
q15 0 29.5 8.5t16.5 27.5l16 124q1 7 1 9.5v3.5q0 17 -12.5 23.5t-26.5 6.5q-24 0 -35.5 -8t-13.5 -27zM558 119q-1 -7 -1 -10.5v-4.5q0 -16 10.5 -22.5t31.5 -6.5q15 0 29.5 8.5t16.5 27.5l16 124q1 7 1 9.5v3.5q0 17 -12.5 23.5t-26.5 6.5q-24 0 -35.5 -8t-13.5 -27z" />
    <glyph glyph-name="quotesingle" unicode="'" horiz-adv-x="220" 
d="M218 654l-30 -163q-2 -13 -8 -19t-19 -6h-59q-13 0 -17.5 6t-3.5 19l9 163q1 13 7.5 19.5t19.5 6.5h81q13 0 17.5 -6.5t2.5 -19.5z" />
    <glyph glyph-name="quotedbl" unicode="&#x22;" horiz-adv-x="399" 
d="M397 654l-31 -163q-2 -13 -7.5 -19t-18.5 -6h-59q-13 0 -18 6t-4 19l10 163q1 13 7.5 19.5t19.5 6.5h81q13 0 17.5 -6.5t2.5 -19.5zM218 654l-30 -163q-2 -13 -8 -19t-19 -6h-59q-13 0 -17.5 6t-3.5 19l9 163q1 13 7.5 19.5t19.5 6.5h81q13 0 17.5 -6.5t2.5 -19.5z" />
    <glyph glyph-name="quoteleft" unicode="&#x2018;" horiz-adv-x="265" 
d="M214 597l-8 -67q-1 -13 -8 -19t-20 -6h-85q-13 0 -17.5 6t-3.5 19l10 74q8 61 49 96.5t113 51.5q13 3 19.5 0t9.5 -16l13 -56q3 -13 -2.5 -20t-18.5 -11q-27 -9 -38 -21t-13 -31z" />
    <glyph glyph-name="quoteright" unicode="&#x2019;" horiz-adv-x="261" 
d="M138 660l8 67q1 13 8 19t20 6h85q13 0 17.5 -6t3.5 -19l-10 -74q-8 -61 -49 -96.5t-113 -51.5q-13 -3 -19.5 0t-9.5 16l-13 56q-3 13 2.5 20t18.5 11q27 9 38 21t13 31z" />
    <glyph glyph-name="quotedblleft" unicode="&#x201c;" horiz-adv-x="483" 
d="M432 597l-8 -67q-1 -13 -8 -19t-20 -6h-85q-13 0 -17.5 6t-3.5 19l10 74q8 61 49 96.5t113 51.5q13 3 19.5 0t9.5 -16l13 -56q3 -13 -2.5 -20t-18.5 -11q-27 -9 -38 -21t-13 -31zM214 597l-8 -67q-1 -13 -8 -19t-20 -6h-85q-13 0 -17.5 6t-3.5 19l10 74q8 61 49 96.5
t113 51.5q13 3 19.5 0t9.5 -16l13 -56q3 -13 -2.5 -20t-18.5 -11q-27 -9 -38 -21t-13 -31z" />
    <glyph glyph-name="quotedblright" unicode="&#x201d;" horiz-adv-x="479" 
d="M138 660l8 67q1 13 8 19t20 6h85q13 0 17.5 -6t3.5 -19l-10 -74q-8 -61 -49 -96.5t-113 -51.5q-13 -3 -19.5 0t-9.5 16l-13 56q-3 13 2.5 20t18.5 11q27 9 38 21t13 31zM356 660l8 67q1 13 8 19t20 6h85q13 0 17.5 -6t3.5 -19l-10 -74q-8 -61 -49 -96.5t-113 -51.5
q-13 -3 -19.5 0t-9.5 16l-13 56q-3 13 2.5 20t18.5 11q27 9 38 21t13 31z" />
    <glyph glyph-name="quotesinglbase" unicode="&#x201a;" horiz-adv-x="229" 
d="M28 39l8 67q1 13 8 19t20 6h85q13 0 17.5 -6t3.5 -19l-10 -74q-8 -61 -49 -96.5t-113 -51.5q-13 -3 -19.5 0t-9.5 16l-13 56q-3 13 2.5 20t18.5 11q27 9 38 21t13 31z" />
    <glyph glyph-name="quotedblbase" unicode="&#x201e;" horiz-adv-x="447" 
d="M28 39l8 67q1 13 8 19t20 6h85q13 0 17.5 -6t3.5 -19l-10 -74q-8 -61 -49 -96.5t-113 -51.5q-13 -3 -19.5 0t-9.5 16l-13 56q-3 13 2.5 20t18.5 11q27 9 38 21t13 31zM246 39l8 67q1 13 8 19t20 6h85q13 0 17.5 -6t3.5 -19l-10 -74q-8 -61 -49 -96.5t-113 -51.5
q-13 -3 -19.5 0t-9.5 16l-13 56q-3 13 2.5 20t18.5 11q27 9 38 21t13 31z" />
    <glyph glyph-name="guilsinglleft" unicode="&#x2039;" horiz-adv-x="326" 
d="M136 244l97 -74q10 -7 16 -14.5t5 -20.5l-10 -81q-1 -13 -10 -18t-17 2l-171 134q-7 6 -13 14.5t-5 22.5l9 74q1 13 9.5 22t18.5 15l203 133q10 6 17 1.5t6 -17.5l-10 -85q-1 -13 -10 -21t-19 -14z" />
    <glyph glyph-name="guilsinglright" unicode="&#x203a;" horiz-adv-x="325" 
d="M180 247l-97 74q-10 7 -16 14.5t-5 20.5l10 81q1 13 10 18t17 -2l171 -134q7 -6 13 -14.5t5 -22.5l-9 -74q-1 -13 -9.5 -22t-18.5 -15l-203 -133q-10 -6 -17 -1.5t-6 17.5l10 85q1 13 10 21t19 14z" />
    <glyph glyph-name="guillemotleft" unicode="&#xab;" horiz-adv-x="565" 
d="M375 244l97 -74q10 -7 16 -14.5t5 -20.5l-10 -81q-1 -13 -10 -18t-17 2l-171 134q-7 6 -13 14.5t-5 22.5l9 74q1 13 9.5 22t18.5 15l203 133q10 6 17 1.5t6 -17.5l-10 -85q-1 -13 -10 -21t-19 -14zM136 244l97 -74q10 -7 16 -14.5t5 -20.5l-10 -81q-1 -13 -10 -18t-17 2
l-171 134q-7 6 -13 14.5t-5 22.5l9 74q1 13 9.5 22t18.5 15l203 133q10 6 17 1.5t6 -17.5l-10 -85q-1 -13 -10 -21t-19 -14z" />
    <glyph glyph-name="guillemotright" unicode="&#xbb;" horiz-adv-x="570" 
d="M181 254l-97 74q-10 7 -16 14.5t-5 20.5l10 81q1 13 10 18t17 -2l171 -134q7 -6 13 -14.5t5 -22.5l-9 -74q-1 -13 -9.5 -22t-18.5 -15l-203 -133q-10 -6 -17 -1.5t-6 17.5l10 85q1 13 10 21t19 14zM425 254l-97 74q-10 7 -16 14.5t-5 20.5l10 81q1 13 10 18t17 -2
l171 -134q7 -6 13 -14.5t5 -22.5l-9 -74q-1 -13 -9.5 -22t-18.5 -15l-203 -133q-10 -6 -17 -1.5t-6 17.5l10 85q1 13 10 21t19 14z" />
    <glyph glyph-name="asterisk" unicode="*" horiz-adv-x="490" 
d="M204 312l23 121l-115 -70q-11 -7 -19.5 -4.5t-12.5 13.5l-16 40q-4 11 -1 19t16 14l110 48l-97 49q-12 6 -13.5 13.5t5.5 19.5l24 37q7 12 16 14t19 -5l99 -69l7 131q1 14 8 19.5t20 5.5h45q13 0 18 -6t2 -19l-25 -127l109 66q13 7 20 5t12 -13l18 -39q5 -11 2 -19
t-16 -14l-112 -50l99 -48q13 -6 13.5 -14t-6.5 -19l-24 -39q-7 -11 -16 -13t-19 5l-95 65l-6 -117q-1 -14 -7.5 -20t-19.5 -6h-44q-13 0 -18 6.5t-3 19.5z" />
    <glyph glyph-name="dagger" unicode="&#x2020;" horiz-adv-x="591" 
d="M409 673l-79 -647q-1 -13 -7.5 -19.5t-19.5 -6.5h-83q-13 0 -17.5 6.5t-3.5 19.5l79 647q1 13 8 19.5t20 6.5h83q13 0 17 -6.5t3 -19.5zM441 514h127q13 0 18 -5t4 -18l-7 -60q-1 -13 -8 -19t-20 -6h-126q-13 0 -18 6t-4 19l6 60q1 13 8 18t20 5zM79 514h126q13 0 18 -5
t4 -18l-6 -60q-1 -13 -8 -19t-20 -6h-127q-13 0 -18 6t-4 19l7 60q1 13 8 18t20 5z" />
    <glyph glyph-name="daggerdbl" unicode="&#x2021;" horiz-adv-x="591" 
d="M410 673l-80 -647q-1 -13 -7.5 -19.5t-19.5 -6.5h-83q-13 0 -17.5 6.5t-3.5 19.5l79 647q1 13 8 19.5t20 6.5h83q13 0 17.5 -6.5t3.5 -19.5zM590 491l-6 -60q-1 -13 -8 -19t-20 -6h-127q-13 0 -18 6t-4 19l7 60q1 13 8 18t20 5h126q13 0 18 -5t4 -18zM51 491q1 13 8.5 18
t20.5 5h126q13 0 18 -5t4 -18l-6 -60q-1 -13 -8.5 -19t-20.5 -6h-126q-13 0 -18 6t-4 19zM563 266l-7 -59q-1 -13 -8 -19t-20 -6h-126q-13 0 -18.5 6t-4.5 19l7 59q1 13 8 18.5t20 5.5h127q13 0 18 -5.5t4 -18.5zM24 266q1 13 8 18.5t20 5.5h126q13 0 18 -5.5t4 -18.5
l-7 -59q-1 -13 -7.5 -19t-19.5 -6h-127q-13 0 -18 6t-4 19z" />
    <glyph glyph-name="period" unicode="." horiz-adv-x="236" 
d="M164 106l-10 -81q-1 -13 -7.5 -19t-19.5 -6h-85q-13 0 -17.5 6t-3.5 19l9 81q1 13 8 19t20 6h86q13 0 17 -6t3 -19z" />
    <glyph glyph-name="comma" unicode="," horiz-adv-x="251" 
d="M37 39l8 67q1 13 8 19t20 6h85q13 0 17.5 -6t3.5 -19l-10 -74q-8 -61 -49 -96.5t-113 -51.5q-13 -3 -19.5 0t-9.5 16l-13 56q-3 13 2.5 20t18.5 11q27 9 38 21t13 31z" />
    <glyph glyph-name="colon" unicode=":" horiz-adv-x="250" 
d="M215 473l-10 -82q-1 -13 -7.5 -19t-19.5 -6h-85q-13 0 -17.5 6t-3.5 19l10 82q1 13 7.5 19t19.5 6h86q13 0 17 -6t3 -19zM170 106l-10 -81q-1 -13 -7.5 -19t-19.5 -6h-85q-13 0 -17.5 6t-3.5 19l9 81q1 13 8 19t20 6h86q13 0 17 -6t3 -19z" />
    <glyph glyph-name="semicolon" unicode=";" horiz-adv-x="272" 
d="M232 473l-9 -82q-1 -13 -7.5 -19t-19.5 -6h-86q-13 0 -17.5 6t-3.5 19l10 82q1 13 8 19t20 6h85q13 0 17 -6t3 -19zM45 39l9 67q1 13 7.5 19t19.5 6h86q13 0 17 -6t3 -19l-9 -74q-7 -61 -48.5 -96.5t-113.5 -51.5q-13 -3 -19.5 0t-9.5 16l-13 56q-3 13 2 20t18 11
q28 9 38.5 21t12.5 31z" />
    <glyph glyph-name="ellipsis" unicode="&#x2026;" horiz-adv-x="731" 
d="M164 106l-10 -81q-1 -13 -7.5 -19t-19.5 -6h-85q-13 0 -17.5 6t-3.5 19l9 81q1 13 8 19t20 6h86q13 0 17 -6t3 -19zM659 106l-10 -81q-1 -13 -7.5 -19t-19.5 -6h-85q-13 0 -17.5 6t-3.5 19l9 81q1 13 8 19t20 6h86q13 0 17 -6t3 -19zM412 106l-10 -81q-1 -13 -7.5 -19
t-19.5 -6h-85q-13 0 -17.5 6t-3.5 19l9 81q1 13 8 19t20 6h86q13 0 17 -6t3 -19z" />
    <glyph glyph-name="exclam" unicode="!" horiz-adv-x="258" 
d="M211 390l-36 -183q-3 -13 -9 -19t-19 -6h-61q-13 0 -17.5 6t-3.5 19l9 183l32 264q1 13 8 19.5t20 6.5h88q13 0 17 -6.5t3 -19.5zM173 106l-10 -81q-1 -13 -7 -19t-19 -6h-87q-13 0 -18 6t-4 19l10 81q1 13 8 19t20 6h87q13 0 17 -6t3 -19z" />
    <glyph glyph-name="exclamdown" unicode="&#xa1;" horiz-adv-x="250" 
d="M72 392l10 81q1 13 7 19t19 6h87q13 0 18 -6t4 -19l-10 -81q-1 -13 -8 -19t-20 -6h-87q-13 0 -17 6t-3 19zM34 108l36 183q3 13 9 19t19 6h61q13 0 17.5 -6t3.5 -19l-9 -183l-32 -264q-1 -13 -8 -19.5t-20 -6.5h-88q-13 0 -17 6.5t-3 19.5z" />
    <glyph glyph-name="question" unicode="?" horiz-adv-x="525" 
d="M157 206l9 69q5 42 27 60t47 30l98 47q13 6 27 19t18 42l4 24l1.5 15t0.5 9q0 28 -23.5 42.5t-68.5 14.5q-49 0 -75 -19t-32 -56l-6 -39q-2 -13 -7.5 -19t-18.5 -6h-83q-10 0 -17 5t-5 20l8 61q8 63 60 113t186 50q117 0 167 -46t50 -101v-7t-1 -15l-5 -47
q-7 -72 -43.5 -103.5t-68.5 -45.5l-60 -26q-22 -10 -33.5 -21t-15.5 -35l-5 -35q-2 -13 -7.5 -18.5t-18.5 -5.5h-87q-13 0 -18 6t-4 18zM280 106l-9 -81q-1 -13 -7.5 -19t-19.5 -6h-87q-11 0 -16.5 4.5t-4.5 20.5l9 81q1 13 8 19t20 6h87q14 0 17.5 -6.5t2.5 -18.5z" />
    <glyph glyph-name="questiondown" unicode="&#xbf;" horiz-adv-x="520" 
d="M234 392l9 81q1 13 7.5 19t19.5 6h87q11 0 16.5 -4.5t4.5 -20.5l-9 -81q-1 -13 -8 -19t-20 -6h-87q-14 0 -17.5 6.5t-2.5 18.5zM357 292l-9 -69q-5 -42 -27 -60t-47 -30l-98 -47q-13 -6 -27 -19t-18 -42l-4 -24l-1.5 -15t-0.5 -9q0 -28 23.5 -42.5t68.5 -14.5q49 0 75 19
t32 56l6 39q2 13 7.5 19t18.5 6h83q10 0 17 -5t5 -20l-8 -61q-8 -63 -60 -113t-186 -50q-117 0 -167 46t-50 101v7t1 15l5 47q7 72 43.5 103.5t68.5 45.5l60 26q22 10 33.5 21t15.5 35l5 35q2 13 7.5 18.5t18.5 5.5h87q13 0 18 -6t4 -18z" />
    <glyph glyph-name="slash" unicode="/" horiz-adv-x="389" 
d="M414 673l-297 -795q-5 -13 -12.5 -19.5t-20.5 -6.5h-93q-11 0 -15 6.5t0 19.5l296 795q4 13 11 19.5t20 6.5h94q13 0 17 -6.5t0 -19.5z" />
    <glyph glyph-name="backslash" unicode="\" horiz-adv-x="385" 
d="M173 -122l-100 795q-1 12 4 19t18 7h88q13 0 19.5 -6.5t7.5 -19.5l100 -795q1 -13 -5 -19.5t-18 -6.5h-88q-13 0 -19 6.5t-7 19.5z" />
    <glyph glyph-name="fraction" unicode="&#x2044;" horiz-adv-x="112" 
d="M322 662l-407 -644q-8 -13 -16.5 -19.5t-21.5 -6.5h-65q-11 0 -12.5 9t3.5 17l406 644q7 10 17 18t23 8h65q11 0 13 -8t-5 -18z" />
    <glyph glyph-name="bar" unicode="|" horiz-adv-x="303" 
d="M213 673v-858q0 -13 -5 -19.5t-18 -6.5h-87q-13 0 -19 6.5t-6 19.5v858q0 13 6 19.5t19 6.5h87q13 0 18 -6.5t5 -19.5z" />
    <glyph glyph-name="brokenbar" unicode="&#xa6;" horiz-adv-x="303" 
d="M210 654v-314q0 -13 -5 -19.5t-18 -6.5h-83q-13 0 -19 6.5t-6 19.5v314q0 13 6 19.5t19 6.5h83q13 0 18 -6.5t5 -19.5zM210 129v-314q0 -13 -5 -19.5t-18 -6.5h-83q-13 0 -19 6.5t-6 19.5v314q0 13 6 19.5t19 6.5h83q13 0 18 -6.5t5 -19.5z" />
    <glyph glyph-name="at" unicode="@" horiz-adv-x="925" 
d="M583 -150h-170q-118 0 -193.5 16.5t-118 43t-58.5 62t-16 72.5q0 9 1 19t2 17l42 347q5 41 23 82t64 72.5t128.5 51t215.5 19.5q118 0 193 -16t118 -43t59 -62t16 -73q0 -7 -0.5 -16t-1.5 -17l-29 -232q-8 -69 -52.5 -114.5t-149.5 -45.5q-60 0 -95.5 18t-48.5 44
q-20 -16 -61 -39t-100 -23q-57 0 -86 27.5t-29 74.5q0 10 1.5 22t3.5 22l28 133q14 69 50.5 107.5t105.5 38.5q40 0 76 -16.5t57 -32.5l5 16q4 13 10 19t19 6h73q13 0 17.5 -7.5t2.5 -17.5l-48 -206q-4 -16 -5.5 -27t-1.5 -21q0 -19 9.5 -31t32.5 -12q33 0 45 24.5t16 58.5
l26 209q1 7 1 12.5v7.5q0 49 -54 77.5t-212 28.5q-86 0 -142 -8.5t-89 -25t-47.5 -39.5t-17.5 -52l-41 -336q-1 -6 -1 -12v-10q0 -50 54 -78.5t212 -28.5h175q15 0 18.5 -7t2.5 -18l-6 -56q-1 -13 -8.5 -19t-20.5 -6zM391 286l-17 -79l-2 -14t-1 -10q0 -15 10 -23.5t36 -8.5
q25 0 47 8.5t38 17.5v2.5t1 5.5l28 125q-11 10 -30 21.5t-45 11.5q-33 0 -47 -18.5t-18 -38.5z" />
    <glyph glyph-name="ampersand" unicode="&#x26;" horiz-adv-x="677" 
d="M553 155q-7 -63 -64.5 -113t-211.5 -50q-137 0 -190 42t-53 99v10.5t1 13.5l11 83q5 42 27 69.5t71 44.5q-35 12 -49.5 34t-14.5 50v8t1 12l9 71q8 62 55.5 110.5t182.5 48.5q111 0 161 -40t50 -100v-6t-1 -13l-3 -36q-1 -13 -7.5 -19t-19.5 -6h-84q-14 0 -18 7t-3 18
l2 16q1 7 1 10v4q0 31 -25 44t-62 13q-43 0 -69 -16.5t-30 -57.5l-3 -28q-1 -7 -1 -11v-6q0 -28 22 -42.5t67 -14.5h337q14 0 18.5 -6t3.5 -18l-7 -59q-1 -13 -8 -19t-20 -6h-59zM289 100q64 0 97.5 18.5t37.5 55.5l15 122h-156q-53 0 -78 -18t-29 -55l-6 -48q-1 -6 -1 -9
v-6q0 -34 37 -47t83 -13z" />
    <glyph glyph-name="section" unicode="&#xa7;" horiz-adv-x="512" 
d="M436 203q-1 -13 -7.5 -18.5t-19.5 -5.5h-72q-10 0 -16.5 5t-5.5 19l7 62q2 22 -6 31.5t-25 14.5l-125 40q-32 10 -63 39t-31 77q0 3 0.5 8.5t1.5 10.5l7 57q7 63 57 104t163 41q101 0 147 -33.5t46 -84.5v-5t-1 -13l-1 -16q-1 -13 -7.5 -19t-19.5 -6h-73q-13 0 -17.5 5.5
t-3.5 19.5l1 13q2 31 -15.5 42t-58.5 11q-43 0 -63 -12t-24 -40l-7 -56q-3 -24 12.5 -34.5t29.5 -14.5l121 -39q39 -13 59.5 -38t20.5 -64v-12t-1 -13zM54 206l9 76q1 13 7.5 18.5t19.5 5.5h73q10 0 16.5 -5t5.5 -19l-7 -61q-3 -24 6 -33t25 -14l125 -40q32 -10 62.5 -38.5
t30.5 -76.5v-8.5t-1 -10.5l-7 -58q-7 -63 -57 -104t-163 -41q-101 0 -147 33t-46 90v13l1 17q1 13 8 18.5t20 5.5h73q12 0 17 -5.5t4 -19.5l-1 -13q-2 -28 13.5 -40.5t60.5 -12.5q43 0 63 12t24 40l7 56q3 24 -12.5 34.5t-29.5 14.5l-122 39q-39 13 -59.5 38t-20.5 65
q0 5 0.5 11t1.5 13z" />
    <glyph glyph-name="paragraph" unicode="&#xb6;" horiz-adv-x="649" 
d="M628 654l-102 -830q-1 -13 -7.5 -19t-19.5 -6h-87q-12 0 -17 5t-4 20l102 830q1 13 7.5 19.5t19.5 6.5h87q14 0 18 -7t3 -19zM426 655l-102 -831q-1 -13 -8 -19t-20 -6h-87q-11 0 -16.5 5.5t-4.5 19.5l56 458h-24q-93 0 -135.5 32t-42.5 81q0 4 0.5 9.5t1.5 10.5l16 134
q7 54 47.5 92.5t161.5 38.5h134q13 0 18.5 -7t4.5 -18z" />
    <glyph glyph-name="afii61289" unicode="&#x2113;" horiz-adv-x="534" 
d="M103 149l3 29q-13 -6 -23 -10t-14 -5q-12 -4 -19 -2t-11 13l-19 63q-4 12 0 19.5t17 13.5l11 4.5t25 10.5l28 12t20 9l28 217q8 63 58.5 113t154.5 50q101 0 141 -45t40 -100q0 -54 -26.5 -98.5t-68.5 -80.5t-95.5 -65.5t-107.5 -54.5l-7 -57q-1 -7 -1.5 -13t-0.5 -10
q0 -28 17 -41.5t51 -13.5h114q13 0 18 -5.5t4 -18.5l-7 -59q-1 -13 -8 -18.5t-20 -5.5h-115q-106 0 -147 38.5t-41 92.5v5.5t1 12.5zM278 506l-17 -134q62 32 109 68.5t47 85.5q0 25 -15.5 39t-46.5 14q-34 0 -53.5 -18t-23.5 -55z" />
    <glyph glyph-name="periodcentered" unicode="&#xb7;" horiz-adv-x="250" 
d="M196 317l-10 -81q-1 -13 -7.5 -19t-19.5 -6h-85q-13 0 -17.5 6t-3.5 19l9 81q1 13 8 19t20 6h86q13 0 17 -6t3 -19z" />
    <glyph glyph-name="bullet" unicode="&#x2022;" horiz-adv-x="295" 
d="M221 344l-18 -145q-1 -13 -7.5 -19t-19.5 -6h-85q-13 0 -17.5 6t-3.5 19l18 145q1 13 7.5 19.5t19.5 6.5h85q13 0 17.5 -6.5t3.5 -19.5z" />
    <glyph glyph-name="plus" unicode="+" horiz-adv-x="509" 
d="M206 143v141h-141q-13 0 -19.5 6t-6.5 19v59q0 13 6.5 18.5t19.5 5.5h141v142q0 13 5 19.5t18 6.5h59q13 0 19 -6.5t6 -19.5v-142h143q13 0 19 -5.5t6 -18.5v-59q0 -13 -6 -19t-19 -6h-143v-141q0 -13 -6 -19t-19 -6h-59q-13 0 -18 6t-5 19z" />
    <glyph glyph-name="minus" unicode="&#x2212;" horiz-adv-x="581" 
d="M120 381h411q13 0 19.5 -5.5t6.5 -18.5v-59q0 -13 -6.5 -19t-19.5 -6h-411q-13 0 -19 6t-6 19v59q0 13 6 18.5t19 5.5z" />
    <glyph glyph-name="plusminus" unicode="&#xb1;" horiz-adv-x="566" 
d="M223 234v94h-142q-13 0 -19 5.5t-6 18.5v60q0 13 6 18t19 5h142v94q0 13 5 19t18 6h59q13 0 19 -6t6 -19v-94h142q13 0 19.5 -5t6.5 -18v-60q0 -13 -6.5 -18.5t-19.5 -5.5h-142v-94q0 -13 -6 -19t-19 -6h-59q-13 0 -18 6t-5 19zM81 153h391q13 0 19.5 -5.5t6.5 -18.5v-59
q0 -13 -6.5 -19t-19.5 -6h-391q-13 0 -19 6t-6 19v59q0 13 6 18.5t19 5.5z" />
    <glyph glyph-name="divide" unicode="&#xf7;" horiz-adv-x="539" 
d="M337 517v-81q0 -13 -5.5 -19t-18.5 -6h-85q-13 0 -19 6t-6 19v81q0 13 6 19t19 6h85q13 0 18.5 -6t5.5 -19zM64 352h412q13 0 19 -5.5t6 -18.5v-60q0 -13 -6 -18.5t-19 -5.5h-412q-13 0 -19 5.5t-6 18.5v60q0 13 6 18.5t19 5.5zM337 161v-82q0 -13 -5.5 -18.5t-18.5 -5.5
h-85q-13 0 -19 5.5t-6 18.5v82q0 13 6 19t19 6h85q13 0 18.5 -6t5.5 -19z" />
    <glyph glyph-name="multiply" unicode="&#xd7;" horiz-adv-x="472" 
d="M165 342l-100 100q-10 10 -10 17.5t9 16.5l41 43q9 10 17.5 9.5t18.5 -10.5l100 -100l101 101q9 9 17.5 10t17.5 -9l42 -43q9 -9 8.5 -17t-9.5 -17l-101 -101l101 -100q9 -9 9.5 -17.5t-9.5 -18.5l-42 -42q-9 -9 -16.5 -8t-17.5 10l-101 100l-99 -100q-10 -10 -18 -10
t-17 9l-43 43q-9 9 -9 17t10 18z" />
    <glyph glyph-name="equal" unicode="=" horiz-adv-x="607" 
d="M99 478h412q13 0 19 -5.5t6 -18.5v-60q0 -13 -6 -18.5t-19 -5.5h-412q-13 0 -19 5.5t-6 18.5v60q0 13 6 18.5t19 5.5zM99 273h412q13 0 19 -5t6 -18v-60q0 -13 -6 -19t-19 -6h-412q-13 0 -19 6t-6 19v60q0 13 6 18t19 5z" />
    <glyph glyph-name="less" unicode="&#x3c;" horiz-adv-x="509" 
d="M421 435l-251 -96l251 -96q12 -4 19 -9.5t7 -18.5v-79q0 -13 -6.5 -21t-19.5 -3l-356 154q-10 4 -16.5 9t-6.5 18v92q0 13 6.5 18t16.5 9l356 154q13 5 19.5 -3t6.5 -21v-79q0 -13 -7 -18.5t-19 -9.5z" />
    <glyph glyph-name="greater" unicode="&#x3e;" horiz-adv-x="504" 
d="M346 338l-252 96q-11 4 -18 9.5t-7 18.5v80q0 13 6 21.5t19 3.5l357 -154q9 -4 15.5 -9t6.5 -18v-94q0 -13 -6.5 -18t-15.5 -9l-357 -154q-13 -5 -19 3t-6 21v81q0 13 7 18.5t18 9.5z" />
    <glyph glyph-name="lessequal" unicode="&#x2264;" horiz-adv-x="532" 
d="M441 500l-251 -76l251 -76q11 -3 18 -8.5t7 -18.5v-80q0 -13 -6 -20.5t-19 -3.5l-356 134q-10 4 -16.5 9t-6.5 18v93q0 13 6.5 18t16.5 9l356 133q13 4 19 -3.5t6 -20.5v-79q0 -13 -7 -19t-18 -9zM87 177h354q13 0 19 -5.5t6 -18.5v-59q0 -13 -6 -18.5t-19 -5.5h-354
q-13 0 -19 5.5t-6 18.5v59q0 13 6 18.5t19 5.5z" />
    <glyph glyph-name="greaterequal" unicode="&#x2265;" horiz-adv-x="542" 
d="M354 424l-251 76q-12 4 -18.5 9.5t-6.5 18.5v80q0 13 6 20.5t19 3.5l356 -133q10 -4 16 -9.5t6 -18.5v-93q0 -13 -6 -18t-16 -9l-356 -134q-13 -5 -19 3t-6 21v80q0 13 6.5 18.5t18.5 9.5zM103 177h353q13 0 19 -5.5t6 -18.5v-60q0 -13 -6 -18.5t-19 -5.5h-353
q-13 0 -19 5.5t-6 18.5v60q0 13 6 18.5t19 5.5z" />
    <glyph glyph-name="approxequal" unicode="&#x2248;" horiz-adv-x="500" 
d="M445 443l-4 -41q-5 -50 -30 -72t-53 -22q-15 0 -32 4t-29 10l-90 42q-9 4 -17.5 7t-15.5 3q-13 0 -16.5 -9t-5.5 -22l-1 -6q-2 -13 -8.5 -17.5t-18.5 -4.5h-42q-13 0 -17.5 7.5t-3.5 20.5l5 48q5 48 30.5 68t52.5 20q13 0 28.5 -3t26.5 -8l89 -41q11 -5 22 -9t19 -4
q10 0 13.5 8.5t6.5 22.5l1 5q2 13 8 17.5t19 4.5h42q14 0 18 -7.5t3 -21.5zM445 254l-4 -41q-5 -50 -30 -72t-53 -22q-15 0 -32 4t-29 10l-90 42q-9 4 -17.5 7t-15.5 3q-13 0 -16.5 -9t-5.5 -22l-1 -6q-2 -13 -8.5 -17.5t-18.5 -4.5h-42q-13 0 -17.5 7.5t-3.5 20.5l5 48
q5 48 30.5 68t52.5 20q13 0 28.5 -3t26.5 -8l89 -41q11 -5 22 -9t19 -4q10 0 13.5 8.5t6.5 22.5l1 5q2 13 8 17.5t19 4.5h42q14 0 18 -7.5t3 -21.5z" />
    <glyph glyph-name="notequal" unicode="&#x2260;" horiz-adv-x="607" 
d="M289 110q-4 -13 -11.5 -19t-20.5 -6h-77q-11 0 -15.5 6.5t-0.5 18.5l20 55h-85q-13 0 -19 6t-6 19v60q0 13 6 18t19 5h125l37 97h-162q-13 0 -19 5.5t-6 18.5v60q0 13 6 18.5t19 5.5h202l20 55q4 13 11 19.5t20 6.5h78q13 0 17 -6.5t0 -19.5l-21 -55h85q13 0 19 -5.5
t6 -18.5v-60q0 -13 -6 -18.5t-19 -5.5h-125l-36 -97h161q13 0 19 -5t6 -18v-60q0 -13 -6 -19t-19 -6h-201z" />
    <glyph glyph-name="logicalnot" unicode="&#xac;" 
d="M47 320q0 52 36.5 89t88.5 37t89 -37t37 -89q0 -51 -37 -88t-89 -37t-88.5 37t-36.5 88z" />
    <glyph glyph-name="partialdiff" unicode="&#x2202;" horiz-adv-x="400" 
d="M86 187v273q0 13 12 14.5t23 -5.5l207 -128q10 -6 10 -17t-10 -17l-207 -128q-11 -7 -23 -6t-12 14z" />
    <glyph glyph-name="product" unicode="&#x220f;" horiz-adv-x="400" 
d="M338 195h-273q-13 0 -14.5 12t5.5 24l128 207q6 10 17 10t17 -10l128 -207q7 -12 6 -24t-14 -12z" />
    <glyph glyph-name="summation" unicode="&#x2211;" horiz-adv-x="400" 
d="M314 460v-273q0 -13 -12 -14t-23 6l-207 128q-10 6 -10 17t10 17l207 128q11 7 23 5.5t12 -14.5z" />
    <glyph glyph-name="radical" unicode="&#x221a;" horiz-adv-x="400" 
d="M109 446h182q18 0 26 -7.5t8 -26.5v-181q0 -19 -8 -27t-26 -8h-182q-18 0 -26 8t-8 27v181q0 19 8 26.5t26 7.5zM291 426h-182q-7 0 -11 -3.5t-4 -10.5v-181q0 -7 4 -11.5t11 -4.5h182q7 0 10.5 4.5t3.5 11.5v181q0 7 -3.5 10.5t-10.5 3.5z" />
    <glyph glyph-name="infinity" unicode="&#x221e;" horiz-adv-x="400" 
d="M47 345l129 129q7 7 12.5 9.5t11.5 2.5t11.5 -2.5t12.5 -9.5l129 -129q6 -6 9 -12t3 -12t-2.5 -12t-9.5 -12l-129 -128q-7 -7 -12.5 -10.5t-11.5 -3.5t-11.5 3.5t-12.5 10.5l-129 128q-7 6 -10 12t-3 12t3.5 12t9.5 12zM190 460l-128 -128q-3 -3 -4.5 -6t-1.5 -6
q0 -2 1.5 -4.5t3.5 -4.5l129 -129q2 -2 4.5 -3.5t5.5 -1.5t5 1t5 4l129 129q2 2 3.5 4.5t1.5 4.5q0 3 -1.5 6t-4.5 6l-128 128q-2 2 -4.5 3t-5.5 1t-6 -1.5t-4 -2.5z" />
    <glyph glyph-name="integral" unicode="&#x222b;" horiz-adv-x="400" 
d="M23 320q0 73 51.5 125.5t124.5 52.5t125 -52.5t52 -125.5t-52 -124.5t-125 -51.5t-124.5 51.5t-51.5 124.5z" />
    <glyph glyph-name="dollar" unicode="$" horiz-adv-x="488" 
d="M253 0h-83q-13 0 -18 6.5t-4 19.5l8 62q-66 11 -96 41.5t-30 66.5v5.5t1 10.5l2 23q1 12 7 17.5t19 5.5h75q11 0 15.5 -5t3.5 -18l-1 -8q-1 -5 -1 -9.5v-6.5q0 -19 22 -27t53 -8q34 0 59 8.5t28 31.5l2 15q2 15 -8 25.5t-32 17.5l-137 50q-34 12 -53 41t-14 72l4 33
q5 41 36.5 77t107.5 46l7 61q1 13 8 19.5t20 6.5h83q13 0 17 -6.5t3 -19.5l-8 -65q57 -13 83 -44.5t26 -66.5v-5.5t-1 -10.5l-2 -17q-1 -13 -7 -18t-19 -5h-74q-12 0 -16.5 5.5t-3.5 17.5l1 12q1 7 1 10v4q0 18 -18.5 26t-48.5 8q-32 0 -53.5 -7.5t-23.5 -30.5l-1 -9
q-2 -21 4 -29.5t21 -13.5l139 -48q41 -14 62 -39t21 -54v-6.5t-1 -9.5l-6 -53q-4 -40 -37.5 -73t-107.5 -44l-7 -62q-1 -13 -7.5 -19.5t-19.5 -6.5z" />
    <glyph glyph-name="cent" unicode="&#xa2;" horiz-adv-x="505" 
d="M294 26q-1 -13 -7 -19.5t-19 -6.5h-83q-13 0 -18 6.5t-4 19.5l8 62q-65 10 -96.5 42.5t-31.5 80.5v9t1 11l27 219q7 57 44 95.5t118 48.5l7 60q1 13 8 19.5t20 6.5h83q13 0 17.5 -6.5t3.5 -19.5l-8 -63q61 -12 89.5 -44.5t28.5 -77.5v-7t-1 -14l-1 -15q-1 -13 -8 -18.5
t-20 -5.5h-76q-12 0 -17 5.5t-4 17.5l1 8q1 6 1 8.5v3.5q0 21 -16.5 31t-55.5 10q-43 0 -61 -12.5t-22 -40.5l-23 -185q-1 -5 -1.5 -13t-0.5 -12q0 -22 16 -32.5t55 -10.5q43 0 61 13t22 41l2 15q1 13 7.5 19t19.5 6h77q14 0 18 -7.5t3 -17.5l-3 -25q-7 -56 -41 -94
t-112 -50z" />
    <glyph glyph-name="sterling" unicode="&#xa3;" horiz-adv-x="635" 
d="M271 389h109q14 0 19 -7t4 -17l-8 -60q-1 -13 -8 -18.5t-20 -5.5h-109l-22 -173h151q29 0 47 18.5t22 60.5l1 11q1 13 8 19t20 6h79q14 0 18 -7t3 -18l-1 -9q-12 -110 -59 -149.5t-116 -39.5h-377q-13 0 -17.5 6.5t-3.5 18.5l7 59q1 13 8 18.5t20 5.5h55l22 173h-56
q-14 0 -18 6t-3 18l7 60q1 13 8 18.5t20 5.5h55l17 138q7 63 57.5 112t181.5 49q113 0 161.5 -42t48.5 -98q0 -4 -0.5 -10t-1.5 -11l-4 -34q-1 -13 -7.5 -19.5t-19.5 -6.5h-80q-13 0 -18 7t-4 19l1 10q1 7 1 11v5q0 29 -21 43t-65 14q-46 0 -70 -18t-28 -55z" />
    <glyph glyph-name="currency" unicode="&#xa4;" horiz-adv-x="620" 
d="M508 86q-10 -10 -18.5 -9t-16.5 10l-73 82q-21 -7 -46.5 -10.5t-55.5 -3.5q-31 0 -57.5 4t-46.5 11l-94 -83q-10 -9 -18 -9.5t-17 8.5l-30 32q-9 9 -6.5 17.5t12.5 17.5l85 76q-5 12 -7 26t0 30l14 110q2 16 7 30t13 27l-66 76q-7 9 -6.5 16.5t10.5 17.5l37 33q10 9 18 8
t16 -10l72 -82q21 7 46.5 11t56.5 4t57.5 -4.5t47.5 -11.5l94 83q10 9 18 10t16 -8l30 -33q8 -9 6 -17t-12 -17l-85 -76q5 -13 7 -27t0 -30l-14 -110q-2 -16 -7 -29.5t-12 -26.5l66 -76q8 -9 7 -17t-12 -18zM247 386l-12 -91q-3 -25 14.5 -38t56.5 -13q38 0 59 13t24 38
l11 91q3 25 -14.5 37.5t-56.5 12.5q-38 0 -58.5 -12.5t-23.5 -37.5z" />
    <glyph glyph-name="yen" unicode="&#xa5;" horiz-adv-x="578" 
d="M324 25q-1 -13 -7 -19t-19 -6h-87q-13 0 -18 6t-4 19l25 206h-135q-13 0 -18 5.5t-4 18.5l4 35q1 13 8 18.5t20 5.5h103l-18 54h-78q-13 0 -18 6t-4 19l4 35q1 13 8 18t20 5h39l-69 204q-4 11 2 18t19 7h97q13 0 18.5 -7t8.5 -18l67 -228q3 -11 5.5 -24t4.5 -29
q7 16 12.5 29t12.5 24l132 228q6 10 13 17.5t20 7.5h88q13 0 17.5 -6.5t-2.5 -18.5l-122 -204h44q13 0 18 -5t4 -18l-4 -35q-1 -13 -8 -19t-20 -6h-84l-33 -54h110q13 0 18 -5.5t4 -18.5l-4 -35q-1 -13 -8 -18.5t-20 -5.5h-136z" />
    <glyph glyph-name="Euro" unicode="&#x20ac;" horiz-adv-x="623" 
d="M558 155q-7 -63 -60 -113t-191 -50q-122 0 -171 43.5t-49 100.5q0 5 0.5 12t1.5 14l8 66h-36q-13 0 -18 6t-4 19l4 35q1 13 8 18t20 5h36l7 55h-37q-13 0 -17.5 5.5t-3.5 18.5l4 35q1 13 7.5 18.5t19.5 5.5h37l9 76q7 63 60 113t191 50q121 0 170.5 -43t49.5 -100
q0 -5 -0.5 -12t-1.5 -14l-5 -42q-1 -13 -7 -19t-19 -6h-84q-13 0 -17.5 7t-3.5 18l3 19q1 6 1 11v8q0 30 -24 45.5t-70 15.5q-50 0 -78 -19t-32 -56l-6 -52h92q13 0 18.5 -5.5t4.5 -18.5l-4 -35q-1 -13 -8.5 -18.5t-20.5 -5.5h-93l-7 -55h94q13 0 18 -5t4 -18l-4 -35
q-1 -13 -8.5 -19t-20.5 -6h-93l-5 -42q-1 -6 -1.5 -11t-0.5 -8q0 -31 24 -47t70 -16q50 0 78.5 19t32.5 56l4 38q1 13 8 19t20 6h83q14 0 17.5 -7t2.5 -18z" />
    <glyph glyph-name="florin" unicode="&#x192;" horiz-adv-x="438" 
d="M54 -49l88 379h-61q-13 0 -17.5 5.5t-3.5 18.5l6 55q1 13 7.5 19t19.5 6h72l29 126q16 67 69 107.5t163 40.5h25q13 0 18.5 -6t4.5 -19l-7 -58q-1 -13 -8.5 -19t-20.5 -6h-20q-42 0 -65 -13t-30 -41l-27 -112h72q13 0 18.5 -5.5t4.5 -18.5l-7 -56q-1 -13 -8 -18.5
t-20 -5.5h-82l-91 -394q-16 -66 -69.5 -106.5t-162.5 -40.5h-25q-13 0 -18 5.5t-4 18.5l8 58q1 13 7.5 19t19.5 6h19q43 0 66 13.5t30 41.5z" />
    <glyph glyph-name="asciicircum" unicode="^" horiz-adv-x="524" 
d="M364 301l-96 250l-95 -250q-4 -12 -9.5 -19t-18.5 -7h-80q-13 0 -20.5 6.5t-2.5 19.5l153 356q4 10 9 16.5t18 6.5h93q13 0 18 -6.5t9 -16.5l154 -356q5 -13 -3 -19.5t-21 -6.5h-80q-13 0 -18.5 7t-9.5 19z" />
    <glyph glyph-name="asciitilde" unicode="~" horiz-adv-x="491" 
d="M438 330l-4 -41q-5 -50 -30 -72t-53 -22q-15 0 -32 4t-29 10l-90 42q-9 4 -17.5 7t-15.5 3q-13 0 -16.5 -9t-5.5 -22l-1 -6q-2 -13 -8.5 -17.5t-18.5 -4.5h-42q-13 0 -17.5 7.5t-3.5 20.5l5 48q5 48 30.5 68t52.5 20q13 0 28.5 -3t26.5 -8l89 -41q11 -5 22 -9t19 -4
q10 0 13.5 8.5t6.5 22.5l1 5q2 13 8 17.5t19 4.5h42q14 0 18 -7.5t3 -21.5z" />
    <glyph glyph-name="acute" unicode="&#xb4;" horiz-adv-x="314" 
d="M341 683l-85 -106q-4 -5 -12.5 -11t-21.5 -6h-67q-11 0 -14.5 6t4.5 19l60 98q7 10 15.5 17.5t21.5 7.5h90q13 0 15.5 -7.5t-6.5 -17.5z" />
    <glyph glyph-name="grave" unicode="`" horiz-adv-x="314" 
d="M206 577l-60 106q-6 10 -1.5 17.5t17.5 7.5h85q13 0 20 -7t11 -18l37 -98q5 -13 -0.5 -19t-16.5 -6h-62q-13 0 -20 5.5t-10 11.5z" />
    <glyph glyph-name="hungarumlaut" unicode="&#x2dd;" horiz-adv-x="404" 
d="M289 683l-66 -98q-7 -11 -15 -18t-21 -7h-61q-13 0 -17 6.5t3 18.5l54 98q7 12 15.5 18.5t21.5 6.5h73q13 0 16.5 -7.5t-3.5 -17.5zM450 683l-81 -99q-7 -9 -17 -16.5t-23 -7.5h-61q-13 0 -15.5 6.5t5.5 18.5l69 98q8 11 18 18t23 7h73q13 0 15.5 -7.5t-6.5 -17.5z" />
    <glyph glyph-name="circumflex" unicode="&#x2c6;" horiz-adv-x="354" 
d="M256 630l-30 -45q-6 -9 -15.5 -17t-22.5 -8h-64q-13 0 -16 7.5t6 17.5l84 98q9 11 19.5 18t23.5 7h48q13 0 21 -7.5t15 -17.5l61 -98q7 -10 1.5 -17.5t-18.5 -7.5h-62q-13 0 -20 8t-11 17z" />
    <glyph glyph-name="caron" unicode="&#x2c7;" horiz-adv-x="354" 
d="M238 684l19 -46l31 46q6 9 15 16.5t22 7.5h65q13 0 16 -7t-6 -17l-85 -99q-9 -10 -19.5 -17.5t-23.5 -7.5h-47q-13 0 -21 7.5t-15 18.5l-62 98q-6 10 -1 17t18 7h63q13 0 20 -7.5t11 -16.5z" />
    <glyph glyph-name="breve" unicode="&#x2d8;" horiz-adv-x="417" 
d="M186 685l-1 -10q-1 -7 -1 -11v-5q0 -16 9 -25.5t32 -9.5q27 0 38 12.5t12 32.5l1 16q1 12 7 16.5t18 4.5h50q12 0 16 -5t3 -16l-1 -13q-4 -57 -40.5 -91t-108.5 -34q-59 0 -95 26.5t-36 75.5v9.5t1 11.5l2 15q1 11 7 16t18 5h50q11 0 15.5 -4.5t3.5 -16.5z" />
    <glyph glyph-name="tilde" unicode="&#x2dc;" horiz-adv-x="408" 
d="M217 607q-9 0 -13 -5t-7 -15l-3 -10q-4 -13 -11 -17.5t-18 -4.5h-42q-13 0 -16.5 8t-0.5 21l9 42q8 37 34.5 57t60.5 20q15 0 31 -3.5t29 -10.5l40 -21q10 -5 18.5 -9t14.5 -4q10 0 14 5t8 18l2 6q4 12 10 17t19 5h44q13 0 17 -8t1 -21l-9 -38q-10 -40 -34 -59t-55 -19
q-25 0 -39 3.5t-27 10.5l-43 21q-10 5 -18.5 8t-15.5 3z" />
    <glyph glyph-name="macron" unicode="&#xaf;" horiz-adv-x="406" 
d="M170 671h231q13 0 18 -5.5t4 -18.5l-6 -51q-1 -13 -8 -18.5t-20 -5.5h-231q-13 0 -18 5.5t-4 18.5l6 51q1 13 8 18.5t20 5.5z" />
    <glyph glyph-name="dieresis" unicode="&#xa8;" horiz-adv-x="381" 
d="M392 681l-12 -93q-1 -13 -7.5 -19t-19.5 -6h-48q-13 0 -17.5 6t-3.5 19l11 93q1 13 8 19t20 6h48q13 0 17.5 -6t3.5 -19zM252 681l-11 -93q-1 -13 -7.5 -19t-19.5 -6h-49q-13 0 -17.5 6t-3.5 19l11 93q1 13 8 19t20 6h49q13 0 17 -6t3 -19z" />
    <glyph glyph-name="dotaccent" unicode="&#x2d9;" horiz-adv-x="249" 
d="M275 677l-10 -81q-1 -13 -7 -19t-19 -6h-86q-13 0 -17.5 6t-3.5 19l10 81q1 13 7.5 19t19.5 6h86q13 0 17 -6t3 -19z" />
    <glyph glyph-name="ring" unicode="&#x2da;" horiz-adv-x="357" 
d="M372 650l-3 -30q-3 -31 -28 -53.5t-85 -22.5q-59 0 -85 22.5t-22 57.5l3 30q3 31 29 53.5t87 22.5q57 0 82.5 -22.5t21.5 -57.5zM300 629l1 15q1 16 -9 23t-29 7t-30.5 -7t-12.5 -23l-1 -15q-1 -16 9 -23t29 -7t30.5 7t12.5 23z" />
    <glyph glyph-name="cedilla" unicode="&#xb8;" horiz-adv-x="261" 
d="M126 -45h31q34 0 55.5 -19t21.5 -53q0 -48 -28 -71t-70 -23h-120q-14 0 -18 7t-3 18l2 20q1 13 7.5 18.5t19.5 5.5h98q10 0 15.5 4t5.5 13q0 8 -5.5 11t-12.5 3h-73q-17 0 -25.5 8t-1.5 25l37 91q5 13 13 18t19 4l37 -3q12 -1 15 -11t-1 -19z" />
    <glyph glyph-name="ogonek" unicode="&#x2db;" horiz-adv-x="232" 
d="M168 -178h-64q-39 0 -66 20t-27 59q0 26 13 58.5t52 72.5q7 7 16.5 13t19.5 4l42 -10q14 -3 16.5 -10.5t-7.5 -17.5q-27 -25 -38 -44t-11 -35q0 -14 9 -19t25 -5h31q11 0 17.5 -5t4.5 -19l-5 -38q-1 -13 -8 -18.5t-20 -5.5z" />
    <glyph glyph-name="copyright" unicode="&#xa9;" horiz-adv-x="762" 
d="M707 456v-231q0 -41 -10.5 -83t-43.5 -75t-96.5 -54t-169.5 -21q-105 0 -168.5 21t-96.5 54t-43.5 75t-10.5 83v231q0 41 10.5 83t43.5 75t96.5 53.5t168.5 20.5q106 0 169.5 -20.5t96.5 -53.5t43.5 -75t10.5 -83zM612 206v269q0 57 -51.5 95t-173.5 38t-173 -38t-51 -96
v-267q0 -58 51 -96t173 -38t173.5 37.5t51.5 95.5zM389 546q96 0 132.5 -36.5t36.5 -102.5v-9q0 -13 -6 -18.5t-19 -5.5h-67q-13 0 -18.5 5.5t-5.5 18.5v6q0 28 -12.5 41t-40.5 13t-40.5 -13t-12.5 -41v-128q0 -28 12.5 -41t40.5 -13t40.5 13t12.5 41v13q0 13 5.5 19t18.5 6
h67q13 0 19 -6t6 -19v-17q0 -66 -37 -102.5t-133 -36.5t-132.5 36.5t-36.5 102.5v135q0 66 37 102.5t133 36.5z" />
    <glyph glyph-name="registered" unicode="&#xae;" horiz-adv-x="628" 
d="M584 523v-185q0 -26 -8 -55t-34 -53.5t-76.5 -40.5t-134.5 -16t-134.5 16t-77 40.5t-34.5 53.5t-8 55v185q0 26 8 55t34.5 53.5t77 40.5t134.5 16t134.5 -16t76.5 -40.5t34 -53.5t8 -55zM498 329v202q0 34 -33.5 57.5t-133.5 23.5q-99 0 -133 -23.5t-34 -57.5v-201
q0 -34 34 -58t133 -24q100 0 133.5 23.5t33.5 57.5zM337 503h-33v-57h33q9 0 19.5 5.5t10.5 16.5v12q0 13 -10 18t-20 5zM287 294h-54q-9 0 -13 4.5t-4 13.5v237q0 9 4 13t13 4h114q69 0 89 -27t20 -56v-17q0 -19 -7.5 -38t-29.5 -31l33 -85q3 -8 -1.5 -13t-14.5 -5h-57
q-7 0 -10.5 4.5t-7.5 13.5l-28 70h-29v-70q0 -9 -4 -13.5t-13 -4.5z" />
    <glyph glyph-name="trademark" unicode="&#x2122;" horiz-adv-x="875" 
d="M98 680h274q11 0 15.5 -4.5t3.5 -14.5l-7 -53q-1 -11 -6.5 -15.5t-16.5 -4.5h-82l-36 -295q-1 -11 -6 -16t-16 -5h-71q-11 0 -15 5t-3 16l36 295h-82q-11 0 -15 4.5t-3 15.5l6 53q1 10 6.5 14.5t17.5 4.5zM855 659l-45 -366q-1 -11 -6 -16t-16 -5h-66q-11 0 -15 5t-3 16
l23 185q-3 -7 -7 -15.5t-7 -13.5l-55 -95q-5 -9 -12 -14.5t-17 -5.5h-46q-11 0 -17 5.5t-9 14.5l-35 97q-2 6 -3.5 14.5t-1.5 18.5l-24 -191q-1 -11 -6 -16t-16 -5h-62q-11 0 -15.5 5t-3.5 16l45 366q1 11 7 16t17 5h61q7 0 11 -2.5t6 -7.5l71 -182q3 -7 6 -16t5 -18
q4 8 8.5 16.5t8.5 15.5l114 184q3 4 8.5 7t12.5 3h67q11 0 14.5 -5t2.5 -16z" />
    <glyph glyph-name="degree" unicode="&#xb0;" horiz-adv-x="415" 
d="M67 483l11 93q6 51 41.5 81.5t132.5 30.5q78 0 115.5 -25t37.5 -71v-6t-1 -12l-11 -93q-6 -51 -41.5 -81t-131.5 -30q-82 0 -118 26t-36 69v8.5t1 9.5zM283 486l11 84q2 19 -14.5 25.5t-36.5 6.5q-22 0 -37.5 -7t-17.5 -23l-10 -84q-2 -19 13.5 -26t36.5 -7q23 0 38 7
t17 24z" />
    <glyph glyph-name="estimated" unicode="&#x212e;" horiz-adv-x="772" 
d="M748 340q0 -10 -5 -13t-13 -3h-536v-215q40 -37 93.5 -59.5t114.5 -22.5q80 0 136.5 30.5t101.5 79.5q2 2 5 3.5t6 1.5q7 0 11.5 -5.5t4.5 -12.5q0 -5 -2 -9t-5 -8q-45 -52 -113.5 -83.5t-144.5 -31.5q-72 0 -135.5 25.5t-110.5 71.5t-74.5 110.5t-27.5 140.5
q0 72 27.5 135.5t74.5 110.5t110.5 74.5t135.5 27.5q71 0 134.5 -27.5t110 -74.5t74 -110.5t27.5 -135.5zM402 653q-61 0 -114.5 -23t-93.5 -61v-214h416v214q-40 38 -94 61t-114 23z" />
    <glyph glyph-name="lozenge" unicode="&#x25ca;" horiz-adv-x="400" 
d="M54 338l129 129q4 4 8.5 6.5t8.5 2.5t8.5 -2.5t8.5 -6.5l129 -129q4 -4 6 -8.5t2 -8.5t-2 -8.5t-6 -8.5l-129 -129q-4 -4 -8.5 -6t-8.5 -2t-8.5 2t-8.5 6l-129 129q-4 4 -6.5 8.5t-2.5 8.5t2.5 8.5t6.5 8.5z" />
    <glyph glyph-name="uni00AD" unicode="&#xad;" horiz-adv-x="436" 
d="M84 342h267q13 0 19 -5.5t6 -18.5v-59q0 -13 -6 -18.5t-19 -5.5h-267q-13 0 -19.5 5.5t-6.5 18.5v59q0 13 6.5 18.5t19.5 5.5z" />
    <glyph glyph-name="commaaccent" unicode="&#xf6c3;" horiz-adv-x="195" 
d="M69 75l4 31q1 13 7.5 19t19.5 6h62q13 0 17 -6t3 -19l-5 -38q-6 -46 -22 -74.5t-38 -58.5q-8 -11 -16.5 -13t-17.5 0l-45 11q-12 3 -13.5 12t5.5 21q19 32 26.5 51t12.5 58z" />
    <glyph glyph-name=".null" horiz-adv-x="0" 
 />
    <glyph glyph-name="CR" horiz-adv-x="0" 
 />
    <glyph glyph-name="apple" horiz-adv-x="1486" 
d="M72 529v8h1338v-8h-1338zM1216 332l-29 -2v4q0 5 2 12.5t10 7.5h17l-3 30q2 1 12.5 4.5t19.5 3.5q4 0 7.5 -2t3.5 -6v-29h47v-3q0 -6 -2 -13.5t-10 -7.5h-35v-90q0 -6 3 -10.5t13 -4.5q18 0 38.5 5.5t46.5 5.5q10 0 36 -5t26 -19q0 -16 -11 -22t-16 -6q-7 0 -26.5 12
t-44.5 12q-13 0 -32 -4t-44 -4t-26 22.5t-3 108.5zM1175 258q-12 -4 -24 -5t-20 -1q1 -10 8.5 -16t17.5 -6q9 0 17 2.5t15 6.5q4 -3 6 -7.5t2 -8.5t-8 -13.5t-39 -9.5q-28 0 -44 15t-16 38q0 25 17.5 46.5t51.5 21.5q21 0 31 -10.5t10 -20.5q0 -12 -6 -20t-19 -12zM852 258
q-12 -4 -24 -5t-20 -1q1 -10 8.5 -16t17.5 -6q9 0 17 2.5t15 6.5q4 -3 6 -7.5t2 -8.5t-8 -13.5t-39 -9.5q-28 0 -44 15t-16 38q0 25 17.5 46.5t51.5 21.5q21 0 31 -10.5t10 -20.5q0 -12 -6 -20t-19 -12zM153 258q-12 -4 -24 -5t-20 -1q1 -10 8.5 -16t17.5 -6q9 0 17 2.5
t15 6.5q4 -3 6 -7.5t2 -8.5t-8 -13.5t-39 -9.5q-28 0 -44 15t-16 38q0 25 17.5 46.5t51.5 21.5q21 0 31 -10.5t10 -20.5q0 -12 -6 -20t-19 -12zM1074 289v-49l2 -32q-2 -1 -12.5 -4.5t-18.5 -3.5q-4 0 -7.5 2t-3.5 6v67q0 3 -1 9t-7 6q-7 0 -16.5 -17.5t-9.5 -30.5l3 -34
q-2 -1 -12.5 -4.5t-19.5 -3.5q-4 0 -7.5 2t-3.5 6v69l-3 36q2 1 12.5 4.5t19.5 3.5q4 0 7.5 -2.5t3.5 -6.5v-40q4 10 15 29.5t30 19.5q16 0 22.5 -9.5t6.5 -22.5zM383 289v-49l3 -32q-2 -1 -12.5 -4.5t-18.5 -3.5q-4 0 -7.5 2t-3.5 6v66q0 4 -1 10t-7 6q-7 0 -17 -17.5
t-9 -30.5l2 -34q-2 -1 -12.5 -4.5t-18.5 -3.5q-4 0 -7.5 2t-3.5 6v66q0 4 -1 10t-7 6q-7 0 -16.5 -17.5t-9.5 -30.5l3 -34q-2 -1 -12.5 -4.5t-19.5 -3.5q-4 0 -7.5 2t-3.5 6v69l-3 36q2 1 12.5 4.5t19.5 3.5q4 0 7.5 -2.5t3.5 -6.5v-40q3 10 14.5 29.5t30.5 19.5
q16 0 22.5 -9.5t6.5 -22.5v-17q3 10 14 29.5t31 19.5q16 0 22 -9.5t6 -22.5zM807 264q13 0 25 5t12 16q0 3 -2 8t-11 5q-10 0 -16.5 -11t-7.5 -23zM1130 264q13 0 25 5t12 16q0 3 -2 8t-11 5q-10 0 -16.5 -11t-7.5 -23zM108 264q13 0 25 5t12 16q0 3 -2 8t-11 5
q-10 0 -16.5 -11t-7.5 -23zM667 219q16 2 30.5 12.5t14.5 38.5q0 7 -3 13.5t-10 6.5q-14 0 -23 -20.5t-9 -27.5v-23zM917 250q10 0 18 -7t8 -17t-8 -16.5t-18 -6.5t-17.5 6.5t-7.5 16.5t7.5 17t17.5 7zM714 320q16 0 28 -13t12 -38q0 -29 -20.5 -48.5t-66.5 -19.5v-40l3 -32
q-2 -1 -12.5 -4.5t-19.5 -3.5q-4 0 -7.5 2t-3.5 6v75l-25 -3v-3q0 -28 -14 -53.5t-54 -25.5q-23 0 -32 11.5t-9 22.5q0 25 24 36.5t46 16.5v42q-4 -10 -15 -29t-31 -19q-16 0 -22 9t-6 22v3q-6 -10 -18.5 -21.5t-34.5 -11.5q-13 0 -21 8.5t-8 21.5v101l-29 -2v4q0 5 2 12.5
t10 7.5h17l-3 30q2 1 12.5 4.5t19.5 3.5q4 0 7.5 -2t3.5 -6v-29h47v-3q0 -6 -2 -13.5t-10 -7.5h-35v-86q0 -6 2.5 -11t10.5 -5t18.5 7.5t10.5 18.5v25l-3 33q2 1 12.5 4.5t19.5 3.5q4 0 7.5 -2.5t3.5 -6.5v-66q0 -4 1 -9.5t6 -5.5q7 0 16.5 17.5t9.5 30.5l-2 34
q2 1 12.5 4.5t18.5 3.5q4 0 7.5 -2.5t3.5 -6.5v-99l25 3v61l-3 36q2 1 12.5 4.5t19.5 3.5q4 0 7.5 -2.5t3.5 -6.5v-40q4 10 15 29t32 19zM562 194q-10 -2 -25.5 -9.5t-15.5 -22.5q0 -7 4.5 -10.5t9.5 -3.5q16 0 21 15.5t6 30.5zM72 0v8h1338v-8h-1338z" />
    <glyph glyph-name="ff" unicode="&#xfb00;" horiz-adv-x="655" 
d="M33 418l6 49q1 13 8 18t20 6l51 5h3l8 60q9 66 62 106.5t166 40.5h13q13 0 18.5 -6t4.5 -19l-7 -57q-1 -13 -8.5 -19t-20.5 -6h-9q-42 0 -64.5 -13.5t-25.5 -41.5l-5 -45h174l8 60q9 66 62 106.5t166 40.5h14q13 0 18 -6t4 -19l-7 -57q-1 -13 -8.5 -19t-20.5 -6h-9
q-42 0 -63.5 -13.5t-25.5 -41.5l-6 -45h83q13 0 18 -5t4 -18l-7 -55q-1 -13 -7.5 -19t-19.5 -6h-83l-71 -569q-1 -13 -7 -19t-19 -6h-83q-13 0 -18 6t-4 19l70 569h-175l-70 -569q-1 -13 -7 -19t-19 -6h-83q-13 0 -18 6t-4 19l70 569h-54q-13 0 -18 6t-4 19z" />
    <glyph glyph-name="ffi" unicode="&#xfb03;" horiz-adv-x="897" 
d="M33 418l6 49q1 13 8 18t20 6l51 5h3l8 60q9 66 62 106.5t166 40.5h13q13 0 18.5 -6t4.5 -19l-7 -57q-1 -13 -8.5 -19t-20.5 -6h-9q-42 0 -64.5 -13.5t-25.5 -41.5l-5 -45h175l7 56q8 66 61 106.5t163 40.5h200q13 0 18 -6t4 -19l-6 -57q-1 -13 -8.5 -19t-20.5 -6h-192
q-43 0 -64 -13.5t-25 -41.5l-6 -41h282q13 0 18 -5.5t4 -18.5l-55 -447q-1 -13 -7 -19t-19 -6h-84q-13 0 -17.5 6t-3.5 19l45 368h-175l-71 -569q-1 -13 -7 -19t-19 -6h-83q-13 0 -18 6t-4 19l70 569h-175l-70 -569q-1 -13 -7 -19t-19 -6h-83q-13 0 -18 6t-4 19l70 569h-54
q-13 0 -18 6t-4 19z" />
    </font>
</defs>
</svg>
